<svg width="49" height="10" viewBox="0 0 49 10" fill="none" xmlns="http://www.w3.org/2000/svg">
<g clip-path="url(#clip0_2282_17744)">
<path d="M7.02295 3.07031H7.09473L7.08276 9.78148L7.0708 9.79361H5.53955L5.52759 9.78148L5.51562 9.5873L5.50366 8.59216L5.44385 8.62857L5.31226 8.88342L5.19263 9.05332L5.02515 9.23536L4.8457 9.39313L4.61841 9.53876L4.28345 9.7208L4.03223 9.80575L3.66138 9.87857L3.37427 9.91497H3.01538L2.65649 9.86643L2.36938 9.80575L2.13013 9.73293L1.80713 9.5873L1.54395 9.42954L1.3645 9.29604L1.19702 9.15041L1.02954 8.98051L0.945801 8.88342L0.814209 8.72565L0.670654 8.51934L0.539062 8.3009L0.455322 8.13099L0.347656 7.85187L0.263916 7.54847L0.192139 7.19653L0.168213 7.00235L0.15625 6.83245V6.46837L0.192139 6.08002L0.251953 5.74022L0.335693 5.44895L0.431396 5.1941L0.551025 4.93924L0.730469 4.63585L0.838135 4.49022L0.969727 4.33245L1.05347 4.23536L1.18506 4.08973L1.35254 3.95623L1.6875 3.71352L1.99854 3.54361L2.22583 3.45866L2.5249 3.38585L2.83594 3.3373L2.96753 3.32517H3.48193L3.78101 3.36157L4.08008 3.44653L4.3313 3.53148L4.60645 3.67711L4.80981 3.82274L4.92944 3.91983L5.04907 4.02905L5.1687 4.15041L5.28833 4.32031L5.44385 4.57517L5.50366 4.66012L5.51562 3.48293L5.57544 3.44653L6.0061 3.3373L6.48462 3.20381L6.96313 3.08245L7.02295 3.07031ZM3.45801 4.69653L3.15894 4.74507L2.90771 4.81789L2.71631 4.91497L2.57275 5.01206L2.41724 5.14556L2.30957 5.24264L2.22583 5.33973L2.11816 5.46109L1.98657 5.67954L1.90283 5.86157L1.83105 6.09216L1.79517 6.2742L1.77124 6.52905V6.71109L1.79517 6.96594L1.85498 7.23293L1.93872 7.48779L2.02246 7.65769L2.14209 7.82759L2.21387 7.91255L2.30957 7.9975L2.4292 8.11886L2.58472 8.24022L2.89575 8.41012L3.08716 8.48293L3.35034 8.53148L3.45801 8.54361H3.86475L4.11597 8.50721L4.31934 8.44653L4.57056 8.34944L4.75 8.25235L4.90552 8.13099L5.06104 7.98536L5.19263 7.83973L5.30029 7.66983L5.38403 7.49992L5.55151 7.06303L5.61133 6.79604V6.48051L5.55151 6.17711L5.46777 5.92225L5.37207 5.70381L5.27637 5.52177L5.1687 5.364L5.02515 5.1941L4.83374 5.04847L4.58252 4.90284L4.37915 4.80575L4.17578 4.74507L3.97241 4.70866L3.85278 4.69653H3.45801Z" fill="currentColor"/>
<path d="M45.6143 3.3125H45.8057L46.1765 3.33677L46.4995 3.38532L46.8823 3.4824L47.1216 3.56735L47.3489 3.67658L47.5762 3.82221L47.7556 3.9557L47.8752 4.05279L48.0308 4.19842L48.1504 4.31978L48.2581 4.45328L48.3538 4.57464L48.4734 4.75667L48.593 4.96299L48.6768 5.15716L48.7964 5.58192L48.8682 6.01881L48.8921 6.35862L48.9041 6.55279L48.8323 6.57706L48.3418 6.5892H43.8198L43.8318 6.63774L43.8557 6.94114L43.9036 7.20813L43.9634 7.40231L44.1189 7.74211L44.2266 7.89988L44.406 8.08192L44.4897 8.17901L44.6692 8.30036L44.8486 8.39745L45.1357 8.50667L45.363 8.54308L45.5664 8.55522H45.8176L46.1047 8.53095L46.2722 8.49454L46.4875 8.42172L46.679 8.32464L46.8584 8.21541L46.978 8.10619L47.0737 7.98483L47.1934 7.85134L47.2891 7.64502L47.3608 7.39017L47.3848 7.18386L47.3967 7.17172H48.4614L48.9998 7.18386V7.79066H48.9758V7.81493L48.9399 7.82706L48.928 7.76638L48.916 7.71784L48.8921 7.8392L48.7605 8.22755L48.6528 8.42172L48.4734 8.68871L48.3538 8.84648L48.1025 9.10134L47.9829 9.19842L47.7795 9.34405L47.5762 9.46541L47.2771 9.61104L47.002 9.72027L46.7986 9.78095L46.4277 9.85376L46.0688 9.90231L45.9373 9.91444H45.5186L45.0759 9.8659L44.7529 9.80522L44.4897 9.7324L44.1907 9.62318L43.9275 9.50182L43.7241 9.38046L43.5925 9.28337L43.437 9.16201L43.2815 9.02852L43.1978 8.94357L43.1379 8.89502L43.0303 8.76153L42.9346 8.62803L42.7432 8.33677L42.6235 8.11833L42.5039 7.81493L42.4202 7.52367L42.3604 7.24454L42.3245 7.01396L42.3125 6.85619V6.4193L42.3364 6.10376L42.3843 5.80036L42.4441 5.55765L42.5398 5.26638L42.6355 5.04794L42.7551 4.84163L42.8867 4.64745L43.0063 4.47755L43.0901 4.3926L43.1738 4.29551L43.2695 4.21056L43.3293 4.14988L43.449 4.04066L43.9155 3.72512L44.095 3.62803L44.3701 3.51881L44.6213 3.446L44.9563 3.37318L45.375 3.32464L45.6143 3.3125ZM45.4707 4.51396L45.1597 4.55036L44.9324 4.61104L44.7529 4.68386L44.5854 4.79308L44.4658 4.89017L44.3103 5.0358L44.2026 5.15716L44.095 5.31493L44.0471 5.41201V5.44842L44.1548 5.47269H46.5952L47.2053 5.46056L47.2173 5.42415L47.1335 5.25425L47.0378 5.13289L46.9062 4.98726L46.7747 4.85376L46.5952 4.72027L46.3918 4.62318L46.1885 4.5625L45.9851 4.52609L45.8535 4.51396H45.4707Z" fill="currentColor"/>
<path d="M26.8096 3.32422H27.1086L27.4675 3.34849L27.7307 3.3849L28.1255 3.46985L28.4485 3.57907L28.7954 3.74898L29.0347 3.89461L29.2021 4.01597L29.3577 4.14946L29.4534 4.23441L29.573 4.34364L29.6567 4.44072L29.7524 4.53781L29.908 4.74412L30.0396 4.95043L30.1592 5.16888L30.2788 5.47228L30.3625 5.7514L30.4104 5.98199L30.4463 6.26111L30.4583 6.40674V6.84364L30.4343 7.18344L30.3506 7.54752L30.3027 7.71742L30.207 7.97228L30.1113 8.16645L29.9917 8.3849L29.8481 8.59121L29.6807 8.79752L29.5132 8.97956L29.3816 9.10092L29.1782 9.25868L29.0107 9.38004L28.7595 9.52567L28.4365 9.67131L28.1135 9.78053L27.7905 9.85334L27.4675 9.90189L27.3359 9.91402H26.678L26.2593 9.86548L25.9482 9.8048L25.6851 9.73199L25.2544 9.54995L25.0271 9.42859L24.8835 9.3315L24.74 9.22228L24.5725 9.08878L24.3811 8.90674L24.2495 8.76111L24.1179 8.59121L23.9863 8.40917L23.8428 8.14218L23.7231 7.86305L23.6394 7.59606L23.5796 7.32907L23.5317 7.01354L23.5078 6.64946L23.5198 6.33393L23.5557 6.0548L23.6155 5.77567L23.6992 5.48441L23.8188 5.19315L23.9146 4.99898L24.0701 4.71985L24.1897 4.58635L24.3093 4.42859L24.4409 4.28296L24.5964 4.14946L24.7639 4.01597L24.9314 3.89461L25.1587 3.74898L25.3381 3.65189L25.6851 3.51839L25.9722 3.43344L26.2114 3.3849L26.6301 3.33635L26.8096 3.32422ZM26.7737 4.68344L26.5344 4.71985L26.3311 4.78053L26.1396 4.86548L25.8884 5.01111L25.697 5.15674L25.6133 5.24169L25.4817 5.4116L25.374 5.56936L25.3022 5.69072L25.1946 5.99412L25.1348 6.26111L25.1108 6.46742V6.75868L25.1467 7.07422L25.2065 7.3048L25.3022 7.54752L25.386 7.71742L25.5056 7.88733L25.6372 8.02082L25.7209 8.11791L25.8167 8.21499L25.9602 8.29995L26.1516 8.39703L26.4148 8.50626L26.6541 8.5548L26.8574 8.56694H27.1445L27.4556 8.53053L27.7068 8.45771L27.9341 8.36063L28.0657 8.27567L28.1973 8.16645L28.3528 8.02082L28.4844 7.87519L28.5681 7.75383L28.7117 7.51111L28.7954 7.29267L28.8552 7.02567L28.8792 6.78296V6.46742L28.8433 6.17616L28.7834 5.94558L28.7117 5.7514L28.6279 5.59364L28.5083 5.4116L28.4126 5.29024L28.3528 5.21742L28.2212 5.1082L28.0298 4.9747L27.8384 4.86548L27.7427 4.81694L27.5273 4.74412L27.2881 4.69558L27.1924 4.68344H26.7737Z" fill="currentColor"/>
<path d="M37.8379 3.33594H38.2327L38.6155 3.37235L39.0461 3.4573L39.3093 3.53011L39.5964 3.63934L39.8716 3.78497L40.0151 3.88205L40.1826 3.99128L40.3022 4.08836L40.4578 4.234L40.697 4.47671L40.8167 4.63448L40.9363 4.82866L41.0798 5.10778L41.1755 5.33836L41.2473 5.50827L41.2354 5.54468L39.5725 5.55681L39.5127 5.49613L39.429 5.36264L39.2136 5.14419L39.0461 5.02283L38.771 4.86506L38.6274 4.80438L38.436 4.7437L38.2087 4.7073H37.8379L37.5867 4.7437L37.3474 4.81652L37.156 4.91361L37.0125 4.99856L36.8091 5.15633L36.6416 5.32623L36.522 5.49613L36.4263 5.66603L36.3306 5.89662L36.2708 6.09079L36.2109 6.4306V6.83108L36.2468 7.0738L36.3186 7.31652L36.4382 7.63205L36.522 7.77768L36.6177 7.89904L36.7253 8.00827L36.8091 8.10535L36.9766 8.23885L37.1799 8.36021L37.5269 8.4937L37.7183 8.53011L37.8259 8.54225H38.2805L38.4958 8.51798L38.7471 8.44516L38.9504 8.34807L39.1418 8.22671L39.2615 8.11749L39.405 7.95972L39.5007 7.8505L39.6084 7.65633L39.7041 7.42574L39.7639 7.2073L39.7878 7.02526V6.55196H41.4268L41.4387 6.56409L41.4268 6.9039L41.3909 7.34079L41.343 7.60778L41.2354 7.97186L41.1277 8.23885L41.0559 8.37234L40.9124 8.57866L40.8047 8.72429L40.6611 8.88205L40.4338 9.11264L40.3022 9.22186L40.1826 9.31895L39.9553 9.46458L39.752 9.5738L39.417 9.7073L39.1179 9.79225L38.8188 9.85293L38.4719 9.90147L38.125 9.92574H37.7063L37.2397 9.86506L36.9526 9.80438L36.6057 9.69516L36.2947 9.5738L36.1152 9.47671L35.8879 9.31895L35.7205 9.18545L35.5649 9.05196L35.3975 8.88205L35.3137 8.78497L35.1702 8.60293L35.0266 8.37234L34.7993 7.91118L34.7156 7.63205L34.6318 7.2437L34.5959 6.95244L34.584 6.78254V6.4306L34.6079 6.17574L34.6677 5.81167L34.7515 5.50827L34.8472 5.26555L35.0266 4.90147L35.1941 4.64662L35.3496 4.45244L35.6606 4.13691L35.8879 3.96701L36.1272 3.80924L36.4502 3.63934L36.6655 3.54225L36.9048 3.46943L37.2517 3.39662L37.5149 3.36021L37.8379 3.33594Z" fill="currentColor"/>
<path d="M16.4141 3.47266H18.1008L18.1367 3.5212L18.6272 5.01392L18.7827 5.47508L18.9502 5.92411L19.0938 6.36101L19.2612 6.85858L19.4048 7.29547L19.5842 7.81732L19.668 8.09644L19.7158 8.19353L19.7756 8.24207L19.8115 8.18139L19.967 7.69596L20.0747 7.39256L20.1824 7.07702L20.3618 6.55518L20.5054 6.11829L20.6729 5.62071L20.9001 4.97751L21.0437 4.55275L21.3308 3.67897L21.3906 3.48479L21.4026 3.47266H23.0415L23.0654 3.48479L23.0535 3.56974L22.8621 4.03091L22.6467 4.58916L22.4194 5.17169L22.2878 5.51149L22.0964 5.98479L21.929 6.40955L21.7974 6.74935L21.6299 7.16198L21.4504 7.62314L21.3188 7.96295L21.1514 8.37557L20.9121 8.9945L20.7087 9.50421L20.5891 9.7712L20.5652 9.79547H18.9382L18.8784 9.74693L18.7827 9.55275L18.6272 9.14013L18.4597 8.6911L17.7898 6.99207L17.718 6.7979L17.6223 6.56732L17.5266 6.3246L17.3591 5.8877L17.2036 5.47508L17.0601 5.11101L16.8328 4.52848L16.6414 4.03091L16.4978 3.67897L16.4141 3.49693V3.47266Z" fill="currentColor"/>
<path d="M13.4465 3.05859H13.4824V4.01733L13.4705 4.79403L13.4585 5.23092L13.5422 5.01248L13.614 4.83044L13.7217 4.57558L13.8293 4.36927L14.0208 4.07801L14.1523 3.92024L14.3198 3.75034L14.4753 3.62898L14.6309 3.53189L14.8701 3.43481L15.0615 3.37413L15.3367 3.33772L15.5281 3.32558H15.7913L15.8152 3.33772V4.89112L15.7793 4.92753L15.4324 4.91539L15.1812 4.93966L14.906 4.98821L14.6667 5.06102L14.4753 5.14597L14.3557 5.21879L14.2241 5.32801L14.1045 5.43723L13.9968 5.57073L13.9131 5.70423L13.7695 5.98335L13.6858 6.2018L13.614 6.48092L13.5781 6.69937L13.5542 6.95423L13.5422 7.29403L13.5303 9.76976L13.5063 9.79403H11.9751L11.9631 9.7819L11.9512 4.11442V3.47122L12.0469 3.43481L12.8005 3.2285L13.303 3.095L13.4465 3.05859Z" fill="currentColor"/>
<path d="M33.2578 3.04688H33.3057L33.3176 3.13183V9.77018L33.2817 9.79445H31.7625L31.7505 9.78231L31.7385 9.67309V4.50319L31.7266 3.48377L31.7385 3.4595L31.9658 3.39882L32.9587 3.14396L33.2578 3.04688Z" fill="currentColor"/>
<path d="M10.2756 3.07031L10.3115 3.09458V9.76934L10.2996 9.78148L10.168 9.79361H8.75635L8.74438 9.78148L8.73242 7.28148V3.4708L8.81616 3.43439L9.17505 3.34944L9.9646 3.14313L10.2756 3.07031Z" fill="currentColor"/>
<path d="M32.5264 0.253906H32.7178L32.957 0.290314L33.1484 0.36313L33.28 0.448081L33.4475 0.593712L33.5671 0.739343L33.6628 0.909246L33.7107 1.05488L33.7346 1.20051V1.4675L33.6987 1.6374L33.615 1.84371L33.5073 1.98934L33.4236 2.08643L33.2202 2.2442L33.0408 2.34128L32.8254 2.4141L32.6101 2.45051H32.2153L32.0479 2.4141L31.9043 2.35342L31.7847 2.28061L31.6292 2.14711L31.5095 2.00148L31.4019 1.79517L31.342 1.58886L31.3301 1.52818V1.28546L31.3779 1.07915L31.4377 0.921382L31.5454 0.763615L31.7129 0.581576L31.8325 0.484489L32.0239 0.375265L32.1914 0.314586L32.3948 0.266042L32.5264 0.253906Z" fill="currentColor"/>
<path d="M9.57007 0.253906H9.71362L9.94092 0.290314L10.1323 0.36313L10.3237 0.472353L10.4792 0.605848L10.575 0.727207L10.6587 0.89711L10.7185 1.10342L10.7305 1.20051V1.4675L10.6946 1.6374L10.5989 1.85585L10.4792 2.02575L10.3596 2.14711L10.1802 2.26847L10.0007 2.35342L9.82129 2.4141L9.61792 2.45051L9.35474 2.46264L9.18726 2.45051L9.00781 2.40196L8.81641 2.30488L8.69678 2.20779L8.57715 2.08643L8.46948 1.91653L8.38574 1.71022L8.34985 1.57672L8.33789 1.47963V1.32187L8.37378 1.10342L8.44556 0.921382L8.5293 0.775751L8.63696 0.654392L8.7207 0.56944L8.87622 0.448081L9.06763 0.350994L9.28296 0.290314L9.42651 0.266042L9.57007 0.253906Z" fill="currentColor"/>
<path d="M39.7891 6.49219H40.5547L40.8179 6.50432V6.51646H39.813L39.801 6.54073L39.7891 6.49219Z" fill="currentColor"/>
</g>
<defs>
<clipPath id="clip0_2282_17744">
<rect width="49" height="10" fill="currentColor"/>
</clipPath>
</defs>
</svg>
