<svg width="49" height="12" viewBox="0 0 49 12" fill="currentColor" xmlns="http://www.w3.org/2000/svg">
<g clip-path="url(#clip0_2181_17303)">
<path d="M0 0H48.938V9.5102L48.8761 9.55102L7.68465 9.57143L7.25084 10L7.23019 10.0408H7.18887L7.14755 10.1224H7.10624L7.06492 10.2041H7.02361L6.98229 10.2857H6.94098L6.89966 10.3673H6.85835L6.81703 10.449H6.77572L6.7344 10.5306H6.69309L6.65177 10.6122L6.38322 10.8776L6.23862 11.0408L5.30902 11.9592L5.28836 12H5.20573L5.06113 11.8163L4.62732 11.3878V11.3469L4.54469 11.3061V11.2653L4.46206 11.2245V11.1837L4.40008 11.1633L4.2968 11.0408L2.80944 9.57143L0 9.55102V0ZM21.8352 1.53061L21.6286 1.63265L21.5046 1.77551L21.4427 1.89796L21.422 2.12245L21.484 2.32653L21.6286 2.4898L21.7938 2.57143L21.8765 2.59184H22.0211L22.207 2.53061L22.3723 2.38776L22.4755 2.18367V1.95918L22.4136 1.79592L22.2483 1.61224L22.0624 1.53061H21.8352ZM37.411 1.53061L37.2045 1.63265L37.0599 1.79592L36.9979 1.97959V2.16327L37.0599 2.32653L37.2251 2.5102L37.4317 2.59184H37.597L37.7829 2.53061L37.9481 2.38776L38.0308 2.22449L38.0514 2.14286V1.95918L37.9895 1.79592L37.8242 1.61224L37.6383 1.53061H37.411ZM4.75127 1.57143L4.56535 2.06122L4.2968 2.7551L4.06956 3.32653L3.73904 4.18367L3.34654 5.16327L3.16062 5.65306L2.87142 6.38775L2.76813 6.63265V6.67347L2.93339 6.69388H3.69772L3.78035 6.53061L4.11088 5.73469L4.17285 5.61224H6.30059L6.32125 5.71429L6.71374 6.63265L6.77572 6.69388H7.664L7.64334 6.57143L7.49874 6.20408L7.16821 5.36735L6.85835 4.57143L6.56914 3.83673L6.1973 2.89796L6.07336 2.57143L5.68086 1.57143H4.75127ZM8.09781 1.57143L8.07715 1.67347V6.67347L8.09781 6.69388H8.90346V1.57143H8.09781ZM26.2766 1.57143V6.69388H27.1029L27.1235 4.38775L27.1855 4.10204L27.2888 3.89796L27.3921 3.7551L27.5573 3.63265L27.7226 3.55102L27.8879 3.5102H28.2804L28.5489 3.59184L28.7142 3.71429L28.8381 3.85714L28.9207 4.04082L28.9621 4.2449L28.9827 6.69388H29.7884V4.04082L29.7264 3.71429L29.5818 3.38775L29.4372 3.18367L29.2513 3L28.9621 2.83673L28.7348 2.7551L28.4663 2.71429H28.1358L27.8052 2.77551L27.4747 2.93878L27.2888 3.08163L27.1442 3.26531L27.1029 3.28571V1.57143H26.2766ZM24.5 1.73469L23.8803 1.91837L23.715 1.97959V2.81633H23.0126V3.61224H23.715V5.59184L23.7563 5.91837L23.839 6.18367L23.9836 6.40816L24.1488 6.55102L24.3761 6.65306L24.6653 6.71429H25.4296L25.4916 6.67347L25.5122 5.97959L25.4916 5.95918L24.8925 5.93878L24.7066 5.87755L24.6033 5.7551L24.562 5.63265L24.5413 3.61224H25.4916V2.81633H24.5413V1.73469H24.5ZM11.3204 2.71429L11.0105 2.7551L10.742 2.83673L10.4528 2.97959L10.1842 3.18367L9.99831 3.36735L9.8124 3.61224L9.68845 3.83673L9.58516 4.08163L9.50253 4.46939V4.95918L9.58516 5.34694L9.68845 5.61224L9.85371 5.89796L10.0809 6.16327L10.2875 6.34694L10.5561 6.5102L10.8246 6.63265L11.1138 6.69388L11.2791 6.71429H11.6509L12.0228 6.63265L12.3533 6.46939L12.4772 6.38775L12.6838 6.20408L12.7664 6.08163L12.8078 6.06122L12.7871 6.71429L12.7251 6.95918L12.6218 7.16327L12.4566 7.34694L12.2707 7.46939L12.0228 7.55102L11.6922 7.59184L11.3411 7.57143L11.0312 7.4898L10.804 7.36735L10.618 7.18367L10.5148 7.02041L10.3495 7.08163L9.91568 7.34694L9.8124 7.40816L9.85371 7.53061L10.0603 7.79592L10.2669 7.97959L10.5561 8.14286L10.742 8.22449L11.0519 8.30612L11.403 8.34694H11.8782L12.2913 8.26531L12.6218 8.14286L12.8697 8L13.1176 7.81633L13.3035 7.61224L13.4688 7.32653L13.5514 7.08163L13.6134 6.71429V2.81633H12.8078V3.36735L12.7045 3.26531L12.5805 3.12245L12.3326 2.93878L12.0228 2.79592L11.7749 2.73469L11.5683 2.71429H11.3204ZM16.1336 2.71429L15.7825 2.7551L15.3487 2.89796L15.0594 3.08163L14.7909 3.30612L14.5843 3.55102L14.4604 3.73469L14.2951 4.12245L14.2125 4.5102V5L14.2951 5.38775L14.4397 5.73469L14.5843 5.95918L14.7702 6.18367L14.9768 6.36735L15.2867 6.57143L15.6379 6.71429L15.9477 6.77551L16.1956 6.79592H16.4022L16.7947 6.73469L17.1252 6.61224L17.3524 6.4898L17.6003 6.30612L17.8482 6.06122L18.0341 5.79592L18.1581 5.55102L18.2614 5.20408L18.282 5.08163V4.42857L18.1994 4.10204L18.1168 3.87755L17.9515 3.59184L17.7863 3.38775L17.5797 3.18367L17.3524 3.02041L17.0426 2.85714L16.7327 2.7551L16.4022 2.71429H16.1336ZM32.4119 2.71429L32.0814 2.77551L31.7715 2.93878L31.5649 3.12245L31.4616 3.26531L31.4203 3.28571L31.441 3.2449V2.81633H30.6147V4.42857L30.6353 6.69388H31.4203L31.441 6.67347L31.4616 4.30612L31.5236 4.04082L31.6269 3.83673L31.7715 3.67347L31.9368 3.57143L32.1227 3.5102H32.4739L32.7011 3.59184L32.887 3.7551L32.9903 3.97959L33.0316 4.16327L33.0523 6.69388H33.8579L33.8786 4.57143L33.8992 4.2449L33.9612 4L34.0852 3.77551L34.2711 3.61224L34.457 3.53061L34.5396 3.5102H34.8702L35.0767 3.57143L35.2626 3.69388L35.3866 3.87755L35.4692 4.14286L35.4899 6.69388H36.2955V3.95918L36.2129 3.63265L36.1303 3.42857L35.9444 3.16327L35.7171 2.95918L35.3866 2.79592L35.1594 2.73469L34.9734 2.71429H34.6842L34.3537 2.77551L34.0232 2.93878L33.8166 3.12245L33.672 3.32653L33.5067 3.10204L33.3621 2.95918L33.0729 2.79592L32.8457 2.73469L32.6804 2.71429H32.4119ZM40.551 2.71429L40.2205 2.7551L39.9313 2.83673L39.6008 3L39.3322 3.20408L39.2289 3.30612L39.0223 3.53061L38.8364 3.85714L38.7331 4.12245L38.6712 4.34694L38.6505 4.4898V5L38.7125 5.32653L38.8571 5.71429L39.043 6L39.2289 6.22449L39.4148 6.38775L39.6421 6.53061L39.9313 6.67347L40.2205 6.7551L40.5717 6.79592H40.8196L41.2121 6.73469L41.4599 6.65306L41.8524 6.44898L42.1003 6.22449L42.2036 6.12245L42.3895 5.87755L42.4102 5.79592L42.2036 5.65306L41.8318 5.44898L41.7078 5.40816L41.5839 5.57143L41.4806 5.67347L41.2947 5.81633L41.0675 5.91837L40.8815 5.95918L40.613 5.97959L40.2825 5.91837L39.9933 5.77551L39.7867 5.59184L39.6421 5.38775L39.5388 5.16327L39.4975 5L39.4768 4.65306L39.5388 4.34694L39.6421 4.12245L39.766 3.93878L39.9313 3.77551L40.2205 3.61224L40.4477 3.55102H40.9022L41.1707 3.63265L41.4186 3.77551L41.5839 3.93878L41.6872 4.10204L41.7698 4.08163L41.9971 3.95918L42.3689 3.73469L42.3895 3.65306L42.2449 3.42857L42.0177 3.18367L41.7492 3L41.4186 2.83673L41.0261 2.73469L40.7989 2.71429H40.551ZM44.1454 2.71429L43.8149 2.7551L43.4844 2.87755L43.2572 3.02041L43.0506 3.22449L42.9266 3.42857L42.8647 3.61224L42.844 3.73469V4.10204L42.9266 4.36735L43.0713 4.59184L43.2365 4.73469L43.4844 4.87755L43.9802 5.04082L44.3933 5.16327L44.6412 5.26531L44.8065 5.36735L44.9098 5.5102V5.71429L44.8272 5.85714L44.7032 5.95918L44.5793 6L44.4347 6.02041H44.0835L43.8356 5.95918L43.629 5.83673L43.5051 5.69388L43.4018 5.5102L43.2159 5.57143L42.6994 5.87755L42.7201 6L42.8647 6.20408L42.9266 6.28571H42.968L43.0093 6.36735L43.2159 6.53061L43.5051 6.67347L43.7943 6.7551L44.1868 6.79592H44.3933L44.7858 6.73469L45.1164 6.61224L45.3436 6.46939L45.5295 6.30612L45.6741 6.08163L45.7361 5.89796L45.7567 5.77551V5.42857L45.6948 5.18367L45.5502 4.93878L45.3643 4.7551L45.075 4.59184L44.5586 4.42857L44.2074 4.32653L43.8562 4.18367L43.7116 4.02041L43.691 3.93878V3.77551L43.7323 3.65306L43.8149 3.61224L43.9802 3.5102L44.0628 3.4898H44.4553L44.6825 3.57143L44.8272 3.67347L44.9924 3.89796L45.2196 3.77551L45.6535 3.53061L45.6121 3.40816L45.4469 3.18367L45.2816 3.04082L44.9718 2.85714L44.6619 2.7551L44.3727 2.71429H44.1454ZM20.8229 2.73469L20.4098 2.81633L20.2239 2.89796L20.0379 3.02041L19.852 3.22449L19.7281 3.42857L19.6868 3.44898L19.7074 3.38775V2.81633H18.8811V6.59184L18.9018 6.69388H19.6868L19.7074 6.67347L19.7281 4.5102L19.7901 4.26531L19.8933 4.06122L20.0999 3.85714L20.3478 3.73469L20.5337 3.67347L20.8023 3.65306L20.9056 3.63265V2.7551L20.8229 2.73469ZM21.546 3.10204V6.69388H22.3516L22.3723 3.10204H21.546ZM37.1218 3.10204V6.69388H37.9275V3.10204H37.1218Z" fill="currentColor"/>
<path d="M11.3828 3.48828H11.7546L12.0232 3.54951L12.2917 3.69236L12.4983 3.87604L12.6429 4.05971L12.7255 4.22298L12.8082 4.48828V4.95767L12.7049 5.26379L12.5809 5.46787L12.333 5.71277L12.0852 5.85563L11.8166 5.93726H11.3208L11.0523 5.85563L10.825 5.73318L10.6804 5.61073L10.4945 5.38624L10.3912 5.16175L10.3293 4.93726L10.3086 4.67195L10.3499 4.38624L10.4325 4.16175L10.5565 3.95767L10.6804 3.81481L10.9283 3.63114L11.1556 3.5291L11.3828 3.48828Z" fill="currentColor"/>
<path d="M15.9678 3.53125H16.5256L16.7528 3.61288L16.9801 3.73533L17.2486 4.00064L17.3726 4.22513L17.4345 4.36798L17.4758 4.57207V4.93941L17.4139 5.20472L17.2899 5.44962L17.0627 5.71492L16.8561 5.85778L16.5876 5.95982L16.4016 6.00064H16.0918L15.8439 5.93941L15.658 5.85778L15.472 5.73533L15.2861 5.55166L15.1209 5.26594L15.0382 5.00064L15.0176 4.6537L15.0796 4.34758L15.1828 4.10268L15.3481 3.8986L15.4927 3.75574L15.7613 3.59247L15.9678 3.53125Z" fill="currentColor"/>
<path d="M5.20491 2.63281H5.24623L5.32886 2.8573L5.68004 3.83689L5.96925 4.63281L6.01056 4.77567L5.94859 4.79608H4.41992L4.48189 4.592L4.99834 3.16342L5.18426 2.65322L5.20491 2.63281Z" fill="currentColor"/>
</g>
<defs>
<clipPath id="clip0_2181_17303">
<rect width="49" height="12" fill="currentColor"/>
</clipPath>
</defs>
</svg>
