<svg width="42" height="13" viewBox="0 0 42 13" fill="none" xmlns="http://www.w3.org/2000/svg">
<path d="M8.32812 9.46809H9.77539V0H8.32812V9.46809Z" fill="currentColor"/>
<path fill-rule="evenodd" clip-rule="evenodd" d="M5.39047 8.67861C5.04356 9.09867 4.37 9.62475 3.25693 9.62475C2.38138 9.62475 1.56548 9.30115 0.968574 8.69909C0.371021 8.09644 0 7.22228 0 6.13463C0 3.9762 1.49657 2.64453 3.25693 2.64453C4.33791 2.64453 5.03237 3.14867 5.39047 3.5622V2.80002H6.83773V9.46926H5.39047V8.67861ZM5.41631 6.13463C5.41631 7.34567 4.63271 8.26814 3.47722 8.26814C2.28018 8.26814 1.48624 7.34276 1.48624 6.13463C1.48624 5.52243 1.68693 4.98905 2.03254 4.61017C2.37729 4.23243 2.87213 4.00114 3.47722 4.00114C4.63314 4.00114 5.41631 4.91119 5.41631 6.13463Z" fill="currentColor"/>
<path fill-rule="evenodd" clip-rule="evenodd" d="M21.3862 7.37407H22.7889L22.763 7.53019C22.662 8.13505 21.7802 9.62475 19.5597 9.62475C17.5145 9.62475 16.0566 8.08584 16.0566 6.13463C16.0566 4.12082 17.4865 2.64453 19.443 2.64453C20.4169 2.64453 21.2692 3.00789 21.8776 3.64838C22.4855 4.28855 22.8425 5.19762 22.8425 6.27718V6.41125H17.5285C17.6465 7.47035 18.4311 8.26814 19.5597 8.26814C20.7964 8.26814 21.249 7.61766 21.3476 7.44242L21.3862 7.37407ZM20.5924 4.28766C20.2847 4.05163 19.8963 3.92338 19.443 3.92338C18.9574 3.92338 18.5532 4.06132 18.2423 4.30187C17.9727 4.51066 17.7677 4.80106 17.6422 5.1583H21.2135C21.0733 4.78519 20.8605 4.49329 20.5924 4.28766Z" fill="currentColor"/>
<path fill-rule="evenodd" clip-rule="evenodd" d="M29.2694 3.57867V2.80002H30.7169V9.33519C30.7169 10.2652 30.415 11.0674 29.8185 11.6366C29.2225 12.2054 28.3472 12.5273 27.2268 12.5273C25.9572 12.5273 25.1307 12.1107 24.6094 11.6319C24.0917 11.1566 23.8813 10.6263 23.8305 10.4013L23.7937 10.2377H25.3342L25.373 10.3042C25.4139 10.3743 25.5414 10.5889 25.8234 10.7868C26.1042 10.9841 26.547 11.1707 27.2268 11.1707C27.8978 11.1707 28.4059 10.9952 28.7449 10.6872C29.0821 10.3809 29.2694 9.92779 29.2694 9.33519V8.68406C28.9064 9.10909 28.1941 9.63771 27.0713 9.63771C26.1833 9.63771 25.3579 9.31452 24.7543 8.71259C24.1501 8.10998 23.7754 7.23561 23.7754 6.14759C23.7754 5.05964 24.1499 4.18217 24.7541 3.57639C25.3575 2.97124 26.1828 2.64453 27.0713 2.64453C28.1857 2.64453 28.9036 3.16013 29.2694 3.57867ZM27.2916 8.28111C28.4891 8.28111 29.2955 7.34214 29.2955 6.14759C29.2955 5.53064 29.0933 4.99407 28.7427 4.61202C28.3924 4.23023 27.8919 4.00114 27.2916 4.00114C26.6727 4.00114 26.168 4.23308 25.8172 4.61243C25.4656 4.99284 25.2616 5.52915 25.2616 6.14759C25.2616 7.34102 26.067 8.28111 27.2916 8.28111Z" fill="currentColor"/>
<path d="M33.6816 9.46611H32.2344V2.79688H33.6816V9.46611Z" fill="currentColor"/>
<path fill-rule="evenodd" clip-rule="evenodd" d="M34.8281 6.13463C34.8281 4.15547 36.3398 2.64453 38.3312 2.64453C40.3095 2.64453 41.8345 4.15512 41.8345 6.13463C41.8345 8.11416 40.3095 9.62475 38.3312 9.62475C36.3398 9.62475 34.8281 8.11381 34.8281 6.13463ZM36.3144 6.13463C36.3144 7.32806 37.1326 8.26814 38.3312 8.26814C39.5304 8.26814 40.3482 7.3405 40.3482 6.13463C40.3482 4.92878 39.5304 4.00114 38.3312 4.00114C37.1326 4.00114 36.3144 4.94122 36.3144 6.13463Z" fill="currentColor"/>
<path d="M15.2544 9.46809V8.11148H13.9323C13.3401 8.11148 13.044 8.11148 12.8599 7.92747C12.6794 7.74702 12.676 7.45871 12.676 6.88896V4.12953H15.2544V2.79883H12.676V0L11.2285 0.894392V7.196C11.2285 7.35964 11.238 7.51541 11.2569 7.66302C11.3013 8.28736 11.4159 8.69174 11.7104 8.98634C12.0298 9.30577 12.4783 9.41339 13.1962 9.44967C13.3263 9.46199 13.4624 9.46809 13.6043 9.46809H15.2544Z" fill="currentColor"/>
<path d="M32.9619 2.02936C33.4791 2.02936 33.8984 1.61006 33.8984 1.0928C33.8984 0.575571 33.4791 0.15625 32.9619 0.15625C32.4446 0.15625 32.0254 0.575571 32.0254 1.0928C32.0254 1.61006 32.4446 2.02936 32.9619 2.02936Z" fill="currentColor"/>
</svg>
