<svg width="47" height="12" viewBox="0 0 47 12" fill="none" xmlns="http://www.w3.org/2000/svg">
<g clip-path="url(#clip0_2184_17321)">
<path d="M0.363281 11.2L2.37698 1.01661H4.72334L6.702 11.2H4.84592L4.42569 9.13231H2.53456L2.14937 11.2H0.363281ZM2.56961 8.28798H4.40819L3.49762 2.61908L2.56961 8.28798ZM7.64385 11.2V2.67078H9.04469L9.18477 3.68739C9.31319 3.34278 9.5233 3.0671 9.81513 2.86028C10.1187 2.65351 10.4747 2.55016 10.8833 2.55016C11.5487 2.55016 12.0215 2.688 12.3016 2.96369C12.5818 3.23937 12.7335 3.64143 12.7568 4.16984H12.5467C12.6284 3.69887 12.8327 3.31403 13.1596 3.01539C13.4981 2.70522 13.9125 2.55016 14.4028 2.55016C15.1499 2.55016 15.6519 2.72823 15.9087 3.08431C16.1772 3.42892 16.3114 3.9516 16.3114 4.6523V11.2H14.6655V4.80736C14.6655 4.39383 14.5954 4.10666 14.4553 3.94586C14.3269 3.78501 14.111 3.70461 13.8075 3.70461C13.539 3.70461 13.3113 3.77927 13.1246 3.92859C12.9378 4.07797 12.8269 4.26746 12.7919 4.49723V11.2H11.1459V4.73843C11.1459 4.37087 11.0817 4.10666 10.9533 3.94586C10.8366 3.78501 10.6148 3.70461 10.2879 3.70461C10.0194 3.70461 9.80346 3.76779 9.64005 3.89416C9.48826 4.02052 9.37156 4.16984 9.28986 4.34217V11.2H7.64385ZM17.6815 11.2V2.67078H19.3274V11.2H17.6815ZM18.5044 1.70583C18.2593 1.70583 18.0492 1.62543 17.8741 1.46463C17.7107 1.2923 17.6231 1.08553 17.6114 0.84433C17.6114 0.614556 17.699 0.419269 17.8741 0.258469C18.0492 0.0861389 18.2593 0 18.5044 0C18.7496 0 18.9597 0.0861389 19.1348 0.258469C19.3099 0.419269 19.3975 0.620295 19.3975 0.861548C19.4092 1.09127 19.3216 1.2923 19.1348 1.46463C18.9597 1.62543 18.7496 1.70583 18.5044 1.70583ZM22.1935 11.2L20.2675 2.67078H21.966L23.2793 9.37351H23.2618L24.4702 2.67078H26.0284L24.1547 11.2H22.1935ZM26.9669 11.2V2.67078H28.6126V11.2H26.9669ZM27.7898 1.70583C27.5448 1.70583 27.3343 1.62543 27.1593 1.46463C26.996 1.2923 26.9086 1.08553 26.8969 0.84433C26.8969 0.614556 26.9844 0.419269 27.1593 0.258469C27.3343 0.0861389 27.5448 0 27.7898 0C28.0347 0 28.2452 0.0861389 28.4202 0.258469C28.5951 0.419269 28.6826 0.620295 28.6826 0.861548C28.6943 1.09127 28.6068 1.2923 28.4202 1.46463C28.2452 1.62543 28.0347 1.70583 27.7898 1.70583ZM32.4942 11.3723C31.9227 11.3723 31.4556 11.3091 31.0934 11.1827C30.7435 11.0564 30.4747 10.8841 30.2881 10.6659C30.1131 10.4361 29.9964 10.1661 29.9381 9.85602C29.8798 9.54584 29.8506 9.21271 29.8506 8.85663V8.23633H31.5139V9.16675C31.5139 9.408 31.5255 9.63198 31.5489 9.83875C31.5722 10.034 31.648 10.1891 31.7763 10.304C31.9168 10.4189 32.1501 10.4763 32.4767 10.4763C32.7689 10.4763 32.9788 10.4246 33.1071 10.3213C33.236 10.2064 33.3176 10.0685 33.3526 9.90767C33.3876 9.73539 33.4051 9.57454 33.4051 9.42522V8.82214C33.4051 8.53497 33.3468 8.29946 33.2301 8.1157C33.1246 7.9319 32.9555 7.77683 32.7222 7.65047C32.5001 7.5241 32.2259 7.392 31.8993 7.25416C31.5605 7.12779 31.2456 6.97847 30.9535 6.80614C30.6735 6.63386 30.4455 6.41557 30.2706 6.15136C30.1073 5.87567 30.0256 5.53106 30.0256 5.11753V4.60059C30.0256 3.92285 30.2181 3.40596 30.6035 3.04983C30.9885 2.68226 31.6655 2.49845 32.6347 2.49845C33.2651 2.49845 33.7609 2.58459 34.123 2.75692C34.4963 2.91772 34.7592 3.17619 34.9109 3.53233C35.0742 3.87694 35.1558 4.3249 35.1558 4.87633V5.53106H33.5626V4.61786C33.5626 4.15837 33.4868 3.84245 33.3351 3.67017C33.1946 3.48637 32.9613 3.39443 32.6347 3.39443C32.2726 3.39443 32.0277 3.48637 31.8993 3.67017C31.7705 3.85393 31.7063 4.07797 31.7063 4.34217V4.92798C31.7063 5.23816 31.7822 5.48515 31.9343 5.6689C32.0976 5.85271 32.3076 6.00777 32.5647 6.13414C32.8214 6.24903 33.113 6.36965 33.4401 6.49602C33.755 6.61085 34.0414 6.7487 34.298 6.90955C34.5663 7.07035 34.7767 7.28285 34.9284 7.54706C35.08 7.81127 35.1558 8.16162 35.1558 8.59816V9.06339C35.1558 9.51136 35.0859 9.90767 34.9459 10.2523C34.8059 10.5969 34.5429 10.8726 34.158 11.0794C33.7725 11.2747 33.2185 11.3723 32.4942 11.3723ZM38.8741 11.3379C38.2321 11.3379 37.7188 11.2517 37.3334 11.0794C36.9484 10.8956 36.6738 10.6084 36.5105 10.2178C36.3472 9.81579 36.2655 9.28737 36.2655 8.63259V4.87633C36.2655 4.37087 36.3414 3.94586 36.493 3.60125C36.6563 3.25659 36.931 2.99238 37.3159 2.80863C37.7013 2.62482 38.2204 2.53294 38.8741 2.53294C39.5279 2.53294 40.0416 2.62482 40.4154 2.80863C40.7887 2.99238 41.0575 3.25659 41.2208 3.60125C41.3841 3.94586 41.4658 4.37087 41.4658 4.87633V8.63259C41.4658 9.28737 41.3783 9.81579 41.2033 10.2178C41.04 10.6084 40.7654 10.8956 40.3804 11.0794C40.0067 11.2517 39.5046 11.3379 38.8741 11.3379ZM38.8741 10.3557C39.1546 10.3557 39.3587 10.304 39.4871 10.2006C39.627 10.0857 39.715 9.93642 39.75 9.75261C39.7967 9.55732 39.82 9.35056 39.82 9.13231V4.73843C39.82 4.50871 39.7967 4.30195 39.75 4.11814C39.715 3.93433 39.627 3.78501 39.4871 3.67017C39.3587 3.55529 39.1546 3.49784 38.8741 3.49784C38.5825 3.49784 38.3667 3.55529 38.2262 3.67017C38.0863 3.78501 37.9988 3.93433 37.9638 4.11814C37.9288 4.30195 37.9113 4.50871 37.9113 4.73843V9.13231C37.9113 9.35056 37.9288 9.55732 37.9638 9.75261C37.9988 9.93642 38.0863 10.0857 38.2262 10.2006C38.3667 10.304 38.5825 10.3557 38.8741 10.3557ZM42.8013 11.2V2.67078H44.2021L44.3421 3.6529C44.4588 3.36574 44.6396 3.15323 44.885 3.01539C45.13 2.86607 45.3808 2.76266 45.6379 2.70522C45.9995 2.57885 46.3675 2.5559 46.7407 2.6363V3.87694C46.7057 3.86541 46.6183 3.85393 46.4783 3.84245C46.3383 3.8195 46.1808 3.81376 46.0053 3.82523C45.8304 3.83671 45.6787 3.87694 45.5504 3.94586C45.2116 4.02626 44.9434 4.1928 44.7445 4.44553C44.5462 4.68678 44.4471 4.9969 44.4471 5.376V11.2H42.8013Z" fill="currentColor"/>
</g>
<defs>
<clipPath id="clip0_2184_17321">
<rect width="47" height="12" fill="currentColor"/>
</clipPath>
</defs>
</svg>
