<svg width="51" height="13" viewBox="0 0 51 13" fill="currentColor" xmlns="http://www.w3.org/2000/svg">
<g clip-path="url(#clip0_2191_17313)">
<path d="M46.6738 3.59766H47.4385L48.0615 3.68102L48.5996 3.81996L49.1943 4.07005L49.5059 4.23677L49.7607 4.4035L50.1006 4.65359L50.2988 4.82031L50.2705 4.93146L49.5908 5.59837L49.3926 5.84846L49.251 5.79288L48.9678 5.57058L48.5996 5.34828L48.0898 5.15376L47.835 5.0704L47.1553 5.01483L46.6172 5.04261L45.9092 5.20934L45.4561 5.43164L45.1445 5.62615L44.7764 5.95961L44.5498 6.20969L44.4365 6.37642L44.2666 6.68208L44.1533 6.90439L44.04 7.23784L43.9834 7.5435V8.34934L44.125 8.9051L44.4082 9.46085L44.6348 9.73873L44.7197 9.84988V9.90545L44.833 9.96103L45.2578 10.3223L45.4277 10.4056L45.541 10.489L45.6543 10.5446L45.9092 10.6279L46.3057 10.7669L46.7588 10.8502H47.4102L47.9766 10.7391L48.373 10.6001L48.8262 10.3778L49.0811 10.2111L49.251 10.0722H49.3076V10.0166L49.4209 10.0444L49.6475 10.2667L49.8457 10.489L50.1006 10.7391L50.2988 10.9892V11.0725L49.9873 11.2948L49.7891 11.4616L49.3926 11.6839L48.9961 11.8784L48.5713 12.0451L48.0332 12.184L47.4102 12.2674H46.9287L46.334 12.2118L45.9092 12.1285L45.3994 11.9617L45.0879 11.8228L44.6914 11.6283L44.1533 11.267L43.9551 11.0725L43.7852 10.9336L43.5869 10.7113L43.2471 10.2945L42.8506 9.54421L42.6523 8.96067L42.5674 8.57164L42.5391 8.32156V7.51571L42.624 7.01554L42.7939 6.48757L42.9355 6.12633L43.2188 5.62615L43.417 5.34828L43.6719 5.0704L44.0967 4.65359L44.5215 4.34792L44.833 4.15341L45.3711 3.90332L45.9941 3.70881L46.6738 3.59766Z" fill="currentColor"/>
<path d="M32.543 3.76172L38.2637 3.78951V5.1511L35.6299 5.17889L35.6016 12.0702H34.2139L34.1855 5.20668L34.1572 5.17889L31.5518 5.1511L31.5234 4.20632L31.5518 3.78951L32.543 3.76172Z" fill="currentColor"/>
<path d="M9.71582 3.76172H10.3672L10.9619 3.78951L10.9902 3.81729V12.0702L10.5088 12.098L9.57422 12.0702V3.78951L9.71582 3.76172Z" fill="currentColor"/>
<path d="M39.708 3.78906H41.0957V12.0698H39.708L39.6797 11.0972V3.98358L39.708 3.78906Z" fill="currentColor"/>
<path d="M13.4541 0.84375H20.7041L20.7324 0.871538L20.7041 2.20534H13.3408L13.3125 2.17756V0.871538L13.4541 0.84375Z" fill="currentColor"/>
<path fill-rule="evenodd" clip-rule="evenodd" d="M16.5702 3.59766H17.2216L17.8446 3.65323L18.411 3.79217L18.8642 3.9589L19.1191 4.07005L19.2607 4.12562L19.5722 4.32014L19.8554 4.51465L20.2235 4.82031L20.4501 5.01483L20.705 5.32049L20.9316 5.62615L21.1864 6.07076L21.3564 6.45978L21.4696 6.79324L21.5829 7.3212L21.6112 7.5435V8.18262L21.5546 8.71058L21.4413 9.15518L21.2431 9.68315L21.0448 10.0444L20.8466 10.3501L20.62 10.6557L20.0253 11.2393L19.7138 11.4338L19.4023 11.6561L18.7509 11.9617L18.3261 12.1007L17.8446 12.2118L17.5614 12.2396L17.3066 12.2674H16.7118L16.0605 12.184L15.4941 12.0451L14.8144 11.7672L14.6728 11.6839L14.3612 11.4893L13.9648 11.2115L13.455 10.7113L13.1718 10.3501L12.9452 9.98881L12.7187 9.54421L12.4921 8.87731L12.4071 8.32156V7.65465L12.4638 7.15447L12.6337 6.51536L12.7753 6.23748L12.8886 5.95961L13.2284 5.43164L13.5399 5.0704L13.7382 4.8481L14.3046 4.4035L14.6728 4.1812L15.1259 3.9589L15.8056 3.73659L16.4003 3.62544L16.5702 3.59766ZM3.62793 3.76456H5.41211L5.83691 3.82014L6.26172 3.95907L6.57324 4.1258L6.96973 4.45925L7.16797 4.68155L7.39453 5.04279L7.53613 5.37624L7.59277 5.62633L7.62109 5.932V6.18209L7.56445 6.54332L7.50781 6.73784L7.33789 7.15465L7.22461 7.2658L7.16797 7.37695L7.19629 7.4881L7.30957 7.62704L7.53613 7.82156L7.87598 8.32173L8.0459 8.76634L8.10254 8.96085L8.13086 9.26651V9.76669L8.0459 10.2113L7.93262 10.5447L7.67773 10.9893L7.50781 11.1839L7.30957 11.4062L6.91309 11.684L6.57324 11.8786L6.06348 12.0453L5.75195 12.0731H0.710938V3.79235L3.62793 3.76456ZM27.9268 3.76456H23.084L23.0557 3.79235L23.0273 4.04244V11.2394L23.0557 12.0731H24.4434V8.98864H27.6152L28.0684 8.96085L28.4365 8.90527L28.833 8.79412L29.3428 8.51625L29.6543 8.26616L29.9375 7.96049L30.1074 7.71041L30.2773 7.40474L30.4189 6.93235L30.4756 6.54332V6.20987L30.4189 5.79306L30.334 5.51518L30.1074 5.04279L29.8525 4.68155L29.5977 4.43146L29.3145 4.20916L28.9746 4.01465L28.3799 3.82014L27.9268 3.76456ZM16.8534 4.98722H17.1083L17.7314 5.04279L18.3261 5.2373L18.8075 5.48739L19.1757 5.76527L19.3456 5.90421L19.6005 6.20987L19.8837 6.65447L20.0536 7.0435L20.1669 7.46032L20.1952 7.73819V8.12722L20.1103 8.6274L19.9403 9.12757L19.8837 9.21094H19.8271L19.8554 9.32209L19.7704 9.34987L19.7138 9.5166L19.4589 9.79448L19.2607 10.0446L19.0907 10.1557L18.8075 10.378L18.3261 10.6281L17.703 10.8226L17.4765 10.8504L17.2216 10.8782H16.9101L16.3437 10.8226L15.7773 10.6559L15.1542 10.3502L14.871 10.1001L14.6444 9.93342L14.4179 9.65554L14.2196 9.37766L13.9931 8.90527L13.8798 8.57182L13.8232 8.15501V7.68262L13.9081 7.21023L14.0214 6.87677L14.2763 6.40438L14.5312 6.07093L14.7011 5.87642L14.9843 5.65412L15.2675 5.4596L15.664 5.2373L16.2587 5.07058L16.4853 5.015L16.8534 4.98722ZM5.49698 8.26598H2.12686L2.09854 8.29377V10.6279L2.12686 10.7113H5.41202L5.78018 10.6835L5.86514 10.6557L6.26163 10.4612L6.48819 10.2389L6.65811 9.93324L6.71475 9.68315V9.23855L6.62979 8.98846L6.45987 8.71058L6.26163 8.51607L5.95011 8.34934L5.49698 8.26598ZM24.4715 5.15376H27.9266L28.2098 5.20934L28.4647 5.32049L28.8045 5.62615L28.9744 5.90403L29.0594 6.26527V6.51536L28.9461 6.93217L28.8328 7.07111L28.6629 7.29341L28.2947 7.51571L28.0682 7.57129L27.6151 7.59908H24.4715L24.4432 7.57129V5.18155L24.4715 5.15376ZM5.32706 5.15376H2.12686L2.09854 5.18155V6.82102L2.12686 6.8766H5.49698L5.83682 6.73766L6.06339 6.48757L6.14835 6.32085L6.20499 5.95961L6.12003 5.68173L5.95011 5.40385L5.63858 5.20934L5.32706 5.15376Z" fill="currentColor"/>
</g>
<defs>
<clipPath id="clip0_2191_17313">
<rect width="51" height="13" fill="currentColor"/>
</clipPath>
</defs>
</svg>
