<svg width="40" height="13" viewBox="0 0 40 13" fill="none" xmlns="http://www.w3.org/2000/svg">
<path d="M2.96009 2.08881V5.44144H2.99405C3.24519 4.19474 3.89665 3.41985 5.35242 3.41985H5.60355C7.35897 3.41985 8.39622 4.66655 8.39622 6.95825V8.30639C8.39622 10.6311 7.45968 11.912 5.70423 11.912H5.4349C4.04706 11.912 3.32768 11.0528 2.99284 9.95764H2.96009V10.834C2.96009 11.4072 2.54155 11.879 1.9738 11.879H0.98629C0.417323 11.8778 0 11.406 0 10.8328V2.08881C0 1.44835 0.434306 0.976562 1.05302 0.976562H1.88887C2.50758 0.976562 2.96009 1.44835 2.96009 2.08881ZM30.2172 3.45283H25.1498C24.5311 3.45283 24.1126 3.90751 24.1126 4.46365V5.25564C24.1126 5.81178 24.4972 6.26646 25.2165 6.26646H26.3205C26.8725 6.26646 27.291 6.19925 27.5919 6.09778L27.6259 6.132L24.7155 8.67672C24.2303 9.09841 24.0798 9.50173 24.0798 9.99066V10.7998C24.0798 11.3889 24.4984 11.8778 25.1171 11.8778H30.2172C30.8359 11.8778 31.2544 11.4231 31.2544 10.867V10.0249C31.2544 9.46875 30.8698 9.01407 30.1504 9.01407H28.896C28.2943 9.01407 27.8588 9.09841 27.5409 9.21573L27.507 9.18151L30.6005 6.65392C31.1027 6.24933 31.2532 5.82888 31.2532 5.33998V4.53086C31.2544 3.94173 30.8359 3.45283 30.2172 3.45283ZM35.7868 9.09717C34.7835 9.09717 34.3648 8.67552 34.3648 7.6647C34.3648 6.65392 34.7835 6.23223 35.7868 6.23223C36.79 6.23223 37.2084 6.65392 37.2084 7.6647C37.2084 8.67552 36.79 9.09717 35.7868 9.09717ZM31.5723 7.14282V8.18782C31.5723 10.4624 33.0097 11.9108 35.4348 11.9108H36.1374C38.5623 11.9108 40 10.4624 40 8.18782V7.14282C40 4.86821 38.5623 3.41985 36.1374 3.41985H35.4348C33.0097 3.41985 31.5723 4.86821 31.5723 7.14282ZM5.60232 7.6647C5.60232 6.65392 5.18381 6.23223 4.18052 6.23223C3.17724 6.23223 2.79267 6.65392 2.79267 7.6647C2.79267 8.67552 3.17724 9.06295 4.18052 9.06295C5.18381 9.06295 5.60232 8.67672 5.60232 7.6647ZM18.0262 4.56508V10.8328C18.0262 11.406 18.4447 11.8778 19.0125 11.8778H19.9988C20.5677 11.8778 20.9851 11.406 20.9851 10.8328V7.48014C20.9851 6.57079 21.3527 6.26769 22.2225 6.26769H22.7915C23.2937 6.26769 23.6613 5.846 23.6613 5.35831V4.29741C23.6613 3.84274 23.3932 3.45527 22.8085 3.45527H22.624C21.6535 3.45527 21.3199 4.01141 21.1525 4.82053L21.019 5.44388H20.9851V4.56752C20.9851 3.92707 20.5168 3.45527 19.9151 3.45527H19.0792C18.4617 3.45283 18.0262 3.92464 18.0262 4.56508ZM13.1942 9.09717C12.1909 9.09717 11.7724 8.67552 11.7724 7.6647C11.7724 6.65392 12.1909 6.23223 13.1942 6.23223C14.1975 6.23223 14.616 6.65392 14.616 7.6647C14.616 8.67552 14.1975 9.09717 13.1942 9.09717ZM8.97974 7.14282V8.18782C8.97974 10.4624 10.4173 11.9108 12.8424 11.9108H13.5448C15.9699 11.9108 17.4075 10.4624 17.4075 8.18782V7.14282C17.4075 4.86821 15.9699 3.41985 13.5448 3.41985H12.8424C10.4185 3.41985 8.97974 4.86821 8.97974 7.14282Z" fill="currentColor"/>
</svg>
