<svg width="49" height="14" viewBox="0 0 49 14" fill="none" xmlns="http://www.w3.org/2000/svg">
<g clip-path="url(#clip0_2166_17303)">
<path d="M2.21706 9.77657C1.63787 9.46457 1.164 8.99657 0.821749 8.42457C0.163584 7.20257 0.163584 5.72057 0.821749 4.49857C1.13767 3.92657 1.63787 3.45857 2.21706 3.14657C2.82257 2.80857 3.50706 2.65257 4.21788 2.67857C4.82339 2.67857 5.40258 2.80857 5.95544 3.04257C6.45564 3.27657 6.87687 3.66657 7.16646 4.13457L6.40299 4.65457C6.16605 4.29057 5.85013 4.00457 5.45523 3.82257C5.06033 3.64057 4.63911 3.53657 4.21788 3.53657C3.71768 3.53657 3.19115 3.64057 2.74359 3.90057C2.29604 4.13457 1.95379 4.49857 1.71685 4.94057C1.24298 5.90257 1.24298 7.02057 1.71685 7.98257C1.95379 8.42457 2.29604 8.76257 2.74359 8.99657C3.19115 9.23057 3.69135 9.36057 4.21788 9.36057C4.63911 9.36057 5.08666 9.28257 5.45523 9.10057C5.85013 8.91857 6.16605 8.63257 6.40299 8.26857L7.16646 8.78857C6.87687 9.25657 6.45564 9.64657 5.95544 9.88057C5.40258 10.1406 4.82339 10.2706 4.21788 10.2446C3.50706 10.2966 2.82257 10.1406 2.21706 9.77657Z" fill="currentColor"/>
<path d="M9.16797 2.7025L10.1947 2.3125V10.1905H9.16797V2.7025Z" fill="currentColor"/>
<path d="M12.4065 2.75519V1.50719L13.4332 1.11719V2.75519H15.3287L15.7236 3.61319H13.4332V8.05919C13.4069 8.42319 13.5385 8.78719 13.7754 9.07319C14.0387 9.30719 14.381 9.43719 14.7495 9.41119C14.9601 9.41119 15.1708 9.38519 15.355 9.30719C15.5393 9.25519 15.7236 9.15119 15.8552 9.02119L16.1975 9.74919C15.9869 9.93119 15.7499 10.0612 15.4867 10.1392C15.1971 10.2172 14.9075 10.2692 14.6179 10.2692C13.5122 10.3992 12.5381 9.61919 12.4065 8.52719C12.3801 8.39719 12.3801 8.24119 12.4065 8.11119V2.75519Z" fill="currentColor"/>
<path d="M24.2531 2.75647L20.4884 11.1025C20.2778 11.6745 19.9092 12.1945 19.4354 12.5845C19.0141 12.8705 18.5139 13.0265 17.9874 13.0265C17.6451 13.0265 17.3029 12.9745 16.9607 12.8445C16.6447 12.7405 16.3815 12.5585 16.1445 12.3245L16.6184 11.5705C16.987 11.9345 17.4872 12.1425 17.9874 12.1425C18.3033 12.1425 18.6192 12.0645 18.8825 11.8565C19.1721 11.5965 19.409 11.2585 19.567 10.8945L19.8829 10.1925L16.5131 2.75647H17.5662L20.4094 9.07447L23.2527 2.73047L24.2531 2.75647Z" fill="currentColor"/>
<path d="M30.7556 3.379C31.3085 3.899 31.5981 4.653 31.5981 5.667V10.191H30.3081V9.203C30.0711 9.567 29.7289 9.827 29.334 10.009C28.8601 10.217 28.3336 10.295 27.807 10.295C27.0699 10.321 26.3591 10.113 25.7536 9.697C25.2533 9.307 24.9638 8.709 24.9901 8.085C24.9638 7.461 25.227 6.889 25.7272 6.499C26.2274 6.109 26.9909 5.901 28.044 5.901H30.2291V5.641C30.2554 5.147 30.0711 4.653 29.7025 4.289C29.2813 3.951 28.7285 3.769 28.1756 3.821C27.7281 3.821 27.2805 3.899 26.8593 4.029C26.4644 4.159 26.0958 4.367 25.7799 4.627L25.2007 3.613C25.6219 3.275 26.0958 3.041 26.596 2.885C27.1489 2.703 27.7544 2.625 28.3336 2.625C29.3866 2.625 30.2028 2.885 30.7556 3.379ZM29.3866 8.891C29.7552 8.657 30.0448 8.319 30.2028 7.903V6.863H28.0703C26.9119 6.863 26.3327 7.253 26.3327 8.033C26.3064 8.397 26.4907 8.735 26.7803 8.917C27.1489 9.151 27.5701 9.281 28.0176 9.255C28.4915 9.255 28.9654 9.125 29.3866 8.891Z" fill="currentColor"/>
<path d="M40.8917 0.128906V10.1909H39.5754V8.99491C39.2858 9.41091 38.8646 9.72291 38.417 9.95691C37.9431 10.1909 37.3903 10.2949 36.8637 10.2949C36.1793 10.2949 35.4948 10.1389 34.8893 9.80091C34.3101 9.48891 33.8362 9.02091 33.5203 8.44891C33.178 7.82491 33.0201 7.14891 33.0201 6.44691C32.9937 5.74491 33.178 5.06891 33.5203 4.44491C33.8362 3.87291 34.3101 3.40491 34.8893 3.09291C35.4948 2.75491 36.1793 2.59891 36.8637 2.62491C37.3903 2.62491 37.8905 2.72891 38.3644 2.93691C38.8119 3.14491 39.2068 3.45691 39.5227 3.84691V0.648906L40.8917 0.128906ZM38.2854 8.76091C38.6803 8.55291 38.9962 8.21491 39.2068 7.82491C39.6544 6.96691 39.6544 5.92691 39.2068 5.06891C38.9962 4.67891 38.6803 4.36691 38.2854 4.13291C37.4693 3.69091 36.4952 3.69091 35.679 4.13291C35.2841 4.34091 34.9682 4.67891 34.7576 5.06891C34.3101 5.92691 34.3101 6.96691 34.7576 7.82491C34.9682 8.21491 35.2841 8.52691 35.679 8.76091C36.4952 9.20291 37.4693 9.20291 38.2854 8.76091Z" fill="currentColor"/>
<path d="M43.8934 10.035C43.4196 9.905 42.9457 9.697 42.5508 9.411L43.13 8.345C43.4985 8.605 43.9198 8.787 44.341 8.917C44.8149 9.047 45.2887 9.125 45.789 9.125C47 9.125 47.6055 8.787 47.6055 8.111C47.6055 7.903 47.5265 7.695 47.3685 7.565C47.1843 7.435 46.9737 7.331 46.7367 7.279C46.4998 7.227 46.1575 7.149 45.71 7.071C45.2098 6.993 44.7096 6.889 44.2094 6.733C43.8408 6.603 43.4722 6.395 43.2089 6.109C42.9194 5.771 42.7614 5.329 42.7877 4.887C42.7614 4.237 43.1036 3.613 43.6565 3.249C44.2357 2.833 44.9992 2.625 45.9732 2.625C46.4734 2.625 47 2.677 47.5002 2.807C47.9477 2.911 48.369 3.067 48.7375 3.301L48.1583 4.367C47.5002 3.951 46.7367 3.743 45.9732 3.769C45.4994 3.743 45.0518 3.847 44.6306 4.055C44.341 4.211 44.183 4.497 44.183 4.809C44.183 5.043 44.262 5.251 44.4463 5.381C44.6306 5.537 44.8412 5.641 45.0781 5.693C45.3414 5.771 45.6836 5.823 46.1312 5.927C46.6314 6.005 47.1316 6.109 47.6055 6.265C47.9741 6.369 48.3163 6.577 48.5796 6.863C48.8692 7.201 49.0008 7.617 48.9745 8.059C48.9745 8.709 48.6586 9.333 48.0794 9.671C47.5002 10.061 46.6841 10.269 45.6836 10.269C45.0781 10.295 44.4726 10.191 43.8934 10.035Z" fill="currentColor"/>
</g>
<defs>
<clipPath id="clip0_2166_17303">
<rect width="49" height="14" fill="currentColor"/>
</clipPath>
</defs>
</svg>
