<svg fill="none" height="18" viewBox="0 0 59 18" width="59" xmlns="http://www.w3.org/2000/svg"><path d="m3.43127 7.14926c-.81477 0-1.42265-.2907-1.82367-.87199-.39465-.58129-.59198-1.41891-.59198-2.51278s.19733-1.93147.59198-2.51278c.40102-.581327 1.0089-.871975 1.82367-.871975.30554 0 .5697.040628.79248.121884.22279.081256.41374.190651.57289.32816.15912.13752.2928.293781.40101.468811.10821.16877.20369.34066.28643.51568l-.68744.30942c-.0573-.14378-.12413-.27817-.20052-.40318-.07638-.13127-.16869-.24379-.2769-.33755-.10184-.10001-.22596-.17813-.37235-.2344-.14005-.05625-.31191-.08438-.5156-.08438-.52832 0-.92297.1969-1.18395.59069-.25461.3938-.38192.91886-.38192 1.57519v1.06886c0 .65634.12731 1.18138.38192 1.57515.26098.39381.65563.59074 1.18395.59074.20369 0 .37555-.02813.5156-.08443.14639-.05625.27051-.13123.37235-.225.10821-.10002.20052-.21252.2769-.33756.07639-.13123.14322-.26875.20052-.41253l.68744.30942c-.08274.1813-.17822.35629-.28643.52504-.10821.16881-.24189.32192-.40101.45945-.15915.13753-.3501.24688-.57289.32816-.22278.08123-.48694.1219-.79248.1219zm5.50544 0c-.34369 0-.65559-.0594-.93569-.17815-.27369-.1188-.50923-.28755-.70657-.5063-.19092-.22506-.33733-.49073-.43918-.79695-.10184-.31256-.15277-.66261-.15277-1.05015 0-.38129.05093-.7282.15277-1.04074.10185-.31253.24826-.57819.43918-.79697.19734-.22503.43288-.39692.70657-.51568.2801-.11876.592-.17815.93569-.17815.34375 0 .6525.05939.92619.17815.28.11876.5156.29065.7066.51568.1972.21878.3469.48444.4487.79697.1019.31254.1528.65945.1528 1.04074 0 .38754-.0509.73759-.1528 1.05015-.1018.30622-.2515.57189-.4487.79695-.191.21875-.4266.3875-.7066.5063-.27369.11875-.58244.17815-.92619.17815zm0-.64699c.42652 0 .77021-.12499 1.03118-.37502.26101-.25003.39151-.63756.39151-1.16263v-.69382c0-.52507-.1305-.91261-.39151-1.16264-.26097-.25002-.60466-.37504-1.03118-.37504-.42646 0-.77021.12502-1.03118.37504-.26097.25003-.39146.63757-.39146 1.16264v.69382c0 .52507.13049.9126.39146 1.16263s.60472.37502 1.03118.37502zm6.91859-.25312h-.0383c-.3181.60007-.8242.90011-1.518.90011-.6047 0-1.0789-.22191-1.4227-.66572-.3373-.44381-.506-1.06574-.506-1.86583s.1687-1.42204.506-1.86583c.3438-.44381.818-.66571 1.4227-.66571.6938 0 1.1999.30004 1.518.9001h.0383v-2.8878137h.7638v6.9383037h-.7638zm-1.2603.23439c.1718 0 .3341-.02188.487-.06564.1526-.04371.2864-.10626.401-.18749.1145-.08752.2037-.19068.2674-.30943.0698-.12498.1049-.26876.1049-.43129v-1.74396c0-.16251-.0351-.30314-.1049-.42191-.0637-.12502-.1529-.22816-.2674-.30942-.1146-.08751-.2484-.15314-.401-.19689-.1529-.04376-.3152-.06563-.487-.06563-.4456 0-.7925.13438-1.0408.40316-.2419.26254-.3628.61257-.3628 1.05012v.8251c0 .43754.1209.79071.3628 1.05947.2483.26252.5952.39381 1.0408.39381zm6.0974-5.35373c-.2228 0-.3787-.04374-.4678-.131253-.0891-.093757-.1337-.209407-.1337-.346916v-.150022c0-.13752.0446-.25002.1337-.337542.0891-.0937597.245-.1406395.4678-.1406395.2229 0 .3787.0468798.4678.1406395.0892.087522.1337.200022.1337.337542v.150022c0 .137509-.0445.253159-.1337.346916-.0891.087513-.2449.131253-.4678.131253zm-2.1579 5.26935h1.776v-3.56291h-1.776v-.63756h2.5398v4.20047h1.6614v.6376h-4.2012zm5.6487.6376v-4.83807h.7639v.78758h.0382c.0509-.11876.1145-.23127.191-.33754.0763-.11251.1687-.20939.2768-.29064.1146-.08126.2483-.1469.401-.19691.1529-.05.3311-.07501.5346-.07501.5157 0 .9295.16252 1.2414.48756.3119.31879.4678.77196.4678 1.35952v3.10351h-.7638v-2.97223c0-.44381-.0987-.77197-.296-.9845-.1973-.21877-.4869-.32815-.8689-.32815-.1527 0-.3024.01875-.4486.05625-.1465.03751-.2771.09376-.3916.16877-.1146.07501-.2068.17189-.2769.29065-.07.11877-.105.25629-.105.41255v3.35666zm10.1458.55316c0 .48758-.2068.84696-.6205 1.07826-.4138.23754-1.0344.35628-1.8619.35628-.7957 0-1.3685-.10316-1.7188-.30943-.3436-.20627-.5155-.50315-.5155-.89072 0-.26251.0701-.46569.21-.60941.1401-.14377.3375-.25003.5921-.31882v-.1125c-.1401-.06874-.2482-.15627-.3246-.26252-.0765-.10626-.1146-.2407-.1146-.4032 0-.24998.0828-.43751.2483-.56254.1718-.12502.3849-.21878.6396-.2813v-.03749c-.3055-.13127-.5442-.32504-.7161-.58131-.1654-.25629-.2483-.55632-.2483-.90011 0-.24378.0446-.4688.1337-.67508.0891-.20627.2164-.38128.382-.52506.1719-.15001.3755-.26566.611-.34691.2355-.08126.4965-.12189.7829-.12189.3693 0 .6939.06564.974.1969v-.08438c0-.18752.0445-.34379.1337-.46881.089-.125.2419-.18752.4582-.18752h.9071v.65633h-1.1075v.32816c.1782.15002.315.32815.4105.53443.0955.20627.1432.43756.1432.69383 0 .24378-.0477.46881-.1432.67508-.0892.20627-.2165.38441-.3819.53443-.1655.14378-.3693.25628-.6112.33755-.2354.08125-.4963.12188-.7829.12188-.0826 0-.1623-.00313-.2387-.00937-.0763-.00625-.1527-.01564-.2291-.02814-.0764.0125-.1559.03438-.2387.06563-.0828.02501-.1591.06252-.2291.11252-.0701.04376-.1274.09687-.1719.15942-.0445.06249-.0668.13438-.0668.2156 0 .14378.0732.24064.2195.2907.1465.04377.3375.06559.573.06559h1.0885c.6365 0 1.0979.1188 1.3843.35629.2865.2313.4297.54382.4297.93763zm-.7161.03752c0-.19378-.0794-.35004-.2387-.46884-.159-.1125-.4361-.16875-.8307-.16875h-1.709c-.3311.13128-.4965.35004-.4965.65632 0 .21251.0858.39381.2578.54383.1719.15626.4583.23439.8593.23439h.7447c.4456 0 .7926-.06874 1.0407-.20627.2483-.13129.3724-.32816.3724-.59068zm-1.8046-2.7847c.382 0 .662-.08751.8402-.26254.1846-.17501.277-.4063.277-.69382v-.27191c0-.28753-.0924-.51568-.277-.68445-.1782-.17502-.4582-.26253-.8402-.26253-.3818 0-.662.08751-.8402.26253-.1782.16877-.2673.39692-.2673.68445v.27191c0 .28752.0891.51881.2673.69382.1782.17503.4584.26254.8402.26254zm-30.659 12.87436v-.6281h1.66135v-5.2882h-1.66135v-.6281h4.12473v.6281h-1.66136v5.2882h1.66136v.6281zm5.85874 0v-4.838h.76385v.7876h.03815c.05098-.1188.11462-.2313.19098-.3375.07641-.1126.16869-.2095.2769-.2908.11456-.0812.24826-.1468.40103-.1968s.33097-.075.53466-.075c.51559 0 .92929.1624 1.24119.4875.3119.3187.4679.772.4679 1.3596v3.1034h-.7638v-2.9723c0-.4437-.0987-.7718-.296-.9844-.19734-.2187-.48695-.3281-.86885-.3281-.15283 0-.30239.0186-.4488.0562-.14641.0375-.2769.0937-.39146.1688-.11456.075-.20685.1719-.2769.2906-.07.1188-.105.2563-.105.4126v3.3566zm7.16686 0-1.7664-4.838h.7733l.7066 2.0252.7639 2.1847h.0382l.7637-2.1847.7067-2.0252h.7542l-1.7663 4.838zm8.0738 0c-.2992 0-.5124-.075-.6397-.225-.1273-.1501-.2069-.3375-.2387-.5627h-.0477c-.1082.2815-.2832.5033-.5251.6658-.2357.1562-.5538.2344-.955.2344-.5155 0-.926-.1313-1.2316-.3937-.3055-.2626-.4582-.622-.4582-1.0783 0-.45.1655-.7969.4964-1.0407.3374-.2438.8785-.3657 1.6232-.3657h1.0503v-.4782c0-.3563-.1019-.6219-.3056-.7969-.2037-.1813-.4933-.272-.8689-.272-.3309 0-.6015.0656-.8115.1969-.2101.1251-.3788.297-.5061.5157l-.5155-.3749c.0636-.1251.1495-.247.2578-.3658.1082-.1187.2419-.2218.401-.3094.1591-.0937.3405-.1656.5442-.2156.2036-.0563.4297-.0844.678-.0844.5791 0 1.0374.1438 1.3749.4313.3437.2875.5155.6875.5155 1.2v2.6629h.6875v.6563zm-2.2724-.5156c.1973 0 .3756-.022.5347-.0657.1656-.05.3087-.1125.4296-.1875.121-.0813.2133-.1751.277-.2813.0699-.1125.105-.2313.105-.3563v-.797h-1.0503c-.4583 0-.7924.0625-1.0026.1875-.2099.1251-.3151.3064-.3151.5439v.1969c0 .25.0892.4406.2674.5719.1846.125.4361.1876.7543.1876zm7.3291-.2721h-.0381c-.3183.6002-.8243.9002-1.5182.9002-.6047 0-1.0789-.2218-1.4226-.6658-.3373-.4437-.5062-1.0657-.5062-1.8657 0-.8001.1689-1.4221.5062-1.8658.3437-.4439.8179-.6657 1.4226-.6657.6939 0 1.1999.3 1.5182.9001h.0381v-2.8879h.7638v6.9383h-.7638zm-1.2604.2344c.1719 0 .3343-.0217.4871-.0654.1528-.0439.2864-.1064.4009-.1876.1147-.0876.2038-.1907.2674-.3095.0701-.1249.105-.2687.105-.4313v-1.7438c0-.1626-.0349-.3032-.105-.422-.0636-.125-.1527-.2281-.2674-.3095-.1145-.0874-.2481-.153-.4009-.1968s-.3152-.0656-.4871-.0656c-.4454 0-.7924.1343-1.0406.4031-.2418.2625-.3628.6126-.3628 1.0501v.8251c0 .4376.121.7908.3628 1.0595.2482.2626.5952.3937 1.0406.3937zm5.8779.6658c-.3565 0-.6778-.0594-.9644-.1781-.28-.1188-.5219-.2876-.7255-.5063-.1974-.225-.3502-.4907-.4584-.797-.1082-.3125-.1623-.6595-.1623-1.0407 0-.3875.0541-.7377.1623-1.0501.1146-.3126.2706-.5782.4678-.7971.1974-.225.4329-.3969.7067-.5156.28-.1188.5888-.1781.9261-.1781.3311 0 .6302.0593.8975.1781.2738.1187.5061.2844.6971.497.1908.2062.3373.4531.4391.7406.102.2876.1528.6032.1528.947v.3563h-3.6473v.225c0 .2125.035.4095.105.5907.0701.1813.1687.3375.296.4688.1337.1313.2928.2344.4774.3095.191.0688.401.1031.6301.1031.3311 0 .6175-.0751.8594-.225.2418-.1501.4264-.3564.5538-.6189l.5632.375c-.1463.3252-.3914.5939-.7351.8064-.3374.2063-.7512.3094-1.2413.3094zm-.0477-4.4442c-.21 0-.4042.0375-.5824.1125-.1782.0749-.3343.1782-.4678.3093-.1274.1313-.2292.2877-.3056.4688-.07.1751-.105.3689-.105.5815v.0655h2.8261v-.1031c0-.2125-.035-.4063-.105-.5813-.0637-.175-.1559-.325-.2768-.45-.1146-.1313-.2579-.2313-.4297-.3001-.1655-.0688-.3501-.1031-.5538-.1031zm3.5577 3.6942h1.4417v-3.563h-1.4417v-.6375h2.2055v1.2188h.0477c.102-.3812.293-.6782.573-.8906.2864-.2189.6492-.3282 1.0885-.3282h.6874v.75h-.9261c-.4393 0-.7957.125-1.0694.3751-.2674.2501-.4011.5782-.4011.9845v2.0909h1.9096v.6375h-4.1151zm7.9115.75c-.5156 0-.9612-.0843-1.3366-.2532-.3692-.175-.6844-.4063-.9454-.6938l.5157-.4406c.2355.2438.4934.4312.7733.5625.2801.1313.6175.197 1.0122.197.3819 0 .6937-.0657.9356-.197.2483-.1375.3724-.35.3724-.6376 0-.1249-.0254-.228-.0764-.3094-.0445-.0874-.1082-.1562-.1909-.2062-.0828-.0499-.175-.0876-.277-.1125-.1017-.0313-.2099-.0562-.3245-.075l-.7734-.1125c-.172-.0251-.3596-.0594-.5634-.1031-.1973-.0439-.3787-.1127-.5442-.2064-.1655-.0999-.3056-.2313-.4201-.3937-.1082-.1626-.1623-.3751-.1623-.6376 0-.2437.0477-.4533.1431-.6283.1019-.1813.2419-.3312.4201-.45.1782-.125.3884-.2156.6303-.2719.2419-.0624.5059-.0937.7925-.0937.4455 0 .8306.0687 1.1552.2063.3311.1374.6143.3281.8498.5719l-.4965.4594c-.0573-.0688-.1304-.1376-.2196-.2062-.0827-.0751-.1878-.1407-.3151-.197-.121-.0625-.2641-.1125-.4296-.1501-.1656-.0374-.3565-.0562-.5729-.0562-.3882 0-.6874.0656-.8975.1969-.2038.1313-.3056.322-.3056.5719 0 .1251.0224.2313.0669.3189.0509.0813.1177.1468.2005.1969.0827.05.1751.0906.2769.1219.1082.0249.2163.0469.3247.0656l.7733.1126c.1782.0249.3661.0592.5633.1031.1973.0437.3787.1156.5442.2156.1656.0937.3024.2218.4106.3845.1147.1625.172.3749.172.6375 0 .4813-.191.8532-.573 1.1158-.3756.2624-.8784.3937-1.5086.3937z" fill="currentColor"/></svg>