<svg width="37" height="8" viewBox="0 0 37 8" fill="none" xmlns="http://www.w3.org/2000/svg">
<path fill-rule="evenodd" clip-rule="evenodd" d="M5.32884 6.14985L6.38549 7.20656L6.33368 7.24395C5.67643 7.71829 4.86909 7.9978 3.99666 7.9978C1.78938 7.9978 0 6.20923 0 4.00281C0 1.79644 1.78938 0.0078125 3.99666 0.0078125C4.86909 0.0078125 5.67643 0.287323 6.33368 0.761663L6.38549 0.799051L5.32884 1.85576L5.29243 1.83394C4.91361 1.60743 4.47051 1.4772 3.99666 1.4772C2.60031 1.4772 1.46938 2.60852 1.46938 4.00281C1.46938 5.39709 2.60031 6.52841 3.99666 6.52841C4.47051 6.52841 4.91361 6.39818 5.29243 6.17168L5.32884 6.14985Z" fill="currentColor"/>
<path fill-rule="evenodd" clip-rule="evenodd" d="M10.9821 6.54297C12.3872 6.54297 13.5262 5.40441 13.5262 4C13.5262 2.59559 12.3872 1.45703 10.9821 1.45703C9.57708 1.45703 8.43809 2.59559 8.43809 4C8.43809 5.40441 9.57708 6.54297 10.9821 6.54297ZM14.9838 4C14.9838 6.20914 13.1921 8 10.9821 8C8.77208 8 6.98047 6.20914 6.98047 4C6.98047 1.79086 8.77208 0 10.9821 0C13.1921 0 14.9838 1.79086 14.9838 4Z" fill="currentColor"/>
<path d="M16.4531 0H17.8965V6.54574H21.1348V8H16.4531V0Z" fill="currentColor"/>
<path fill-rule="evenodd" clip-rule="evenodd" d="M25.6289 0L25.629 8H27.0723V4.73056H29.0177V3.28593L27.0723 3.28588V1.44468H30.3106V0H25.6289Z" fill="currentColor"/>
<path fill-rule="evenodd" clip-rule="evenodd" d="M31.5098 8V0H36.1914V1.4419H32.9531V3.27908H34.8985V4.72098L32.9531 4.72092V6.5581H36.1914V8H31.5098Z" fill="currentColor"/>
<path fill-rule="evenodd" clip-rule="evenodd" d="M22.6055 0H24.0488V8H22.6055V0Z" fill="currentColor"/>
</svg>
