<svg width="47" height="8" viewBox="0 0 47 8" fill="currentColor" xmlns="http://www.w3.org/2000/svg">
<g clip-path="url(#clip0_2192_17350)">
<path d="M26.2812 0H27.6626L27.6963 4.54159L27.9658 4.23656L28.269 3.86374L28.5723 3.52482L28.9429 3.05032L29.2798 2.6775L29.583 2.30469L29.9873 1.83019L30.1221 1.69462H31.8403L31.7729 1.86409L31.5034 2.16912L31.2002 2.54193L30.897 2.88086L30.5938 3.25368L30.2231 3.69428L29.9873 3.96542L29.4482 4.64327H29.5156L29.8188 5.01608L30.2231 5.49058L30.5264 5.8634L31.2676 6.7446L31.5708 7.11742L31.8403 7.45634V7.49023H30.0884L29.6841 7.04963L29.4146 6.71071L29.0439 6.27011L28.6396 5.79561L28.3364 5.42279L27.9658 4.98219L27.73 4.67716L27.6626 4.64327V7.49023H26.2812V0Z" fill="currentColor"/>
<path d="M43.4971 1.52734H43.9688L44.5078 1.59513L45.1479 1.76459L45.687 2.00184L45.9902 2.20519L45.8555 2.47633L45.4512 3.15418L45.4175 3.22197L45.249 3.18807L44.8447 2.98472L44.373 2.84915L43.9014 2.78136H43.5645L43.1938 2.84915L42.9243 2.98472L42.7896 3.15418V3.45921L42.958 3.66257L43.2612 3.76425L44.5415 3.9676L45.0806 4.13706L45.4512 4.34042L45.8218 4.67934L46.0239 5.01827L46.1587 5.39108L46.1924 5.59444V6.03504L46.0913 6.44175L45.8892 6.78068L45.6533 7.05182L45.1816 7.35685L44.7437 7.52631L44.3394 7.62799L44.1035 7.66188H43.1602L42.52 7.5602L41.8125 7.32296L41.3071 7.05182L41.2734 6.95014L41.644 6.34007L41.8799 5.96726L41.981 5.89947L42.2505 6.06893L42.7559 6.27229L43.4297 6.40786L43.8677 6.44175L44.2383 6.37397L44.5078 6.2045L44.6763 6.00115L44.71 5.73001L44.6089 5.52665L44.5078 5.42498L44.1035 5.28941L42.958 5.11994L42.5537 5.01827L42.2168 4.8827L41.9136 4.64545L41.8125 4.57767V4.50988H41.7451L41.543 4.20485L41.4082 3.86592L41.3745 3.62868V3.12029L41.4756 2.74747L41.644 2.44244L41.8799 2.13741L42.1494 1.93405L42.6211 1.69681L43.1938 1.56124L43.4971 1.52734Z" fill="currentColor"/>
<path d="M23.3828 1.52734L24.0229 1.56124L24.4946 1.66291L24.8652 1.83238L25.3032 2.06962L25.6738 2.37466V2.51023L24.8989 3.28975L24.7642 3.39143L24.6294 3.32364L24.3262 3.12029L23.9893 2.98472L23.8208 2.95083H23.2817L22.8438 3.0864L22.5405 3.28975L22.3721 3.42532L22.0688 3.83203L21.9341 4.23874L21.9004 4.74713L21.9678 5.08605L22.1362 5.49276L22.4058 5.83169L22.7764 6.10283L23.147 6.2384L23.3491 6.27229H23.7871L24.1914 6.17061L24.5957 5.93336L24.7305 5.83169L24.8652 5.89947L25.3032 6.34007L25.5728 6.57732L25.7075 6.71289L25.6738 6.84846L25.2695 7.15349L24.7979 7.42463L24.3262 7.59409L23.9219 7.66188H23.147L22.6416 7.5602L22.0352 7.32296L21.6982 7.1196L21.3276 6.81457L21.0918 6.57732L20.7549 6.06893L20.5864 5.69612L20.418 5.05216V4.23874L20.519 3.69646L20.7549 3.15418L20.9907 2.78136L21.2939 2.44244L21.6309 2.13741L21.9678 1.93405L22.4058 1.7307L22.8438 1.59513L23.3828 1.52734Z" fill="currentColor"/>
<path d="M38.6133 0.40625H39.9946V1.69416H40.8369V2.94818L40.7695 2.98208H40.0283V5.86294L40.1631 6.06629L40.2642 6.10018L41.0391 6.13408L41.0054 7.48978H40.0283L39.6914 7.3881L39.3545 7.21864L39.0176 6.9136L38.7817 6.57468L38.6133 6.13408L38.5796 2.98208H38.1753L38.0742 2.94818V1.79584L38.1079 1.69416L38.5796 1.66027L38.6133 0.40625Z" fill="currentColor"/>
<path d="M12.501 1.52734L13.04 1.56124L13.5791 1.69681L14.0171 1.90016L13.9497 2.10352L13.6465 2.6458L13.377 3.0864L13.2085 3.0525L12.8379 2.95083H12.4336L12.0293 3.0525L11.6924 3.25586L11.4565 3.49311L11.2207 3.9676L11.187 4.13706L11.1533 4.8827L11.1196 7.49242H9.73828V1.69681H11.0186L11.0522 1.7307L11.0859 2.44244L11.2881 2.1713L11.4565 1.96795L11.9282 1.66291L12.2988 1.56124L12.501 1.52734Z" fill="currentColor"/>
<path fill-rule="evenodd" clip-rule="evenodd" d="M3.7085 1.52734L4.24756 1.56124L4.78662 1.69681L5.2583 1.90016L5.6626 2.1713L5.99951 2.47633L6.26904 2.74747L6.53857 3.22197L6.70703 3.59478L6.80811 3.93371L6.87549 4.4082L6.8418 5.08605L6.77441 5.25551H2.22607L2.42822 5.66222L2.73145 6.00115L3.10205 6.2384L3.43896 6.34007L3.64111 6.37397H3.94434L4.55078 6.2384L4.92139 6.03504L5.19092 5.83169L5.35938 5.59444L5.69629 5.7639L6.23535 6.13672L6.4375 6.27229L6.37012 6.44175L5.96582 6.88235L5.52783 7.18739L5.2583 7.35685L4.71924 7.5602L4.21387 7.66188H3.37158L2.73145 7.52631L2.25977 7.32296L1.88916 7.08571L1.51855 6.78068L1.28271 6.50954L1.08057 6.2384L0.811035 5.69612L0.67627 5.18773L0.642578 4.95048V4.27263L0.743652 3.73035L0.912109 3.32364L1.14795 2.88304L1.45117 2.51023L1.82178 2.1713L2.125 1.96795L2.69775 1.69681L3.27051 1.56124L3.7085 1.52734ZM17.3535 1.56124L16.7134 1.52734L16.0396 1.62902L15.6016 1.76459L15.0962 2.03573L14.6582 2.37466L14.4224 2.64579L14.1865 2.95083L13.9507 3.42532L13.8159 3.79814L13.7148 4.37431V4.71324L13.7485 5.15384L13.8496 5.56055L14.0854 6.06893L14.3887 6.54343L14.793 6.95014L15.0962 7.18739L15.4668 7.39074L16.0732 7.59409L16.4438 7.66188H17.2524L17.4883 7.62799L18.1284 7.45852L18.3979 7.32296L18.8696 7.01792L19.1055 6.78068L19.4761 6.37397L19.6782 6.03504L19.9141 5.45887L20.0151 4.91659V4.30653L19.8804 3.62868L19.6108 3.0525L19.3076 2.6119L19.0718 2.37466L18.7012 2.06962L18.1284 1.76459L17.6904 1.62902L17.3535 1.56124ZM35.4121 1.59513L34.7046 1.52734L34.2666 1.56124L33.6938 1.69681L33.2222 1.90016L32.7842 2.1713L32.4136 2.51023L32.0767 2.95083L31.8745 3.32364L31.7061 3.76425L31.605 4.34042V4.95048L31.6387 5.15384L31.7734 5.66222L32.0093 6.17061L32.2451 6.50954L32.6494 6.91625L33.1211 7.25517L33.7275 7.52631L34.334 7.66188H35.1426L35.3784 7.62799L35.9175 7.49242L36.3892 7.25517L36.8608 6.95014L37.1304 6.679L37.3662 6.37397L37.3999 6.2384L37.063 6.03504L36.4902 5.66222L36.3218 5.62833L36.187 5.79779L35.9175 6.03504L35.5132 6.2384L34.9067 6.37397L34.4014 6.34007L34.0645 6.2384L33.6938 6.00115L33.4243 5.69612L33.1885 5.25551H37.7705L37.8379 4.91659V4.27263L37.7705 3.86592L37.5684 3.28975L37.3662 2.95083L37.0967 2.57801L36.7598 2.27298L36.3892 2.00184L35.9175 1.76459L35.4121 1.59513ZM17.1514 2.91705H16.6123L16.4438 2.95094L16.1069 3.08651L15.7363 3.32376L15.5005 3.5949L15.2646 4.0355L15.1973 4.34053V4.84892L15.231 5.05227L15.332 5.32341L15.5679 5.69623L15.8374 5.96737L16.1743 6.17072L16.6123 6.30629H17.1177L17.5894 6.17072L17.96 5.93348L18.2632 5.59455L18.4653 5.22174L18.5664 4.81503V4.4761L18.5327 4.23885L18.3979 3.86604L18.1958 3.52711L17.96 3.28987L17.5894 3.05262L17.1514 2.91705ZM3.50635 2.88304H4.04541L4.4834 3.01861L4.854 3.25586L5.08984 3.49311L5.29199 3.79814L5.32568 4.00149H2.22607L2.29346 3.79814L2.5293 3.42532L2.83252 3.15418L3.16943 2.98472L3.50635 2.88304ZM35.0752 2.88304H34.5698L34.334 2.91693L34.0645 3.01861L33.7612 3.18807L33.4243 3.527L33.2559 3.83203L33.1885 4.00149H36.3218V3.93371L36.0859 3.527L35.7827 3.22197L35.4458 3.01861L35.0752 2.88304Z" fill="currentColor"/>
<path d="M7.54932 4H8.96436L9.09912 4.03389V5.25402H7.51562V4.03389L7.54932 4Z" fill="currentColor"/>
</g>
<defs>
<clipPath id="clip0_2192_17350">
<rect width="47" height="8" fill="currentColor"/>
</clipPath>
</defs>
</svg>
