<svg width="29" height="10" viewBox="0 0 29 10" fill="none" xmlns="http://www.w3.org/2000/svg">
<path d="M3.70739 9.12784C3.03409 9.12784 2.45455 8.99148 1.96875 8.71875C1.4858 8.44318 1.11364 8.05398 0.852273 7.55114C0.590909 7.04545 0.460227 6.44744 0.460227 5.7571C0.460227 5.08381 0.590909 4.4929 0.852273 3.98438C1.11364 3.47585 1.48153 3.07955 1.95597 2.79545C2.43324 2.51136 2.9929 2.36932 3.63494 2.36932C4.06676 2.36932 4.46875 2.43892 4.84091 2.57812C5.21591 2.71449 5.54261 2.92045 5.82102 3.19602C6.10227 3.47159 6.32102 3.81818 6.47727 4.2358C6.63352 4.65057 6.71165 5.13636 6.71165 5.69318V6.19176H1.18466V5.06676H5.00284C5.00284 4.8054 4.94602 4.57386 4.83239 4.37216C4.71875 4.17045 4.56108 4.01278 4.35938 3.89915C4.16051 3.78267 3.92898 3.72443 3.66477 3.72443C3.3892 3.72443 3.14489 3.78835 2.93182 3.91619C2.72159 4.04119 2.55682 4.21023 2.4375 4.4233C2.31818 4.63352 2.2571 4.8679 2.25426 5.12642V6.19602C2.25426 6.51989 2.31392 6.79972 2.43324 7.03551C2.5554 7.27131 2.72727 7.45312 2.94886 7.58097C3.17045 7.70881 3.43324 7.77273 3.73722 7.77273C3.93892 7.77273 4.12358 7.74432 4.29119 7.6875C4.45881 7.63068 4.60227 7.54545 4.72159 7.43182C4.84091 7.31818 4.93182 7.17898 4.99432 7.0142L6.6733 7.125C6.58807 7.52841 6.41335 7.88068 6.14915 8.18182C5.88778 8.48011 5.54972 8.71307 5.13494 8.88068C4.72301 9.04545 4.24716 9.12784 3.70739 9.12784ZM7.9304 9V0.272727H9.74574V3.55398H9.80114C9.88068 3.37784 9.99574 3.19886 10.1463 3.01705C10.2997 2.83239 10.4986 2.67898 10.7429 2.55682C10.9901 2.43182 11.2969 2.36932 11.6634 2.36932C12.1406 2.36932 12.581 2.49432 12.9844 2.74432C13.3878 2.99148 13.7102 3.36506 13.9517 3.86506C14.1932 4.36222 14.3139 4.9858 14.3139 5.7358C14.3139 6.46591 14.196 7.08239 13.9602 7.58523C13.7273 8.08523 13.4091 8.46449 13.0057 8.72301C12.6051 8.97869 12.1563 9.10653 11.6591 9.10653C11.3068 9.10653 11.0071 9.0483 10.7599 8.93182C10.5156 8.81534 10.3153 8.66903 10.1591 8.4929C10.0028 8.31392 9.88352 8.13352 9.80114 7.9517H9.72017V9H7.9304ZM9.70739 5.72727C9.70739 6.11648 9.76136 6.45597 9.86932 6.74574C9.97727 7.03551 10.1335 7.26136 10.3381 7.4233C10.5426 7.58239 10.7912 7.66193 11.0838 7.66193C11.3793 7.66193 11.6293 7.58097 11.8338 7.41903C12.0384 7.25426 12.1932 7.02699 12.2983 6.73722C12.4063 6.4446 12.4602 6.10795 12.4602 5.72727C12.4602 5.34943 12.4077 5.01705 12.3026 4.73011C12.1974 4.44318 12.0426 4.21875 11.8381 4.05682C11.6335 3.89489 11.3821 3.81392 11.0838 3.81392C10.7884 3.81392 10.5384 3.89205 10.3338 4.0483C10.1321 4.20455 9.97727 4.42614 9.86932 4.71307C9.76136 5 9.70739 5.33807 9.70739 5.72727ZM17.3917 9.12358C16.9741 9.12358 16.6019 9.05114 16.2752 8.90625C15.9485 8.75852 15.69 8.54119 15.4996 8.25426C15.3121 7.96449 15.2184 7.60369 15.2184 7.17188C15.2184 6.80824 15.2852 6.50284 15.4187 6.25568C15.5522 6.00852 15.734 5.80966 15.9641 5.65909C16.1942 5.50852 16.4556 5.39489 16.7482 5.31818C17.0437 5.24148 17.3533 5.1875 17.6772 5.15625C18.0579 5.11648 18.3647 5.07955 18.5977 5.04545C18.8306 5.00852 18.9996 4.95455 19.1048 4.88352C19.2099 4.8125 19.2624 4.70739 19.2624 4.56818V4.54261C19.2624 4.27273 19.1772 4.06392 19.0067 3.91619C18.8391 3.76847 18.6005 3.6946 18.2908 3.6946C17.9641 3.6946 17.7042 3.76705 17.511 3.91193C17.3178 4.05398 17.19 4.23295 17.1275 4.44886L15.4485 4.3125C15.5337 3.91477 15.7013 3.57102 15.9513 3.28125C16.2013 2.98864 16.5238 2.7642 16.9187 2.60795C17.3164 2.44886 17.7766 2.36932 18.2994 2.36932C18.663 2.36932 19.011 2.41193 19.3434 2.49716C19.6786 2.58239 19.9755 2.71449 20.234 2.89347C20.4954 3.07244 20.7013 3.30256 20.8519 3.58381C21.0025 3.86222 21.0778 4.19602 21.0778 4.58523V9H19.3562V8.09233H19.305C19.1999 8.29688 19.0593 8.47727 18.8832 8.63352C18.707 8.78693 18.4954 8.90767 18.2482 8.99574C18.0011 9.08097 17.7156 9.12358 17.3917 9.12358ZM17.9116 7.87074C18.1786 7.87074 18.4144 7.81818 18.619 7.71307C18.8235 7.60511 18.984 7.46023 19.1005 7.27841C19.217 7.09659 19.2752 6.89062 19.2752 6.66051V5.96591C19.2184 6.00284 19.1403 6.03693 19.0408 6.06818C18.9442 6.09659 18.8349 6.12358 18.7127 6.14915C18.5906 6.17187 18.4684 6.19318 18.3462 6.21307C18.2241 6.23011 18.1133 6.24574 18.0138 6.25994C17.8008 6.29119 17.6147 6.34091 17.4556 6.40909C17.2965 6.47727 17.1729 6.5696 17.0849 6.68608C16.9968 6.79972 16.9528 6.94176 16.9528 7.11222C16.9528 7.35938 17.0423 7.5483 17.2212 7.67898C17.4031 7.80682 17.6332 7.87074 17.9116 7.87074ZM25.4435 9.12784C24.7731 9.12784 24.1964 8.9858 23.7134 8.7017C23.2333 8.41477 22.864 8.01705 22.6055 7.50852C22.3498 7 22.2219 6.41477 22.2219 5.75284C22.2219 5.08239 22.3512 4.49432 22.6097 3.98864C22.8711 3.48011 23.2418 3.08381 23.7219 2.79972C24.2021 2.51278 24.7731 2.36932 25.435 2.36932C26.006 2.36932 26.506 2.47301 26.935 2.6804C27.364 2.88778 27.7035 3.17898 27.9535 3.55398C28.2035 3.92898 28.3413 4.36932 28.3668 4.875H26.6538C26.6055 4.5483 26.4776 4.28551 26.2702 4.08665C26.0657 3.88494 25.7972 3.78409 25.4648 3.78409C25.1836 3.78409 24.9379 3.8608 24.7276 4.0142C24.5202 4.16477 24.3583 4.38494 24.2418 4.67472C24.1254 4.96449 24.0671 5.31534 24.0671 5.72727C24.0671 6.14489 24.1239 6.5 24.2376 6.79261C24.354 7.08523 24.5174 7.30824 24.7276 7.46165C24.9379 7.61506 25.1836 7.69176 25.4648 7.69176C25.6722 7.69176 25.8583 7.64915 26.0231 7.56392C26.1907 7.47869 26.3285 7.35511 26.4364 7.19318C26.5472 7.02841 26.6197 6.83097 26.6538 6.60085H28.3668C28.3384 7.10085 28.2021 7.54119 27.9577 7.92188C27.7163 8.29972 27.3825 8.59517 26.9563 8.80824C26.5302 9.02131 26.0259 9.12784 25.4435 9.12784Z" fill="currentColor"/>
</svg>
