<svg width="49" height="8" viewBox="0 0 49 8" fill="none" xmlns="http://www.w3.org/2000/svg">
<g clip-path="url(#clip0_2242_17303)">
<path d="M0 6.30921V0.621094H3.45509V1.70288H1.24485V2.84573H3.12483V3.91881H1.24485V5.22741H3.53979V6.30921H0Z" fill="currentColor"/>
<path d="M5.68033 6.4117C5.25127 6.4117 4.95206 6.28083 4.7827 6.0191C4.61896 5.75158 4.53711 5.3997 4.53711 4.9635V0.191406H5.78197V5.01583C5.78197 5.1496 5.80453 5.24265 5.84972 5.295C5.90052 5.34735 5.95133 5.37353 6.00213 5.37353C6.03037 5.37353 6.05294 5.37353 6.06988 5.37353C6.09247 5.3677 6.12069 5.3619 6.15457 5.35608L6.30699 6.307C6.23924 6.33608 6.15174 6.35935 6.04448 6.3768C5.94287 6.40005 5.82148 6.4117 5.68033 6.4117Z" fill="currentColor"/>
<path d="M8.10416 6.4117C7.6751 6.4117 7.37589 6.28083 7.20653 6.0191C7.04279 5.75158 6.96094 5.3997 6.96094 4.9635V0.191406H8.2058V5.01583C8.2058 5.1496 8.22836 5.24265 8.27354 5.295C8.32435 5.34735 8.37515 5.37353 8.42596 5.37353C8.4542 5.37353 8.47677 5.37353 8.49371 5.37353C8.5163 5.3677 8.54451 5.3619 8.5784 5.35608L8.73082 6.307C8.66307 6.33608 8.57556 6.35935 8.46831 6.3768C8.3667 6.40005 8.2453 6.4117 8.10416 6.4117Z" fill="currentColor"/>
<path d="M9.85012 8.0001C9.72592 8.0001 9.61582 7.99137 9.51986 7.97392C9.42952 7.95647 9.34201 7.93612 9.25735 7.91285L9.47751 6.93575C9.51702 6.94157 9.56221 6.9503 9.61301 6.96192C9.66382 6.97937 9.71181 6.9881 9.75697 6.9881C9.96586 6.9881 10.1268 6.93575 10.2397 6.83107C10.3526 6.72637 10.4373 6.5897 10.4937 6.42105L10.553 6.1942L8.93555 1.98047H10.1889L10.7901 3.8387C10.8522 4.03645 10.9087 4.2371 10.9595 4.44067C11.0103 4.64422 11.0639 4.8536 11.1204 5.0688H11.1542C11.1994 4.86525 11.2446 4.66167 11.2897 4.45812C11.3405 4.24872 11.3914 4.04227 11.4422 3.8387L11.9503 1.98047H13.1443L11.6877 6.35125C11.5579 6.71185 11.4139 7.01427 11.2559 7.25855C11.0978 7.50865 10.9058 7.69475 10.68 7.8169C10.4598 7.93902 10.1832 8.0001 9.85012 8.0001Z" fill="currentColor"/>
<path d="M16.8931 3.43026L16.7576 3.95371H17.9347L17.8076 3.43026C17.7342 3.14526 17.658 2.84283 17.579 2.52296C17.5056 2.20306 17.4322 1.89481 17.3588 1.59819H17.3249C17.2572 1.90063 17.1866 2.21179 17.1132 2.53168C17.0455 2.84573 16.9721 3.14526 16.8931 3.43026ZM14.8945 6.30921L16.6221 0.621094H18.121L19.8485 6.30921H18.5274L18.1887 4.95698H16.5035L16.1648 6.30921H14.8945Z" fill="currentColor"/>
<path d="M20.3496 6.30684V1.97969H21.3658L21.4505 2.52932H21.4844C21.665 2.35483 21.8626 2.20361 22.0772 2.07565C22.2973 1.94188 22.5486 1.875 22.8308 1.875C23.2881 1.875 23.6184 2.03203 23.8216 2.3461C24.0305 2.65434 24.135 3.07892 24.135 3.61982V6.30684H22.8901V3.78557C22.8901 3.47152 22.8478 3.25632 22.7631 3.13999C22.6841 3.02367 22.5542 2.96552 22.3735 2.96552C22.2155 2.96552 22.08 3.00332 21.9671 3.07892C21.8542 3.14872 21.73 3.25049 21.5945 3.38427V6.30684H20.3496Z" fill="currentColor"/>
<path d="M26.2552 6.41154C25.8715 6.41154 25.5665 6.28649 25.3407 6.03639C25.1149 5.78049 25.002 5.46932 25.002 5.10292C25.002 4.64927 25.1883 4.29449 25.5609 4.03857C25.9334 3.78267 26.5348 3.61109 27.3647 3.52384C27.3533 3.33192 27.2969 3.18072 27.1952 3.07019C27.0993 2.95387 26.9355 2.89572 26.7042 2.89572C26.5291 2.89572 26.3512 2.93062 26.1706 3.00042C25.9898 3.07019 25.798 3.16617 25.5947 3.28829L25.1459 2.44207C25.4113 2.2734 25.6935 2.13672 25.9927 2.03203C26.2975 1.92735 26.6137 1.875 26.9412 1.875C27.4776 1.875 27.8898 2.03494 28.1776 2.35483C28.4656 2.67472 28.6095 3.16617 28.6095 3.82919V6.30684H27.5932L27.5086 5.86192H27.4748C27.2997 6.02477 27.1107 6.15854 26.9074 6.26322C26.7096 6.36209 26.4925 6.41154 26.2552 6.41154ZM26.6787 5.41699C26.8198 5.41699 26.9412 5.38499 27.0428 5.32102C27.1501 5.25122 27.2574 5.16107 27.3647 5.05057V4.29157C26.9242 4.34974 26.6194 4.44279 26.4499 4.57074C26.2808 4.69289 26.1959 4.83829 26.1959 5.00694C26.1959 5.14654 26.2385 5.25122 26.323 5.32102C26.4133 5.38499 26.5319 5.41699 26.6787 5.41699Z" fill="currentColor"/>
<path d="M30.8054 6.4117C30.3762 6.4117 30.0771 6.28083 29.9076 6.0191C29.7439 5.75158 29.6621 5.3997 29.6621 4.9635V0.191406H30.907V5.01583C30.907 5.1496 30.9294 5.24265 30.9745 5.295C31.0253 5.34735 31.0761 5.37353 31.127 5.37353C31.1553 5.37353 31.1778 5.37353 31.1948 5.37353C31.2175 5.3677 31.2456 5.3619 31.2796 5.35608L31.432 6.307C31.3642 6.33608 31.2768 6.35935 31.1695 6.3768C31.0679 6.40005 30.9464 6.4117 30.8054 6.4117Z" fill="currentColor"/>
<path d="M32.5512 8.0001C32.4272 8.0001 32.317 7.99137 32.2211 7.97392C32.1306 7.95647 32.0432 7.93612 31.9586 7.91285L32.1788 6.93575C32.2183 6.94157 32.2634 6.9503 32.3142 6.96192C32.365 6.97937 32.413 6.9881 32.4581 6.9881C32.667 6.9881 32.8279 6.93575 32.9409 6.83107C33.0539 6.72637 33.1384 6.5897 33.1949 6.42105L33.2542 6.1942L31.6367 1.98047H32.8901L33.4912 3.8387C33.5534 4.03645 33.6099 4.2371 33.6607 4.44067C33.7115 4.64422 33.7651 4.8536 33.8216 5.0688H33.8554C33.9005 4.86525 33.9456 4.66167 33.991 4.45812C34.0418 4.24872 34.0927 4.04227 34.1435 3.8387L34.6515 1.98047H35.8456L34.389 6.35125C34.259 6.71185 34.1151 7.01427 33.957 7.25855C33.7989 7.50865 33.607 7.69475 33.3811 7.8169C33.1611 7.93902 32.8844 8.0001 32.5512 8.0001Z" fill="currentColor"/>
<path d="M38.1177 6.41156C37.5983 6.41156 37.2257 6.25743 36.9997 5.94916C36.7798 5.64091 36.6696 5.23671 36.6696 4.73651V2.98298H36.0938V2.03205L36.7372 1.9797L36.8814 0.828125H37.9145V1.9797H38.9221V2.98298H37.9145V4.71908C37.9145 4.96336 37.9625 5.14073 38.0584 5.25123C38.16 5.35593 38.2926 5.40828 38.4563 5.40828C38.5242 5.40828 38.592 5.39956 38.6595 5.38211C38.733 5.36466 38.798 5.34431 38.8545 5.32103L39.0492 6.25451C38.9419 6.28941 38.8094 6.32431 38.6513 6.35921C38.4986 6.39411 38.3209 6.41156 38.1177 6.41156Z" fill="currentColor"/>
<path d="M39.7428 6.30752V1.98037H40.9877V6.30752H39.7428ZM40.361 1.34351C40.1521 1.34351 39.9829 1.28244 39.8529 1.1603C39.7232 1.03817 39.6582 0.875317 39.6582 0.671755C39.6582 0.468192 39.7232 0.305342 39.8529 0.183206C39.9829 0.0610687 40.1521 0 40.361 0C40.5699 0 40.7393 0.0610687 40.8693 0.183206C40.999 0.305342 41.064 0.468192 41.064 0.671755C41.064 0.875317 40.999 1.03817 40.8693 1.1603C40.7393 1.28244 40.5699 1.34351 40.361 1.34351Z" fill="currentColor"/>
<path d="M43.9127 6.41154C43.523 6.41154 43.1702 6.32429 42.854 6.14982C42.5435 5.96952 42.2951 5.71069 42.1089 5.37337C41.9282 5.03022 41.8379 4.62019 41.8379 4.14327C41.8379 3.66054 41.9395 3.25049 42.1427 2.91317C42.3459 2.57584 42.6142 2.31993 42.9474 2.14545C43.2803 1.96515 43.6388 1.875 44.0228 1.875C44.2825 1.875 44.511 1.91862 44.7088 2.00586C44.912 2.0931 45.0925 2.20361 45.2506 2.33738L44.6662 3.16617C44.4687 2.99749 44.2796 2.91317 44.0989 2.91317C43.7997 2.91317 43.5599 3.02367 43.3791 3.24469C43.2042 3.46569 43.1165 3.76522 43.1165 4.14327C43.1165 4.51549 43.2042 4.81502 43.3791 5.04184C43.5599 5.26287 43.7855 5.37337 44.0566 5.37337C44.1922 5.37337 44.3248 5.34429 44.4545 5.28612C44.5845 5.22214 44.7031 5.14654 44.8104 5.05929L45.3014 5.89682C45.0925 6.08292 44.8669 6.21669 44.6239 6.29812C44.3812 6.37372 44.144 6.41154 43.9127 6.41154Z" fill="currentColor"/>
<path d="M47.2731 6.41154C46.9966 6.41154 46.7114 6.35627 46.4179 6.24577C46.1298 6.13527 45.8786 5.98987 45.6641 5.80957L46.2232 5.00694C46.4151 5.15234 46.5984 5.26577 46.7735 5.34719C46.9541 5.42279 47.132 5.46059 47.3071 5.46059C47.4933 5.46059 47.6287 5.42862 47.7136 5.36464C47.7981 5.29484 47.8404 5.20469 47.8404 5.09419C47.8404 4.99532 47.7981 4.91389 47.7136 4.84992C47.6344 4.78594 47.5299 4.72777 47.4002 4.67544C47.2702 4.61727 47.132 4.55912 46.9853 4.50094C46.8158 4.43117 46.6464 4.34392 46.4772 4.23924C46.3134 4.13454 46.1752 4.00077 46.0623 3.83792C45.9493 3.66927 45.8928 3.46569 45.8928 3.22724C45.8928 2.82592 46.0396 2.50022 46.333 2.25014C46.6325 2.00005 47.0219 1.875 47.5018 1.875C47.8237 1.875 48.1058 1.93316 48.3487 2.04948C48.5971 2.15999 48.8088 2.28503 48.9837 2.42462L48.4248 3.19234C48.2781 3.07602 48.1313 2.98587 47.9846 2.92189C47.8376 2.85792 47.6909 2.82592 47.5441 2.82592C47.2223 2.82592 47.0613 2.93934 47.0613 3.16617C47.0613 3.30574 47.1405 3.41334 47.2986 3.48897C47.4624 3.55874 47.6514 3.63437 47.866 3.71579C48.0465 3.77977 48.2216 3.86409 48.391 3.96879C48.5659 4.06767 48.7101 4.20142 48.8228 4.37009C48.9414 4.53294 49.0007 4.74814 49.0007 5.01567C49.0007 5.40534 48.854 5.73687 48.5602 6.01022C48.2667 6.27777 47.8376 6.41154 47.2731 6.41154Z" fill="currentColor"/>
</g>
<defs>
<clipPath id="clip0_2242_17303">
<rect width="49" height="8" fill="currentColor"/>
</clipPath>
</defs>
</svg>
