<svg width="31" height="13" viewBox="0 0 31 13" fill="none" xmlns="http://www.w3.org/2000/svg">
<g clip-path="url(#clip0_2251_17303)">
<path d="M13.7905 2.45703H14.4399L14.7817 2.50884L15.0552 2.57792L15.3799 2.71608L15.6191 2.85424L15.79 2.9924L15.9951 3.18237L16.1831 3.42416L16.354 3.71775L16.4907 4.04588L16.5933 4.42582L16.6616 4.8403L16.6787 5.03027V10.3495H14.5767L14.5596 5.4793L14.5083 5.13389L14.4229 4.85757L14.3203 4.6676L14.2007 4.51217L14.0127 4.37401L13.8247 4.28766L13.5513 4.21858L13.4146 4.20131H13.0557L12.748 4.25312L12.4746 4.35674L12.2866 4.46036L12.0645 4.65033L11.9106 4.85757L11.7739 5.13389L11.7056 5.35841L11.6543 5.72108L11.6372 10.3495H9.53516V2.62973H11.6372L11.6543 3.82137L11.791 3.57959L12.0132 3.30327L12.2183 3.09602L12.4404 2.92332L12.731 2.75062L13.0557 2.61246L13.3633 2.52611L13.7905 2.45703Z" fill="currentColor"/>
<path d="M22.3184 2.63281H24.5913L24.6768 2.82278L24.9844 3.59994L25.4116 4.67068L25.873 5.82778L26.2148 6.67401L26.4028 7.15757L26.4199 7.24392L26.4541 7.22665L27.7871 3.59994L28.146 2.63281H30.1626L30.1113 2.80551L29.479 4.39436L28.915 5.81051L27.8213 8.55645L27.5649 9.19544L27.2573 9.9726L26.8813 10.9052L26.6934 11.3887L26.437 12.0277L26.061 12.9776H24.0103L24.1812 12.5286L24.3691 12.0623L24.6768 11.2679L24.8647 10.8016L25.1724 10.0071L25.3262 9.6272V9.52358L25.0869 8.9882L24.7793 8.28013L23.8052 6.05229L23.4976 5.34422L23.1729 4.6016L22.8994 3.97988L22.5918 3.27181L22.3184 2.65008V2.63281Z" fill="currentColor"/>
<path d="M17.9429 0.957031H19.8057L20.0278 0.974301V2.63223H21.5659V4.13473L21.5488 4.152H20.0278L20.0449 7.98595L20.0791 8.21046L20.1475 8.40044L20.25 8.55587L20.4038 8.67676L20.5747 8.74584L20.7627 8.78038H21.0874L21.3438 8.74584L21.583 8.67676L21.6514 8.69403L21.9248 9.29848L22.147 9.79931L22.1982 9.93747L22.0273 10.0411L21.7539 10.1793L21.4976 10.3001L21.1387 10.421L20.8823 10.4728L20.5063 10.5074H20.3013L19.8569 10.4728L19.498 10.4038L19.1904 10.3001L18.917 10.162L18.7119 10.0238L18.5068 9.83385L18.3359 9.62661L18.1821 9.35029L18.0796 9.10851L17.9771 8.67676L17.9429 8.40044L17.9258 8.05503V1.52694L17.9429 0.957031Z" fill="currentColor"/>
<path fill-rule="evenodd" clip-rule="evenodd" d="M5.1084 2.45703H4.37354L4.08301 2.49157L3.72412 2.56065L3.31396 2.68154L2.90381 2.85424L2.54492 3.06148L2.32275 3.21692L2.0835 3.40689L1.92969 3.56232L1.72461 3.78683L1.53662 4.02861L1.33154 4.35674L1.12646 4.78849L0.972656 5.25479L0.887207 5.652L0.835938 6.04921V7.01633L0.870117 7.30993L0.938477 7.6726L1.04102 8.03527L1.19482 8.43248L1.33154 8.69153L1.51953 8.98512L1.70752 9.2269L1.82715 9.36506L2.03223 9.55503L2.22021 9.71047L2.51074 9.91771L2.86963 10.1077L3.22852 10.2631L3.57031 10.3667L3.96338 10.4531L4.4248 10.5049H5.22803L5.43311 10.4876L5.91162 10.4185L6.27051 10.3322L6.68066 10.194L6.93701 10.0731L7.21045 9.91771L7.50098 9.71047L7.70605 9.50323L7.89404 9.29598L8.08203 9.01966L8.21875 8.74334L8.32129 8.48429L8.42383 8.08708L8.44092 7.91438H6.4585L6.33887 8.25978L6.23633 8.43248L6.08252 8.60518L5.92871 8.72607L5.65527 8.86423L5.33057 8.95058L5.02295 8.98512H4.71533L4.54443 8.96785L4.28809 8.91604L4.03174 8.82969L3.77539 8.69153L3.55322 8.51883L3.36523 8.29432L3.21143 8.018L3.10889 7.75895L3.02344 7.43081L2.97217 6.98179L8.45801 6.96452V6.01467L8.40674 5.51384L8.33838 5.15117L8.23584 4.78849L8.09912 4.44309L7.9624 4.16677L7.80859 3.90772L7.58643 3.61413L7.41553 3.44143L7.24463 3.286L7.07373 3.14783L6.76611 2.94059L6.33887 2.73335L5.99707 2.61246L5.53564 2.50884L5.1084 2.45703ZM5.00586 3.92495H4.51025L4.39062 3.94222L4.13428 4.0113L3.91211 4.11492L3.72412 4.23581L3.5874 4.3567L3.43359 4.5294L3.29688 4.71937L3.16016 4.9957L3.05762 5.30656L2.98926 5.65196L3.17725 5.66923H6.39014L6.40723 5.65196L6.39014 5.37564L6.32178 5.0475L6.20215 4.71937L6.09961 4.54667L5.96289 4.37397L5.79199 4.21854L5.604 4.09765L5.34766 3.99403L5.00586 3.92495Z" fill="currentColor"/>
</g>
<defs>
<clipPath id="clip0_2251_17303">
<rect width="31" height="13" fill="currentColor"/>
</clipPath>
</defs>
</svg>
