<svg width="48" height="6" viewBox="0 0 48 6" fill="none" xmlns="http://www.w3.org/2000/svg">
<g clip-path="url(#clip0_2229_17318)">
<path d="M2.97656 0.269531H3.63672L4.14453 0.370044L4.55078 0.520813L4.90625 0.721838L5.23633 0.998248L5.43945 1.2244L5.56641 1.42543L5.51562 1.52594L5.10938 1.85261L4.62695 2.2044L4.47461 2.33004H4.42383L4.27148 2.10389L4.09375 1.92799L3.73828 1.72697L3.45898 1.65158H3.05273L2.72266 1.75209L2.44336 1.95312L2.26562 2.17927L2.11328 2.50594L2.0625 2.73209V3.41055L2.16406 3.73722L2.29102 3.9885L2.51953 4.23978L2.77344 4.39055L3.05273 4.46594H3.50977L3.86523 4.36542L4.16992 4.18953L4.39844 4.01363V3.9885H3.50977L3.48438 3.96337V2.88286L3.6875 2.85773H5.76953L5.79492 2.88286V5.74747L5.76953 5.82286H4.55078L4.5 5.72235L4.52539 5.37055L4.16992 5.5967L3.81445 5.74747L3.43359 5.84799H2.875L2.44336 5.7726L1.96094 5.5967L1.58008 5.37055L1.19922 5.04388L0.919922 4.69209L0.666016 4.21465L0.539062 3.83773L0.462891 3.38543V2.70696L0.564453 2.22953L0.691406 1.90286L0.84375 1.60132L1.04688 1.32491L1.27539 1.07363L1.45312 0.897736L1.91016 0.596198L2.29102 0.4203L2.79883 0.294659L2.97656 0.269531Z" fill="currentColor"/>
<path d="M27.4531 0.320312H28.9512L28.9766 0.345441L29.002 3.38595L29.0781 3.83826L29.2305 4.13979L29.4082 4.34082L29.6113 4.44133L29.8652 4.49159H30.0684L30.3223 4.4162L30.5254 4.26544L30.7285 3.98903L30.8301 3.68749L30.8809 3.43621L30.9062 3.03416V0.445953L30.957 0.320312H32.4297L32.4551 0.345441V3.21005L32.4043 3.788L32.2773 4.26544L32.0742 4.71774L31.8711 5.01928L31.6426 5.27056L31.3887 5.47159L31.0078 5.67261L30.627 5.79825L30.1445 5.87364H29.7383L29.2305 5.79825L28.748 5.62236L28.4941 5.47159L28.2656 5.29569L28.1387 5.19518L27.8594 4.84338L27.6309 4.36595L27.5039 3.93877L27.4277 3.41108V0.345441L27.4531 0.320312Z" fill="currentColor"/>
<path d="M7.2168 0.296875H10.416L10.4668 0.37226L10.4414 1.6538L8.13086 1.67892L8.10547 1.87995V2.40764L10.0859 2.38251L10.1113 2.43277V3.63892H8.10547V4.44302L8.13086 4.46815H10.4922L10.5176 4.49328V5.79995L10.1875 5.82507H6.58203L6.55664 5.79995V0.322003L7.2168 0.296875Z" fill="currentColor"/>
<path d="M40.2246 0.269531H41.0117L41.5449 0.395172L42.1035 0.596198L42.6113 0.822351L42.6367 0.947992L42.332 1.52594L42.0781 1.97825L42.002 2.10389L41.8496 2.05363L41.4434 1.85261L41.0117 1.70184L40.707 1.65158H40.377L40.1992 1.72697L40.123 1.80235V1.97825L40.25 2.10389L40.6562 2.25466L41.5703 2.5562L42.0527 2.78235L42.332 2.98337L42.5098 3.15927L42.6875 3.46081L42.7891 3.76235L42.8145 3.88799V4.36542L42.7129 4.74235L42.5098 5.1444L42.3066 5.37055L41.9512 5.5967L41.6211 5.74747L41.2148 5.84799L40.9102 5.89824H40.5801L40.0723 5.84799L39.4629 5.72235L38.7773 5.49619L38.2949 5.24491L38.2695 5.16953L38.5742 4.59158L38.8535 4.01363L38.9043 3.91312L39.0312 3.93824L39.3359 4.11414L39.9707 4.36542L40.4023 4.46594H40.9355L41.0879 4.39055L41.1133 4.3403V4.1644L41.0117 4.06389L40.707 3.93824L39.793 3.63671L39.3359 3.43568L39.0566 3.25978L38.8027 3.03363L38.6504 2.80748L38.5488 2.53107L38.498 2.30491V1.92799L38.5742 1.55107L38.7266 1.19927L38.9297 0.922864L39.209 0.671582L39.5645 0.470557L39.8945 0.344916L40.2246 0.269531Z" fill="currentColor"/>
<path d="M43.5 0.320312H47.3594L47.3848 0.345441V1.1998L47.3594 1.65211L45.0488 1.67723V2.38082L47.0293 2.40595L47.0547 2.43108V3.33569L47.0293 3.63723L45.0234 3.66236L45.0488 4.46646L47.4355 4.49159L47.4609 4.51672V5.59723L47.4355 5.79825H43.5V0.320312Z" fill="currentColor"/>
<path d="M18.4141 0.269531H19.0234L19.5312 0.370044L19.9883 0.545941L20.3184 0.746967L20.5977 0.97312L20.9023 1.32491L20.9531 1.4003L20.9277 1.52594L20.0645 2.12902L19.8613 2.27979H19.7852L19.6328 2.0285L19.4043 1.82748L19.0742 1.70184L18.9473 1.67671H18.3633L18.084 1.77722L17.8555 1.92799L17.6777 2.15414L17.5508 2.40543L17.4492 2.78235V3.3603L17.5762 3.76235L17.6777 3.96337L17.9062 4.21465L18.1348 4.36542L18.4141 4.46594H18.9727L19.3281 4.3403L19.582 4.13927L19.7852 3.83773L19.9121 3.88799L20.3184 4.13927L20.9277 4.49106L21.0293 4.56645L20.9785 4.69209L20.75 5.01876L20.5469 5.21978L20.166 5.47106L19.7852 5.64696L19.4043 5.7726L18.7949 5.87311H18.4648L17.9062 5.7726L17.4238 5.57158L17.1445 5.39568L16.8906 5.19465L16.6621 4.99363L16.4336 4.71722L16.2051 4.36542L16.002 3.91312L15.9004 3.53619L15.8496 3.20953V2.78235L15.9512 2.27979L16.1035 1.87773L16.2559 1.60132L16.5098 1.24953L16.8652 0.897736L17.1445 0.69671L17.3984 0.545941L17.8809 0.370044L18.4141 0.269531Z" fill="currentColor"/>
<path d="M11.4824 0.296875H15.5449L15.5703 0.322003L15.5957 0.648669L15.5703 1.6538L14.0215 1.67892L13.9961 5.79995L13.9199 5.82507H12.9805L12.4727 5.79995L12.4473 5.77482V1.6538H10.873L10.8477 1.62867V0.347131L10.873 0.322003L11.4824 0.296875Z" fill="currentColor"/>
<path fill-rule="evenodd" clip-rule="evenodd" d="M24.3301 0.269531H23.7715L23.3145 0.344916L22.9336 0.470557L22.5527 0.671582L22.1719 0.947992L21.8926 1.2244L21.6387 1.55107L21.4355 1.92799L21.2832 2.33004L21.207 2.73209V3.3603L21.2324 3.53619L21.334 3.93824L21.5371 4.39055L21.7656 4.74235L22.0195 5.04388L22.2988 5.27004L22.5781 5.47106L22.8574 5.62183L23.2383 5.7726L23.8223 5.87311H24.1523L24.3809 5.84799L24.7617 5.7726L25.168 5.62183L25.625 5.37055L25.9297 5.11927L26.1074 4.91824L26.3359 4.66696L26.5391 4.31517L26.7168 3.91312L26.8438 3.43568V2.70696L26.7422 2.33004L26.5391 1.82748L26.3359 1.47568L26.0566 1.12389L25.8027 0.897736L25.5488 0.69671L25.168 0.495685L24.7363 0.344916L24.3301 0.269531ZM24.3048 1.65163H23.6955L23.5939 1.67675L23.3654 1.77727L23.1369 1.97829L22.9591 2.20445L22.8322 2.50598L22.756 2.93316V3.2347L22.7814 3.38547L22.883 3.76239L22.9845 3.96342L23.1622 4.18957L23.4415 4.3906L23.7716 4.49111H24.3048L24.508 4.44085L24.7619 4.29008L24.9904 4.0388L25.0919 3.88803L25.2189 3.5865L25.2951 3.18445V2.93316L25.2443 2.58137L25.1173 2.2547L24.9142 1.97829L24.6603 1.77727L24.3048 1.65163Z" fill="currentColor"/>
<path d="M7.2168 0.296875H10.416L10.4668 0.37226L10.4414 0.77431L10.416 1.62867H8.61328L8.58789 1.55328L8.63867 1.52816L8.89258 1.50303L9.45117 1.52816H9.52734H9.88281L9.98438 1.55328H10.0605L10.1367 1.57841V1.52816L10.2383 1.4779L10.2637 1.42764V0.673798L10.1875 0.548157L10.1113 0.523029H8.71484L8.18164 0.4979L7.11523 0.472772H6.86133L6.75977 0.573285L6.73438 0.799438L6.75977 1.25175L6.78516 1.60354V2.282L6.81055 2.68405L6.78516 2.75944L6.81055 2.98559V3.66405L6.83594 3.81482L6.81055 3.91533V4.242L6.83594 4.34251V5.07123L6.78516 5.39789L6.75977 5.64918L6.70898 5.72456L6.78516 5.69943L6.83594 5.74969L6.78516 5.77482H6.60742L6.58203 5.222V0.322003L7.2168 0.296875Z" fill="currentColor"/>
<path fill-rule="evenodd" clip-rule="evenodd" d="M35.959 0.296875H34.791L33.3691 0.322003L33.3438 0.347131V5.79994L33.5469 5.82507H34.7656L34.8672 5.79994L34.8926 4.8702V4.14149L35.4766 4.16661L35.5273 4.21687L36.0352 5.07123L36.3906 5.69943L36.5176 5.82507H38.0918L38.1172 5.72456L38.0664 5.64918L37.7617 5.14661L37.4062 4.51841L37.0508 3.91533L37 3.78969L37.2031 3.61379L37.457 3.28713L37.6602 2.88508L37.7617 2.50815V1.93021L37.7109 1.72918L37.5586 1.37739L37.3555 1.05072L37.2031 0.874823L36.9492 0.648669L36.6699 0.472772L36.3145 0.347131L35.959 0.296875ZM35.8574 1.65352H34.8926L34.8672 2.13095V2.78428L34.8926 2.80941L35.9336 2.78428L35.9844 2.75916L36.1367 2.58326L36.2129 2.33198V2.10582L36.1875 1.95505L36.0605 1.75403L35.8574 1.65352Z" fill="currentColor"/>
<path d="M11.4824 0.296875H15.5449L15.5195 0.573285L15.4941 0.4979L15.3418 0.447644L15.2656 0.397388L15.0625 0.447644L14.7324 0.472772L13.8945 0.4979H13.1328L12.3203 0.472772L11.6348 0.4979L11.2031 0.523029L11.1016 0.598413L11.0762 0.874823L11.0508 1.42764L11.2793 1.50303L11.4062 1.52816L11.4316 1.57841L12.3457 1.60354V1.62867H10.8477V0.347131L10.873 0.322003L11.4824 0.296875Z" fill="currentColor"/>
<path d="M2.97656 0.269531H3.63672L3.76367 0.319788L3.71289 0.395172H3.30664L2.95117 0.445428L2.74805 0.495685L2.72266 0.470557H2.54492L2.41797 0.545941L2.13867 0.646454L2.01172 0.746967L1.7832 0.872607L1.70703 0.847479V0.897736L1.58008 0.97312L1.32617 1.24953L1.19922 1.47568H1.14844L1.04688 1.62645L0.996094 1.75209L0.894531 1.87773L0.691406 2.50594L0.640625 2.78235V3.05876L0.666016 3.3603V3.61158L0.640625 3.66183L0.742188 3.96337V4.11414H0.792969L0.869141 4.39055L0.970703 4.56645L0.996094 4.69209L1.04688 4.71722L0.970703 4.76747L0.767578 4.41568L0.615234 4.08901L0.513672 3.71209L0.462891 3.38542V2.70696L0.564453 2.22953L0.691406 1.90286L0.84375 1.60132L1.04688 1.32491L1.27539 1.07363L1.45312 0.897736L1.91016 0.596197L2.29102 0.4203L2.79883 0.294659L2.97656 0.269531Z" fill="currentColor"/>
<path d="M12.3965 1.60156H12.5234L12.625 1.75233L12.6758 2.079L12.7012 2.45592V5.04412L12.6504 5.44617V5.67233L12.8027 5.72258L12.7773 5.77284H12.498L12.4727 4.6672L12.4473 1.77746L12.3965 1.60156Z" fill="currentColor"/>
<path d="M9.01953 4.49219H10.5176V5.72347L10.4922 5.77372H10.3652L10.3145 5.67321L10.3398 5.34655L10.3145 4.94449V4.74347H10.2637V4.69321H8.63867L8.18164 4.64296L8.10547 4.51732L9.01953 4.49219Z" fill="currentColor"/>
<path d="M8.05469 2.38281H10.0859V3.61409H8.58789L8.63867 3.58896V3.53871L8.74023 3.51358H9.0957L9.32422 3.53871L9.34961 3.56384H9.80664V3.51358H9.85742L9.9082 3.36281V2.98589L9.85742 2.65922L9.6543 2.60897L8.58789 2.58384L8.33398 2.53358H8.18164L8.13086 2.48333L8.05469 2.43307V2.38281Z" fill="currentColor"/>
<path d="M3.6875 2.85938H5.76953L5.79492 2.8845V5.74911L5.66797 5.69886L5.69336 5.47271L5.64258 5.22142L5.61719 4.89476V3.61322L5.64258 3.18604V3.0604H5.5918V3.01014L5.49023 2.95989H5.26172L4.55078 3.03527L4.19531 3.01014L3.9668 2.95989L3.58594 2.98502L3.53516 2.95989V2.90963L3.6875 2.85938Z" fill="currentColor"/>
<path d="M4.72852 0.648438L4.85547 0.698694L5.18555 0.949976L5.43945 1.22639L5.56641 1.42741L5.54102 1.5028L5.43945 1.37715L5.41406 1.30177L5.3125 1.25151V1.20126H5.26172V1.12587L5.13477 1.07562L4.95703 0.849463L4.72852 0.698694V0.648438Z" fill="currentColor"/>
<path d="M7.97852 3.78906L8.05469 3.81419V4.41727L7.92773 4.31675L7.90234 4.14086V3.86445L7.97852 3.78906Z" fill="currentColor"/>
<path d="M0.996094 4.74219L1.09766 4.76732L1.30078 5.0186L1.55469 5.24475L1.60547 5.26988V5.32014L1.73242 5.37039L1.83398 5.44578V5.49603L1.70703 5.44578L1.42773 5.24475L1.17383 5.0186L0.996094 4.79244V4.74219Z" fill="currentColor"/>
<path d="M13.9199 1.90625H13.9453V2.71035L13.8945 2.68522L13.8438 2.43394V2.1324L13.9199 1.90625Z" fill="currentColor"/>
<path d="M8.00391 1.80469H8.05469V2.38264L8.00391 2.28212L7.95312 2.23187L7.92773 1.98058L7.95312 1.85494L8.00391 1.80469Z" fill="currentColor"/>
<path d="M4.19531 1.98047H4.24609V2.03073H4.29688V2.08098L4.44922 2.13124H4.62695L4.72852 2.08098L4.70312 2.15637L4.47461 2.33226H4.42383L4.27148 2.10611L4.19531 2.03073V1.98047Z" fill="currentColor"/>
<path d="M2.24023 3.94141L2.3418 4.06705L2.54492 4.26807L2.72266 4.36859L2.69727 4.41884L2.51953 4.36859L2.36719 4.19269L2.24023 4.06705L2.21484 3.99166L2.24023 3.94141Z" fill="currentColor"/>
<path d="M2.77344 4.44141L3.05273 4.46653L3.38281 4.49166V4.51679L3.07812 4.54192L3.05273 4.59218L2.79883 4.51679L2.77344 4.44141Z" fill="currentColor"/>
<path d="M15.418 0.320312H15.5449L15.5195 0.571594L15.4941 0.49621L15.3418 0.445953L15.291 0.420825V0.345441L15.418 0.320312Z" fill="currentColor"/>
<path d="M3.58594 2.88281H4.06836L3.9668 2.93307L3.58594 2.98333L3.53516 2.9582V2.90794L3.58594 2.88281Z" fill="currentColor"/>
<path d="M15.4434 1.375L15.5449 1.42526V1.62628L15.3926 1.60115L15.3672 1.52577L15.4434 1.375Z" fill="currentColor"/>
<path d="M3.12891 4.51953H3.53516V4.54466L3.25586 4.59492L3.12891 4.56979V4.51953Z" fill="currentColor"/>
<path d="M5.43945 1.47656H5.51562L5.46484 1.57708L5.33789 1.67759H5.28711L5.3125 1.57708H5.36328V1.52682H5.43945V1.47656Z" fill="currentColor"/>
</g>
<defs>
<clipPath id="clip0_2229_17318">
<rect width="48" height="6" fill="currentColor"/>
</clipPath>
</defs>
</svg>
