<svg width="48" height="8" viewBox="0 0 48 8" fill="none" xmlns="http://www.w3.org/2000/svg">
<path d="M3.303 7.135C2.883 7.135 2.4885 7.0615 2.1195 6.9145C1.7535 6.7645 1.431 6.5455 1.152 6.2575C0.876 5.9695 0.66 5.617 0.504 5.2C0.348 4.78 0.27 4.3 0.27 3.76C0.27 3.052 0.402 2.4475 0.666 1.9465C0.93 1.4425 1.2915 1.057 1.7505 0.789999C2.2095 0.52 2.727 0.385 3.303 0.385C4.101 0.385 4.7325 0.571 5.1975 0.943C5.6655 1.312 5.982 1.831 6.147 2.5L5.04 2.6755C4.917 2.2915 4.716 1.9855 4.437 1.7575C4.158 1.5265 3.8025 1.411 3.3705 1.411C2.9355 1.405 2.574 1.4995 2.286 1.6945C1.998 1.8895 1.7805 2.164 1.6335 2.518C1.4895 2.872 1.4175 3.286 1.4175 3.76C1.4175 4.234 1.4895 4.6465 1.6335 4.9975C1.7775 5.3455 1.9935 5.617 2.2815 5.812C2.5725 6.007 2.9355 6.1075 3.3705 6.1135C3.6975 6.1165 3.984 6.058 4.23 5.938C4.476 5.815 4.677 5.6305 4.833 5.3845C4.989 5.1355 5.094 4.825 5.148 4.453H4.005V3.6025H6.3C6.306 3.6505 6.3105 3.721 6.3135 3.814C6.3165 3.907 6.318 3.9625 6.318 3.9805C6.318 4.5925 6.1965 5.137 5.9535 5.614C5.7135 6.088 5.3685 6.46 4.9185 6.73C4.4685 7 3.93 7.135 3.303 7.135ZM7.2218 7V2.14H8.1803V3.3235L8.0633 3.1705C8.1233 3.0085 8.2028 2.8615 8.3018 2.7295C8.4038 2.5945 8.5253 2.4835 8.6663 2.3965C8.7863 2.3155 8.9183 2.2525 9.0623 2.2075C9.2093 2.1595 9.3593 2.131 9.5123 2.122C9.6653 2.11 9.8138 2.116 9.9578 2.14V3.1525C9.8138 3.1105 9.6473 3.097 9.4583 3.112C9.2723 3.127 9.1043 3.1795 8.9543 3.2695C8.8043 3.3505 8.6813 3.454 8.5853 3.58C8.4923 3.706 8.4233 3.85 8.3783 4.012C8.3333 4.171 8.3108 4.3435 8.3108 4.5295V7H7.2218ZM12.9381 7.135C12.4461 7.135 12.0141 7.0285 11.6421 6.8155C11.2701 6.6025 10.9791 6.307 10.7691 5.929C10.5621 5.551 10.4586 5.116 10.4586 4.624C10.4586 4.093 10.5606 3.6325 10.7646 3.2425C10.9686 2.8495 11.2521 2.545 11.6151 2.329C11.9781 2.113 12.3981 2.005 12.8751 2.005C13.3791 2.005 13.8066 2.1235 14.1576 2.3605C14.5116 2.5945 14.7741 2.926 14.9451 3.355C15.1161 3.784 15.1806 4.2895 15.1386 4.8715H14.0631V4.4755C14.0601 3.9475 13.9671 3.562 13.7841 3.319C13.6011 3.076 13.3131 2.9545 12.9201 2.9545C12.4761 2.9545 12.1461 3.0925 11.9301 3.3685C11.7141 3.6415 11.6061 4.042 11.6061 4.57C11.6061 5.062 11.7141 5.443 11.9301 5.713C12.1461 5.983 12.4611 6.118 12.8751 6.118C13.1421 6.118 13.3716 6.0595 13.5636 5.9425C13.7586 5.8225 13.9086 5.65 14.0136 5.425L15.0846 5.749C14.8986 6.187 14.6106 6.5275 14.2206 6.7705C13.8336 7.0135 13.4061 7.135 12.9381 7.135ZM11.2641 4.8715V4.0525H14.6076V4.8715H11.2641ZM17.4138 7.135C17.0628 7.135 16.7658 7.069 16.5228 6.937C16.2798 6.802 16.0953 6.6235 15.9693 6.4015C15.8463 6.1795 15.7848 5.935 15.7848 5.668C15.7848 5.434 15.8238 5.224 15.9018 5.038C15.9798 4.849 16.0998 4.687 16.2618 4.552C16.4238 4.414 16.6338 4.3015 16.8918 4.2145C17.0868 4.1515 17.3148 4.0945 17.5758 4.0435C17.8398 3.9925 18.1248 3.946 18.4308 3.904C18.7398 3.859 19.0623 3.811 19.3983 3.76L19.0113 3.9805C19.0143 3.6445 18.9393 3.397 18.7863 3.238C18.6333 3.079 18.3753 2.9995 18.0123 2.9995C17.7933 2.9995 17.5818 3.0505 17.3778 3.1525C17.1738 3.2545 17.0313 3.43 16.9503 3.679L15.9603 3.3685C16.0803 2.9575 16.3083 2.6275 16.6443 2.3785C16.9833 2.1295 17.4393 2.005 18.0123 2.005C18.4443 2.005 18.8238 2.0755 19.1508 2.2165C19.4808 2.3575 19.7253 2.5885 19.8843 2.9095C19.9713 3.0805 20.0238 3.256 20.0418 3.436C20.0598 3.613 20.0688 3.8065 20.0688 4.0165V7H19.1193V5.947L19.2768 6.118C19.0578 6.469 18.8013 6.727 18.5073 6.892C18.2163 7.054 17.8518 7.135 17.4138 7.135ZM17.6298 6.271C17.8758 6.271 18.0858 6.2275 18.2598 6.1405C18.4338 6.0535 18.5718 5.947 18.6738 5.821C18.7788 5.695 18.8493 5.5765 18.8853 5.4655C18.9423 5.3275 18.9738 5.17 18.9798 4.993C18.9888 4.813 18.9933 4.6675 18.9933 4.5565L19.3263 4.6555C18.9993 4.7065 18.7188 4.7515 18.4848 4.7905C18.2508 4.8295 18.0498 4.867 17.8818 4.903C17.7138 4.936 17.5653 4.9735 17.4363 5.0155C17.3103 5.0605 17.2038 5.113 17.1168 5.173C17.0298 5.233 16.9623 5.302 16.9143 5.38C16.8693 5.458 16.8468 5.5495 16.8468 5.6545C16.8468 5.7745 16.8768 5.881 16.9368 5.974C16.9968 6.064 17.0838 6.136 17.1978 6.19C17.3148 6.244 17.4588 6.271 17.6298 6.271ZM24.0889 7C23.7679 7.06 23.4529 7.0855 23.1439 7.0765C22.8379 7.0705 22.5634 7.015 22.3204 6.91C22.0774 6.802 21.8929 6.6325 21.7669 6.4015C21.6559 6.1915 21.5974 5.977 21.5914 5.758C21.5854 5.539 21.5824 5.2915 21.5824 5.0155V0.789999H22.6624V4.9525C22.6624 5.1475 22.6639 5.3185 22.6669 5.4655C22.6729 5.6125 22.7044 5.7325 22.7614 5.8255C22.8694 6.0055 23.0419 6.106 23.2789 6.127C23.5159 6.148 23.7859 6.136 24.0889 6.091V7ZM20.7004 2.9905V2.14H24.0889V2.9905H20.7004ZM25.2239 7V0.385H26.3084V7H25.2239ZM29.8659 7.135C29.3739 7.135 28.9419 7.0285 28.5699 6.8155C28.1979 6.6025 27.9069 6.307 27.6969 5.929C27.4899 5.551 27.3864 5.116 27.3864 4.624C27.3864 4.093 27.4884 3.6325 27.6924 3.2425C27.8964 2.8495 28.1799 2.545 28.5429 2.329C28.9059 2.113 29.3259 2.005 29.8029 2.005C30.3069 2.005 30.7344 2.1235 31.0854 2.3605C31.4394 2.5945 31.7019 2.926 31.8729 3.355C32.0439 3.784 32.1084 4.2895 32.0664 4.8715H30.9909V4.4755C30.9879 3.9475 30.8949 3.562 30.7119 3.319C30.5289 3.076 30.2409 2.9545 29.8479 2.9545C29.4039 2.9545 29.0739 3.0925 28.8579 3.3685C28.6419 3.6415 28.5339 4.042 28.5339 4.57C28.5339 5.062 28.6419 5.443 28.8579 5.713C29.0739 5.983 29.3889 6.118 29.8029 6.118C30.0699 6.118 30.2994 6.0595 30.4914 5.9425C30.6864 5.8225 30.8364 5.65 30.9414 5.425L32.0124 5.749C31.8264 6.187 31.5384 6.5275 31.1484 6.7705C30.7614 7.0135 30.3339 7.135 29.8659 7.135ZM28.1919 4.8715V4.0525H31.5354V4.8715H28.1919ZM34.3415 7.135C33.9905 7.135 33.6935 7.069 33.4505 6.937C33.2075 6.802 33.023 6.6235 32.897 6.4015C32.774 6.1795 32.7125 5.935 32.7125 5.668C32.7125 5.434 32.7515 5.224 32.8295 5.038C32.9075 4.849 33.0275 4.687 33.1895 4.552C33.3515 4.414 33.5615 4.3015 33.8195 4.2145C34.0145 4.1515 34.2425 4.0945 34.5035 4.0435C34.7675 3.9925 35.0525 3.946 35.3585 3.904C35.6675 3.859 35.99 3.811 36.326 3.76L35.939 3.9805C35.942 3.6445 35.867 3.397 35.714 3.238C35.561 3.079 35.303 2.9995 34.94 2.9995C34.721 2.9995 34.5095 3.0505 34.3055 3.1525C34.1015 3.2545 33.959 3.43 33.878 3.679L32.888 3.3685C33.008 2.9575 33.236 2.6275 33.572 2.3785C33.911 2.1295 34.367 2.005 34.94 2.005C35.372 2.005 35.7515 2.0755 36.0785 2.2165C36.4085 2.3575 36.653 2.5885 36.812 2.9095C36.899 3.0805 36.9515 3.256 36.9695 3.436C36.9875 3.613 36.9965 3.8065 36.9965 4.0165V7H36.047V5.947L36.2045 6.118C35.9855 6.469 35.729 6.727 35.435 6.892C35.144 7.054 34.7795 7.135 34.3415 7.135ZM34.5575 6.271C34.8035 6.271 35.0135 6.2275 35.1875 6.1405C35.3615 6.0535 35.4995 5.947 35.6015 5.821C35.7065 5.695 35.777 5.5765 35.813 5.4655C35.87 5.3275 35.9015 5.17 35.9075 4.993C35.9165 4.813 35.921 4.6675 35.921 4.5565L36.254 4.6555C35.927 4.7065 35.6465 4.7515 35.4125 4.7905C35.1785 4.8295 34.9775 4.867 34.8095 4.903C34.6415 4.936 34.493 4.9735 34.364 5.0155C34.238 5.0605 34.1315 5.113 34.0445 5.173C33.9575 5.233 33.89 5.302 33.842 5.38C33.797 5.458 33.7745 5.5495 33.7745 5.6545C33.7745 5.7745 33.8045 5.881 33.8645 5.974C33.9245 6.064 34.0115 6.136 34.1255 6.19C34.2425 6.244 34.3865 6.271 34.5575 6.271ZM40.1166 7.135C39.6696 7.135 39.2796 7.0225 38.9466 6.7975C38.6136 6.5725 38.3556 6.2665 38.1726 5.8795C37.9896 5.4925 37.8981 5.056 37.8981 4.57C37.8981 4.078 37.9896 3.64 38.1726 3.256C38.3586 2.869 38.6211 2.5645 38.9601 2.3425C39.2991 2.1175 39.6981 2.005 40.1571 2.005C40.6191 2.005 41.0061 2.1175 41.3181 2.3425C41.6331 2.5645 41.8716 2.869 42.0336 3.256C42.1956 3.643 42.2766 4.081 42.2766 4.57C42.2766 5.053 42.1956 5.4895 42.0336 5.8795C41.8716 6.2665 41.6301 6.5725 41.3091 6.7975C40.9881 7.0225 40.5906 7.135 40.1166 7.135ZM40.2831 6.163C40.5741 6.163 40.8081 6.097 40.9851 5.965C41.1651 5.83 41.2956 5.6425 41.3766 5.4025C41.4606 5.1625 41.5026 4.885 41.5026 4.57C41.5026 4.252 41.4606 3.9745 41.3766 3.7375C41.2956 3.4975 41.1681 3.3115 40.9941 3.1795C40.8201 3.0445 40.5951 2.977 40.3191 2.977C40.0281 2.977 39.7881 3.049 39.5991 3.193C39.4101 3.334 39.2706 3.526 39.1806 3.769C39.0906 4.009 39.0456 4.276 39.0456 4.57C39.0456 4.867 39.0891 5.137 39.1761 5.38C39.2661 5.62 39.4026 5.8105 39.5856 5.9515C39.7686 6.0925 40.0011 6.163 40.2831 6.163ZM41.5026 7V3.589H41.3676V0.52H42.4611V7H41.5026ZM45.5993 7.135C44.9993 7.135 44.5118 7 44.1368 6.73C43.7618 6.46 43.5338 6.0805 43.4528 5.5915L44.5598 5.4205C44.6168 5.6605 44.7428 5.8495 44.9378 5.9875C45.1328 6.1255 45.3788 6.1945 45.6758 6.1945C45.9368 6.1945 46.1378 6.1435 46.2788 6.0415C46.4228 5.9365 46.4948 5.794 46.4948 5.614C46.4948 5.503 46.4678 5.4145 46.4138 5.3485C46.3628 5.2795 46.2488 5.2135 46.0718 5.1505C45.8948 5.0875 45.6233 5.008 45.2573 4.912C44.8493 4.804 44.5253 4.6885 44.2853 4.5655C44.0453 4.4395 43.8728 4.291 43.7678 4.12C43.6628 3.949 43.6103 3.742 43.6103 3.499C43.6103 3.196 43.6898 2.932 43.8488 2.707C44.0078 2.482 44.2298 2.3095 44.5148 2.1895C44.7998 2.0665 45.1358 2.005 45.5228 2.005C45.9008 2.005 46.2353 2.0635 46.5263 2.1805C46.8203 2.2975 47.0573 2.464 47.2373 2.68C47.4173 2.896 47.5283 3.1495 47.5703 3.4405L46.4633 3.6385C46.4363 3.4315 46.3418 3.268 46.1798 3.148C46.0208 3.028 45.8078 2.9605 45.5408 2.9455C45.2858 2.9305 45.0803 2.9695 44.9243 3.0625C44.7683 3.1525 44.6903 3.28 44.6903 3.445C44.6903 3.538 44.7218 3.6175 44.7848 3.6835C44.8478 3.7495 44.9738 3.8155 45.1628 3.8815C45.3548 3.9475 45.6398 4.0285 46.0178 4.1245C46.4048 4.2235 46.7138 4.3375 46.9448 4.4665C47.1788 4.5925 47.3468 4.744 47.4488 4.921C47.5538 5.098 47.6063 5.3125 47.6063 5.5645C47.6063 6.0535 47.4278 6.4375 47.0708 6.7165C46.7168 6.9955 46.2263 7.135 45.5993 7.135Z" fill="white"/>
</svg>
