<svg width="48" height="12" viewBox="0 0 48 12" fill="none" xmlns="http://www.w3.org/2000/svg">
<path d="M12.5039 0.914062C18.3567 0.914062 18.3567 0.914062 19.9449 2.49985C19.9992 2.55353 19.9992 2.55353 20.0547 2.60781C20.911 3.52147 21.252 4.84012 21.2221 6.06422C21.1452 7.44752 20.5951 8.66614 19.5942 9.62432C17.6321 11.2979 14.9155 10.8558 12.5039 10.8558C12.5039 7.57499 12.5039 4.29424 12.5039 0.914062ZM14.5776 2.86581C14.5776 4.83829 14.5776 6.81077 14.5776 8.84302C16.5879 8.9278 16.5879 8.9278 18.2981 8.05012C18.9904 7.25418 19.1496 6.41249 19.1032 5.38843C19.0764 5.07066 18.9843 4.79803 18.8471 4.51259C18.8221 4.45953 18.7964 4.40646 18.7708 4.35218C18.403 3.66846 17.8084 3.23176 17.0783 2.98779C16.2208 2.81152 16.2208 2.81152 14.5776 2.86581Z" fill="currentColor"/>
<path d="M46.6116 3.64704C47.3826 4.29965 47.8327 5.17184 47.9803 6.16662C48.0169 6.62833 47.9961 7.04246 47.9382 7.50478C44.949 7.53528 44.949 7.53528 41.9 7.56577C42.1434 8.23546 42.3398 8.60752 42.9253 8.96798C43.4931 9.22963 44.172 9.25037 44.763 9.05215C45.3387 8.80696 45.6547 8.45626 45.9865 7.93172C46.3597 8.03846 46.697 8.21595 47.0422 8.38916C47.1044 8.41966 47.166 8.45016 47.2295 8.48126C47.2886 8.51054 47.3472 8.53981 47.4076 8.57031C47.4612 8.59715 47.5149 8.62337 47.5698 8.65082C47.6942 8.72462 47.6942 8.72462 47.7552 8.8466C47.2795 9.7627 46.5342 10.4452 45.5595 10.7983C45.4625 10.8343 45.4625 10.8343 45.3637 10.8709C44.2012 11.2405 42.935 11.1295 41.8543 10.5769C40.8564 10.0317 40.2435 9.17352 39.9025 8.10311C39.6055 7.03331 39.7445 5.86593 40.2532 4.88213C40.8387 3.87088 41.7067 3.22802 42.8185 2.91148C44.1396 2.60042 45.5205 2.82426 46.6116 3.64704ZM42.1781 5.49571C42.0299 5.69393 42.0134 5.77749 41.961 6.04097C43.2693 6.04097 44.5775 6.04097 45.9255 6.04097C45.7315 5.45972 45.4345 5.10536 44.8886 4.82113C43.906 4.39358 42.8417 4.66134 42.1781 5.49571Z" fill="currentColor"/>
<path d="M9.63415 3.34767C9.71771 3.40927 9.80005 3.47087 9.88178 3.5343C9.9446 3.57822 10.0074 3.62274 10.0727 3.66787C10.6003 4.12653 10.8875 4.87003 10.9796 5.54704C10.9882 5.7233 10.9876 5.89957 10.987 6.07584C10.987 6.12768 10.987 6.17952 10.987 6.23259C10.987 6.40336 10.9863 6.57353 10.9857 6.7437C10.9857 6.86202 10.9857 6.98035 10.9857 7.09928C10.9851 7.41034 10.9845 7.72079 10.9839 8.03185C10.9833 8.34962 10.9833 8.66739 10.9827 8.98515C10.9821 9.60788 10.9809 10.2306 10.9796 10.8533C10.2953 10.8533 9.61098 10.8533 8.90591 10.8533C8.9053 10.7088 8.90469 10.5636 8.90408 10.4142C8.90225 9.93419 8.89859 9.45357 8.89493 8.97356C8.89249 8.68202 8.89066 8.39109 8.88944 8.10016C8.88883 7.81899 8.88639 7.53781 8.88334 7.25664C8.88273 7.1499 8.88212 7.04256 8.88212 6.93582C8.89615 6.03558 8.89615 6.03558 8.46006 5.2805C7.99286 4.99811 7.62508 4.93956 7.07615 4.99811C6.62542 5.11399 6.19604 5.40492 5.95695 5.80808C5.78007 6.18989 5.72701 6.5345 5.72213 6.95534C5.72152 6.99743 5.72091 7.03951 5.7203 7.08342C5.71847 7.22249 5.71664 7.36094 5.71542 7.5C5.7142 7.59698 5.71237 7.69334 5.71115 7.79032C5.7081 8.04405 5.70505 8.29777 5.702 8.5515C5.69834 8.85646 5.69407 9.16081 5.69041 9.46577C5.68431 9.9287 5.67883 10.391 5.67334 10.8533C4.98901 10.8533 4.30468 10.8533 3.59961 10.8533C3.59961 8.27704 3.59961 5.70074 3.59961 3.04637C4.24368 3.04637 4.88776 3.04637 5.55135 3.04637C5.55135 3.26777 5.55135 3.48917 5.55135 3.71728C5.60381 3.68068 5.65626 3.64409 5.71054 3.60566C6.85841 2.82009 8.40151 2.56026 9.63415 3.34767Z" fill="currentColor"/>
<path d="M31.7168 3.04688C32.4615 3.04688 33.2062 3.04688 33.9735 3.04688C34.0253 3.20301 34.0772 3.35854 34.1302 3.51956C34.498 4.62718 34.8676 5.73357 35.244 6.83874C35.2812 6.94853 35.3184 7.05832 35.3556 7.1681C35.408 7.3218 35.4605 7.47489 35.5123 7.62859C35.5282 7.67372 35.5434 7.71886 35.5593 7.76582C35.6288 7.96893 35.6996 8.16471 35.8033 8.35318C36.4223 6.58746 37.0316 4.81869 37.633 3.04688C38.3777 3.04688 39.1224 3.04688 39.8897 3.04688C39.5561 4.0136 39.2127 4.97605 38.8602 5.93667C38.8108 6.07269 38.7608 6.20931 38.7107 6.34593C38.6071 6.62771 38.504 6.91011 38.4003 7.19189C38.2686 7.55113 38.1368 7.91098 38.0057 8.27023C37.9044 8.54652 37.8032 8.82342 37.7019 9.10033C37.6538 9.23207 37.6056 9.36381 37.5574 9.49555C37.4903 9.67792 37.4232 9.8609 37.3561 10.0439C37.3366 10.0975 37.3171 10.1518 37.297 10.2073C37.2695 10.2824 37.2695 10.2824 37.2414 10.358C37.2256 10.4013 37.2097 10.444 37.1939 10.4885C37.1439 10.6135 37.0835 10.7337 37.0231 10.8538C36.218 10.8538 35.4129 10.8538 34.5834 10.8538C34.4004 10.4141 34.2205 9.97861 34.0577 9.53154C34.0375 9.47665 34.0174 9.42175 33.9967 9.36564C33.9302 9.1845 33.8643 9.00335 33.7978 8.8222C33.7509 8.69351 33.7039 8.56482 33.657 8.43612C33.5545 8.15617 33.452 7.87622 33.3496 7.59565C33.2148 7.22726 33.08 6.85826 32.9452 6.48987C32.7994 6.09342 32.6549 5.69698 32.5097 5.30053C32.4463 5.12731 32.3828 4.95409 32.3194 4.78088C32.2444 4.57594 32.1694 4.3704 32.0943 4.16547C32.0529 4.05263 32.012 3.94041 31.9705 3.82818C31.9461 3.76048 31.9211 3.69339 31.8961 3.62386C31.8638 3.53603 31.8638 3.53603 31.8309 3.44576C31.7778 3.29084 31.7778 3.29084 31.7168 3.04688Z" fill="currentColor"/>
<path d="M26.7564 2.85339C26.8229 2.85278 26.8229 2.85278 26.8906 2.85156C27.176 2.85339 27.348 2.8967 27.6292 2.99062C27.6292 3.69508 27.6292 4.39954 27.6292 5.12534C27.3071 5.10522 26.9851 5.08509 26.6533 5.06435C26.0513 5.16438 25.5012 5.35284 25.1059 5.842C24.7827 6.31896 24.6363 6.83129 24.6284 7.40339C24.6272 7.48024 24.6259 7.55709 24.6247 7.63638C24.6235 7.71994 24.6223 7.80289 24.6217 7.88645C24.6205 7.97184 24.6186 8.05784 24.6174 8.14383C24.6144 8.36829 24.6113 8.59335 24.6083 8.81841C24.6052 9.04835 24.6015 9.27768 24.5985 9.50762C24.5918 9.95774 24.5857 10.4085 24.5796 10.8586C23.8953 10.8586 23.2109 10.8586 22.5059 10.8586C22.5059 8.28229 22.5059 5.70599 22.5059 3.05162C23.1499 3.05162 23.794 3.05162 24.4576 3.05162C24.4881 3.38341 24.4881 3.38341 24.5186 3.72253C24.5857 3.65849 24.6522 3.59444 24.7205 3.52796C25.3115 3.01258 25.9952 2.86071 26.7564 2.85339Z" fill="currentColor"/>
<path d="M28.666 3.04688C29.3503 3.04688 30.0347 3.04688 30.7397 3.04688C30.7397 5.62318 30.7397 8.19948 30.7397 10.8538C30.0554 10.8538 29.3711 10.8538 28.666 10.8538C28.666 8.27754 28.666 5.70124 28.666 3.04688Z" fill="currentColor"/>
<path d="M0 3.04688C0.68433 3.04688 1.36866 3.04688 2.07373 3.04688C2.07373 5.62318 2.07373 8.19948 2.07373 10.8538C1.3894 10.8538 0.705067 10.8538 0 10.8538C0 8.27754 0 5.70124 0 3.04688Z" fill="currentColor"/>
<path d="M28.666 0C29.3503 0 30.0347 0 30.7397 0C30.7397 0.68433 30.7397 1.36866 30.7397 2.07373C30.0554 2.07373 29.3711 2.07373 28.666 2.07373C28.666 1.3894 28.666 0.705067 28.666 0Z" fill="currentColor"/>
<path d="M0 0C0.68433 0 1.36866 0 2.07373 0C2.07373 0.68433 2.07373 1.36866 2.07373 2.07373C1.3894 2.07373 0.705067 2.07373 0 2.07373C0 1.3894 0 0.705067 0 0Z" fill="currentColor"/>
</svg>
