<svg width="48" height="10" viewBox="0 0 48 10" fill="currentColor" xmlns="http://www.w3.org/2000/svg">
<path d="M40.8476 0.09375H41.5035L42.253 0.140595V3.84136H46.4222V2.29547L46.469 0.09375H47.9212L47.9681 0.140595V9.1817H46.469L46.4222 5.10618H42.253V9.1817H40.8008V0.140595L40.8476 0.09375Z" fill="currentColor"/>
<path d="M24.8281 0.09375H28.6225L29.9342 0.140595L29.9811 0.18744V1.31172L29.9342 1.35857H26.3271V3.84136H29.7L29.7468 3.8882V5.01249L29.7 5.05933H26.3271V7.96373H29.9342L29.9811 8.05742V9.13485L29.9342 9.1817L24.9218 9.22854L24.8281 9.1817L24.7812 8.99432V0.140595L24.8281 0.09375Z" fill="currentColor"/>
<path d="M3.23242 0.140625H4.73146L5.29361 1.82705L6.04313 4.02877L6.7458 6.1368L7.02687 7.12054L7.12056 7.54215L7.21426 7.58899L7.30795 6.98001L7.63586 5.80888L8.29169 3.88823L9.32228 0.843301L9.55651 0.18747L9.60335 0.140625H11.1024L10.9619 0.609076L10.1655 2.85764L9.36913 5.15305L8.76014 6.88632L8.05747 8.90066L7.91693 9.18173H6.37104L6.08997 8.43221L5.24676 5.99626L4.26301 3.18556L3.46665 0.890146L3.23242 0.234315V0.140625Z" fill="currentColor"/>
<path d="M35.5094 0H36.8679L37.8048 0.18738L38.6012 0.468451L38.7417 0.562141L38.6012 0.983747L38.2732 1.78011L37.8516 1.63958L37.2427 1.40535L36.4931 1.26482H35.931L35.3689 1.35851L34.8067 1.59273L34.3851 1.92065L34.104 2.24856L33.8698 2.62333L33.5887 3.37285L33.4482 4.2629V5.15296L33.5887 5.99617L33.8698 6.79254L34.2446 7.30784L34.5725 7.58891L35.2283 7.91682L35.6031 8.01051H36.821L37.9922 7.77629L38.4138 7.6826L38.4606 7.82313L38.4138 8.90057L38.0859 9.0411L37.2895 9.22848L36.4463 9.32217H35.6031L34.713 9.18164L33.9635 8.90057L33.495 8.6195L33.0266 8.19789L32.6987 7.82313L32.3708 7.26099L32.1365 6.652L31.9492 5.85564L31.9023 5.57457L31.8555 4.54397L31.9492 3.46654L32.1834 2.62333L32.5581 1.82696L33.0266 1.21797L33.3545 0.890057L34.0572 0.421606L34.6662 0.18738L35.5094 0Z" fill="currentColor"/>
<path d="M16.2558 0.09375H21.4088L23.0484 0.140595V1.35857L20.425 1.40541L20.3782 9.1817L18.9728 9.22854L18.8792 9.1817V1.35857H16.209V0.140595L16.2558 0.09375Z" fill="currentColor"/>
<path d="M12.7422 0.09375H14.1475L14.1944 0.140595V9.13485L14.1475 9.1817H12.6953V0.140595L12.7422 0.09375Z" fill="currentColor"/>
<path d="M0.0468451 0.140625H1.4522V9.18173H0.0468451L0 9.08804V0.37485L0.0468451 0.140625Z" fill="currentColor"/>
</svg>
