<svg width="45" height="9" viewBox="0 0 45 9" fill="none" xmlns="http://www.w3.org/2000/svg">
<path d="M0.351697 6.53147C0.144286 6.44562 0 6.24797 0 6.04167C0 5.74942 0.243482 5.52599 0.568098 5.52599C0.712383 5.52599 0.847677 5.55174 1.00095 5.55174C1.34366 5.55174 1.56006 5.33697 1.56006 4.98459V1.32347C1.56006 0.988294 1.81256 0.730469 2.17325 0.730469C2.52494 0.730469 2.77744 0.988294 2.77744 1.32347V4.99322C2.77744 6.05879 2.14622 6.60882 0.910802 6.60882C0.676312 6.60882 0.495982 6.58307 0.351697 6.53147Z" fill="currentColor"/>
<path d="M3.9668 4.63142V2.7407C3.9668 2.40552 4.22829 2.15625 4.57998 2.15625C4.92264 2.15625 5.18421 2.40552 5.18421 2.7407V4.72587C5.18421 5.19858 5.5359 5.54243 6.03188 5.54243C6.51879 5.54243 6.86145 5.19858 6.86145 4.72587V2.7407C6.86145 2.40552 7.11397 2.15625 7.47471 2.15625C7.81736 2.15625 8.07885 2.40552 8.07885 2.7407V4.63142C8.07885 5.8002 7.23118 6.60797 6.03188 6.60797C4.81447 6.60797 3.9668 5.8002 3.9668 4.63142Z" fill="currentColor"/>
<path d="M10.6138 0.70471C10.6138 1.09149 10.2621 1.40086 9.85636 1.40086C9.43258 1.40086 9.08984 1.09149 9.08984 0.70471C9.08984 0.309375 9.43258 0 9.85636 0C10.2621 0 10.6138 0.309375 10.6138 0.70471ZM9.24317 6.01586V2.74156C9.24317 2.40638 9.50467 2.15711 9.85636 2.15711C10.199 2.15711 10.4606 2.40638 10.4606 2.74156V6.01586C10.4606 6.35108 10.199 6.60886 9.84732 6.60886C9.50467 6.60886 9.24317 6.35108 9.24317 6.01586Z" fill="currentColor"/>
<path d="M11.416 4.37353C11.416 3.1274 12.4621 2.15625 13.8057 2.15625C14.5632 2.15625 15.2666 2.50005 15.6092 2.99848C15.6904 3.1188 15.7175 3.21337 15.7175 3.3079C15.7175 3.59148 15.474 3.8235 15.1764 3.8235C15.005 3.8235 14.8699 3.77202 14.7616 3.64307C14.5362 3.38525 14.2205 3.21338 13.8237 3.21338C13.1384 3.21338 12.6514 3.69468 12.6514 4.37353C12.6514 5.06113 13.1384 5.54243 13.8237 5.54243C14.2115 5.54243 14.5181 5.3705 14.7616 5.1126C14.8878 4.97515 15.014 4.93218 15.1764 4.93218C15.474 4.93218 15.7175 5.1642 15.7175 5.44785C15.7175 5.55093 15.6904 5.63687 15.6184 5.73997C15.2485 6.2815 14.5992 6.60797 13.8057 6.60797C12.4621 6.60797 11.416 5.61978 11.416 4.37353Z" fill="currentColor"/>
<path d="M20.8944 2.7149C20.8944 2.80085 20.8762 2.88675 20.8221 2.98128L18.8563 6.8229C18.3783 7.75965 17.8372 8.15498 17.0256 8.15498C16.8271 8.15498 16.647 8.12062 16.5116 8.0604C16.3223 7.98305 16.2051 7.80263 16.2051 7.60495C16.2051 7.32133 16.4485 7.10652 16.7551 7.10652C16.8003 7.10652 16.8363 7.11503 16.8634 7.11503C17.2512 7.11503 17.5125 6.96035 17.711 6.57363L17.8732 6.2299L16.3313 2.9899C16.2771 2.88675 16.25 2.80085 16.25 2.7149C16.25 2.41408 16.5206 2.15625 16.8453 2.15625C17.0798 2.15625 17.2872 2.27657 17.3774 2.48287L18.5587 5.0009L19.767 2.48287C19.8572 2.2852 20.0646 2.15625 20.3081 2.15625C20.6236 2.15625 20.8944 2.41408 20.8944 2.7149Z" fill="currentColor"/>
<path d="M21.6337 5.62828C21.5796 5.56818 21.5527 5.49946 21.5527 5.42211C21.5527 5.25018 21.706 5.11261 21.8864 5.11261C21.9944 5.11261 22.0846 5.15561 22.1569 5.24156C22.5536 5.72286 23.0584 5.98063 23.6358 5.98063C24.3572 5.98063 24.8352 5.59393 24.8352 5.03528C24.8352 4.61421 24.6096 4.38216 23.8432 4.03843L23.1757 3.73756C22.2289 3.30793 21.8322 2.85241 21.8322 2.21643C21.8322 1.36566 22.5986 0.738281 23.6266 0.738281C24.2938 0.738281 24.8531 0.978881 25.2679 1.41718C25.367 1.52033 25.3941 1.61486 25.3941 1.69221C25.3941 1.84688 25.2319 1.99303 25.0605 1.99303C24.9703 1.99303 24.8891 1.95003 24.817 1.88126C24.4923 1.53751 24.0775 1.35703 23.6176 1.35703C22.9864 1.35703 22.5626 1.68358 22.5626 2.18206C22.5626 2.58603 22.7521 2.78363 23.5185 3.13606L24.1768 3.43681C25.1777 3.89238 25.5655 4.33918 25.5655 5.01816C25.5655 5.94628 24.781 6.59951 23.6447 6.59951C22.8781 6.59951 22.1027 6.22991 21.6337 5.62828Z" fill="currentColor"/>
<path d="M26.5664 4.40941C26.5664 3.18911 27.5854 2.22656 28.8658 2.22656C29.6595 2.22656 30.2908 2.58754 30.6515 3.10314C30.7057 3.18049 30.7146 3.23209 30.7146 3.28364C30.7146 3.44694 30.5703 3.58439 30.3989 3.58439C30.3179 3.58439 30.2366 3.56726 30.1465 3.46414C29.8488 3.11176 29.4429 2.83676 28.875 2.83676C27.9732 2.83676 27.2789 3.51566 27.2789 4.40941C27.2789 5.31181 27.964 5.99079 28.875 5.99079C29.4429 5.99079 29.8488 5.71576 30.1465 5.36341C30.2366 5.26881 30.3179 5.25171 30.3899 5.25171C30.5703 5.25171 30.7146 5.38066 30.7146 5.55246C30.7146 5.60406 30.7057 5.65566 30.6515 5.73301C30.2816 6.24006 29.6595 6.60104 28.8658 6.60104C27.5854 6.60104 26.5664 5.62981 26.5664 4.40941Z" fill="currentColor"/>
<path d="M36.0444 4.40941C36.0444 5.62131 35.0251 6.59241 33.7358 6.59241C32.4552 6.58379 31.4453 5.62131 31.4453 4.40941C31.4453 3.18049 32.4552 2.22656 33.7447 2.22656C35.0251 2.22656 36.0444 3.18911 36.0444 4.40941ZM32.1575 4.41804C32.1575 5.31181 32.834 5.98216 33.7358 5.98216C34.6376 5.98216 35.3319 5.30331 35.3319 4.41804C35.3319 3.51566 34.6465 2.83676 33.7447 2.83676C32.834 2.83676 32.1486 3.51566 32.1575 4.41804Z" fill="currentColor"/>
<path d="M39.6784 2.59611C39.6784 2.78516 39.5251 2.90549 39.3266 2.90549C38.5332 2.90549 37.9561 3.42976 37.9561 4.14304V6.25716C37.9561 6.45484 37.8028 6.60104 37.6135 6.60104C37.4061 6.60104 37.2617 6.44634 37.2617 6.25716V2.57031C37.2617 2.38126 37.4061 2.22656 37.6135 2.22656C37.8028 2.22656 37.9561 2.38126 37.9561 2.57031V2.87974C38.2808 2.51014 38.7677 2.28674 39.3266 2.28674C39.5251 2.28674 39.6784 2.41561 39.6784 2.59611Z" fill="currentColor"/>
<path d="M44.3665 4.16029V4.20326C44.3665 4.47829 44.2132 4.61571 43.9427 4.61571H40.8406C40.9307 5.44076 41.5709 5.99079 42.4546 5.99079C42.8876 5.99079 43.2843 5.84471 43.6001 5.58681C43.6721 5.52671 43.7534 5.49236 43.8343 5.49236C44.0057 5.49236 44.1412 5.61269 44.1412 5.78449C44.1412 5.89631 44.0959 5.97366 43.9697 6.08536C43.5367 6.42911 43.0138 6.60104 42.4456 6.60104C41.1111 6.60104 40.1191 5.66416 40.1191 4.41804C40.1191 3.18911 41.1111 2.22656 42.3647 2.22656C43.5278 2.22656 44.3665 3.03444 44.3665 4.16029ZM40.8676 4.03134H43.654C43.6361 3.32661 43.1129 2.82814 42.3465 2.82814C41.598 2.82814 41.0209 3.31799 40.8676 4.03134Z" fill="currentColor"/>
</svg>
