<svg width="44" height="9" viewBox="0 0 44 9" fill="none" xmlns="http://www.w3.org/2000/svg">
<g clip-path="url(#clip0_2126_17305)">
<path d="M20.4904 4.54731C20.4904 5.8252 20.4866 7.10308 20.4941 8.38092C20.4941 8.56785 20.4418 8.62126 20.2626 8.61363C19.9191 8.60217 19.5794 8.606 19.2359 8.61363C19.1053 8.61743 19.0567 8.56785 19.0642 8.43817C19.0717 8.22835 19.0679 8.01853 19.0642 7.80876C19.0642 7.75918 19.0306 7.70956 19.0157 7.65998C18.9784 7.6905 18.9298 7.7134 18.9074 7.75155C18.3997 8.51444 17.6455 8.7662 16.8055 8.7624C15.1927 8.75094 14.0951 7.71719 13.8151 6.21047C13.6657 5.40177 13.718 4.60073 14.0652 3.84544C14.5505 2.78881 15.3532 2.18229 16.5068 2.07549C17.2423 2.01064 17.9143 2.17085 18.5042 2.63623C18.6125 2.72015 18.7021 2.83077 18.8029 2.92232C18.8402 2.95665 18.8887 2.98335 18.9335 3.01387C18.9485 2.95665 18.9858 2.89943 18.9858 2.84221C18.9895 2.14415 18.9895 1.44227 18.9895 0.744211C18.9895 0.481008 18.9895 0.481008 19.2397 0.481008C19.5869 0.481008 19.9378 0.488634 20.285 0.477193C20.453 0.469562 20.4941 0.530594 20.4941 0.694621C20.4866 1.98012 20.4904 3.26181 20.4904 4.54731ZM19.0306 5.41323C19.0306 4.27649 18.2317 3.43347 17.1602 3.42202C16.1372 3.41439 15.2375 4.1773 15.245 5.4094C15.2524 6.65296 16.1596 7.38153 17.1415 7.38153C18.2205 7.38153 19.0269 6.54234 19.0306 5.41323Z" fill="currentColor"/>
<path d="M43.4982 4.56594C43.4982 5.82473 43.4982 7.08355 43.4982 8.34234C43.4982 8.60937 43.4982 8.60937 43.2295 8.60937C42.9196 8.60937 42.6062 8.60174 42.2963 8.61316C42.1469 8.617 42.0797 8.57121 42.0871 8.41101C42.0983 8.2012 42.0909 7.99142 42.0871 7.7816C42.0871 7.73965 42.0535 7.69767 42.0311 7.65192C41.9975 7.67482 41.9528 7.69387 41.9304 7.72439C41.4935 8.40718 40.84 8.67804 40.0824 8.73905C39.134 8.81535 38.2977 8.54832 37.6257 7.84265C37.1515 7.34675 36.9014 6.73643 36.8043 6.06123C36.6961 5.32124 36.7446 4.58883 37.0545 3.8984C37.5398 2.81125 38.3462 2.17423 39.5335 2.07123C40.1866 2.01401 40.7952 2.13227 41.3441 2.50609C41.512 2.62053 41.654 2.78074 41.8107 2.91425C41.8555 2.95239 41.908 2.97528 41.9601 3.0058C41.9786 2.94858 42.0126 2.89136 42.0126 2.83033C42.0199 2.55568 42.016 2.28485 42.016 2.0102C42.016 1.5639 42.0199 1.12141 42.0126 0.675108C42.0087 0.526342 42.0573 0.472937 42.2067 0.476752C42.5688 0.484382 42.9269 0.488198 43.2893 0.476752C43.4534 0.472937 43.502 0.530157 43.502 0.69418C43.4947 1.98731 43.4982 3.27663 43.4982 4.56594ZM40.1495 7.38106C41.2322 7.3849 42.0608 6.52661 42.0608 5.40134C42.0608 4.28365 41.236 3.42539 40.168 3.42158C39.0854 3.42158 38.2678 4.2646 38.2641 5.38224C38.2566 6.52661 39.063 7.38106 40.1495 7.38106Z" fill="currentColor"/>
<path d="M0.472482 4.54356C0.472482 3.2657 0.476215 1.98782 0.46875 0.70995C0.46875 0.523035 0.52475 0.469634 0.700221 0.477261C1.04742 0.488706 1.39836 0.488706 1.74556 0.477261C1.92477 0.469634 1.98077 0.523035 1.97704 0.70995C1.96957 1.97638 1.9733 3.23899 1.9733 4.50541C1.9733 4.55502 1.96957 4.6084 1.9733 4.65801C1.98077 4.71902 1.99944 4.77627 2.01437 4.83348C2.0629 4.80295 2.12264 4.78006 2.1637 4.73811C2.75358 4.09344 3.35092 3.45261 3.92959 2.79651C4.43733 2.22432 4.42988 2.21669 5.17282 2.21669C5.51629 2.21669 5.85602 2.21669 6.19949 2.21669C6.2443 2.21669 6.28907 2.23958 6.33388 2.25102C6.30775 2.28536 6.28537 2.3235 6.2555 2.35402C5.46029 3.21229 4.66879 4.07438 3.86985 4.92884C3.75039 5.05472 3.73919 5.13482 3.85493 5.27596C4.73973 6.34403 5.61337 7.41972 6.4907 8.49162C6.51309 8.51831 6.52802 8.55267 6.54671 8.58315C6.51309 8.59078 6.47577 8.60225 6.44215 8.60225C5.87096 8.60225 5.29603 8.60988 4.7248 8.59461C4.63521 8.59078 4.51946 8.51068 4.45972 8.43058C3.72426 7.47693 2.99625 6.51949 2.26451 5.56205C2.19357 5.47052 2.10397 5.40184 2.02184 5.32174C2.0069 5.43616 1.97704 5.55062 1.97704 5.66504C1.9733 6.55001 1.9733 7.43119 1.9733 8.31616C1.9733 8.60225 1.9733 8.60225 1.68583 8.60225C1.34983 8.60225 1.01383 8.59461 0.677819 8.60604C0.513549 8.6213 0.46875 8.56409 0.46875 8.39626C0.476215 7.11075 0.472482 5.82907 0.472482 4.54356Z" fill="currentColor"/>
<path d="M13.0076 5.42531C13.0188 7.21436 11.7383 8.60666 9.96488 8.73637C9.1921 8.79358 8.46409 8.67533 7.79205 8.27863C6.84007 7.71789 6.32484 6.85197 6.22777 5.74196C6.1419 4.76921 6.38085 3.88807 7.03046 3.14805C7.56059 2.54535 8.24008 2.2173 9.00915 2.09905C9.84917 1.96935 10.6668 2.07235 11.4097 2.51102C12.4177 3.10609 12.9479 4.01396 13.0001 5.20407C13.0001 5.27274 13.0039 5.33758 13.0076 5.42531ZM7.72115 5.39483C7.72115 6.53153 8.52009 7.37839 9.59528 7.38219C10.6817 7.38602 11.5105 6.53916 11.518 5.41389C11.5254 4.29624 10.6929 3.43032 9.61021 3.42651C8.53129 3.42651 7.72115 4.26952 7.72115 5.39483Z" fill="currentColor"/>
<path d="M29.5365 6.38309C29.5365 7.05061 29.5328 7.71818 29.5403 8.38571C29.544 8.55737 29.4955 8.62221 29.32 8.61458C29.0214 8.59932 28.7227 8.59932 28.424 8.61458C28.2448 8.62221 28.1963 8.55354 28.2075 8.38191C28.2187 8.21025 28.2112 8.03858 28.2075 7.86691C28.2075 7.82117 28.1776 7.77539 28.1627 7.72961C28.1216 7.7525 28.0693 7.76392 28.0432 7.79828C27.5952 8.46581 26.9381 8.73663 26.184 8.75189C25.3514 8.76715 24.5936 8.55737 24.0821 7.79444C23.6714 7.18029 23.705 5.91388 24.5525 5.32261C25.0341 4.98695 25.5717 4.81529 26.1392 4.75808C26.7328 4.69704 27.3301 4.68941 27.9237 4.66272C28.2 4.65125 28.2299 4.61694 28.2075 4.33085C28.1403 3.57175 27.5915 3.25515 26.9307 3.19411C26.2661 3.13689 25.6613 3.31618 25.1349 3.73959C25.0939 3.77011 24.9855 3.77011 24.952 3.73959C24.7429 3.54124 24.545 3.32762 24.3397 3.12545C24.2463 3.0339 24.3173 2.98431 24.377 2.9271C24.7578 2.57616 25.2021 2.33965 25.6987 2.20996C26.4939 2.00397 27.2928 1.96583 28.088 2.22522C28.9429 2.5075 29.4171 3.13689 29.4955 4.03331C29.5627 4.81149 29.5477 5.59348 29.5664 6.37546C29.5515 6.38309 29.544 6.38309 29.5365 6.38309ZM27.4832 5.71173C27.4832 5.70789 27.4832 5.7041 27.4832 5.69647C27.2368 5.71552 26.9867 5.72315 26.7403 5.75368C26.3707 5.80325 26.0048 5.87956 25.6837 6.09317C25.5082 6.20759 25.3888 6.3602 25.3477 6.57381C25.2618 6.98577 25.4896 7.39011 25.9376 7.51979C26.1989 7.59609 26.4901 7.61519 26.7626 7.59993C27.2965 7.56941 27.7333 7.34816 27.9723 6.81795C28.1141 6.50134 28.1141 6.16564 28.0955 5.82615C28.0917 5.7842 28.0171 5.71552 27.9685 5.71173C27.808 5.7041 27.6437 5.71173 27.4832 5.71173Z" fill="currentColor"/>
<path d="M30.3279 5.4166C30.3279 4.43623 30.3279 3.45973 30.3279 2.47939C30.3279 2.22763 30.3317 2.22 30.5781 2.22C30.8954 2.22 31.2127 2.22763 31.5301 2.21618C31.6981 2.21237 31.7504 2.27722 31.7429 2.44124C31.7317 2.63197 31.7354 2.8227 31.7429 3.01342C31.7466 3.08209 31.7802 3.15075 31.7989 3.21941C31.8437 3.16982 31.8959 3.12786 31.9296 3.07446C32.2245 2.59382 32.6053 2.22381 33.169 2.11319C34.1173 1.92246 35.1664 2.14752 35.6928 3.0859C35.9392 3.52076 36.0139 4.00521 36.0176 4.49727C36.0288 5.80184 36.0176 7.10262 36.0251 8.40719C36.0251 8.56359 35.9803 8.617 35.8235 8.61317C35.4763 8.60174 35.1254 8.60937 34.7781 8.60937C34.5205 8.60937 34.5205 8.60937 34.5205 8.35377C34.5205 7.29334 34.528 6.22907 34.5131 5.16863C34.5094 4.84823 34.4608 4.52016 34.3712 4.21499C34.1957 3.62756 33.7029 3.34147 33.1056 3.43684C32.3328 3.5589 31.8549 4.1082 31.8437 4.91307C31.8287 6.06124 31.8213 7.21324 31.8213 8.3614C31.8213 8.54833 31.7765 8.6208 31.5823 8.61317C31.2351 8.59791 30.8842 8.60174 30.537 8.61317C30.369 8.617 30.3242 8.55216 30.3242 8.39192C30.3317 7.40016 30.3279 6.40836 30.3279 5.4166Z" fill="currentColor"/>
<path d="M23.1059 4.54714C23.1059 5.82502 23.1022 7.09907 23.1097 8.37696C23.1097 8.55621 23.0686 8.62489 22.882 8.61726C22.5161 8.60199 22.1502 8.60962 21.7806 8.61726C21.6387 8.62109 21.5977 8.56768 21.5977 8.43037C21.6014 5.84408 21.6014 3.25783 21.5977 0.675377C21.5977 0.515169 21.6574 0.480836 21.7955 0.484651C22.1614 0.492281 22.531 0.496093 22.8969 0.484651C23.0612 0.480836 23.1097 0.534241 23.1097 0.702079C23.1022 1.97995 23.1059 3.26546 23.1059 4.54714Z" fill="currentColor"/>
</g>
<defs>
<clipPath id="clip0_2126_17305">
<rect width="44" height="9" fill="currentColor"/>
</clipPath>
</defs>
</svg>
