<svg width="49" height="10" viewBox="0 0 49 10" fill="none" xmlns="http://www.w3.org/2000/svg">
<path d="M0 9.05964V0H1.08359V9.05964H0Z" fill="currentColor"/>
<path d="M9.18906 5.74844C9.18906 5.83905 9.18058 5.96676 9.16355 6.13158H3.28672C3.37171 6.74953 3.63515 7.24805 4.07708 7.62709C4.51902 7.9979 5.06293 8.18325 5.70887 8.18325C6.18478 8.18325 6.60544 8.08441 6.97091 7.88662C7.34484 7.68064 7.64231 7.39224 7.86325 7.02144H8.99785C8.70891 7.7136 8.27544 8.25333 7.69755 8.64057C7.11962 9.01961 6.45674 9.20911 5.70887 9.20911C4.7145 9.20911 3.88164 8.87541 3.21024 8.20798C2.53885 7.54058 2.20312 6.71247 2.20312 5.72372C2.20312 4.72668 2.53885 3.89861 3.21024 3.23942C3.88164 2.57198 4.7145 2.23828 5.70887 2.23828C6.73721 2.23828 7.5743 2.57612 8.2202 3.25175C8.86613 3.92743 9.18906 4.75965 9.18906 5.74844ZM5.70887 3.23942C5.30091 3.23942 4.92697 3.31768 4.58702 3.47426C4.25558 3.6308 3.97938 3.85741 3.75839 4.15404C3.53745 4.44243 3.38869 4.77613 3.31222 5.15517H8.09271C8.01624 4.76789 7.86753 4.43005 7.64654 4.14166C7.4256 3.84502 7.14936 3.62256 6.81792 3.47426C6.48648 3.31768 6.11678 3.23942 5.70887 3.23942Z" fill="currentColor"/>
<path d="M17.8947 2.23828C18.3791 2.23828 18.8041 2.34951 19.1695 2.57198C19.535 2.7862 19.8154 3.08698 20.0109 3.47426C20.2148 3.8615 20.3168 4.30233 20.3168 4.79671V9.06082H19.2333V5.11807C19.2333 4.72258 19.1695 4.3806 19.042 4.09221C18.9231 3.80382 18.7446 3.5855 18.5066 3.43716C18.2772 3.28062 18.0009 3.20231 17.678 3.20231C17.1766 3.20231 16.7431 3.41243 16.3777 3.83268C16.0208 4.24465 15.8423 4.75555 15.8423 5.36525V9.06082H14.7842V5.11807C14.7842 4.51656 14.644 4.04691 14.3635 3.70907C14.0916 3.37123 13.7091 3.20231 13.2162 3.20231C12.9697 3.20231 12.7318 3.25999 12.5023 3.37537C12.2813 3.48246 12.0859 3.6308 11.9159 3.8203C11.7544 4.00984 11.6227 4.24055 11.5207 4.51246C11.4272 4.77613 11.3805 5.06038 11.3805 5.36525V9.06082H10.2969V2.263H11.253V3.3012C11.3805 3.13642 11.5249 2.98808 11.6864 2.85627C11.8564 2.72441 12.0349 2.61318 12.2218 2.52253C12.4088 2.43192 12.6085 2.36185 12.821 2.31245C13.0335 2.263 13.2459 2.23828 13.4584 2.23828C13.9429 2.23828 14.3678 2.35361 14.7332 2.58436C15.0986 2.80683 15.3749 3.1158 15.5618 3.51133C15.7318 3.24766 15.94 3.02105 16.1865 2.83155C16.433 2.642 16.7006 2.49781 16.9896 2.39896C17.287 2.29183 17.5888 2.23828 17.8947 2.23828Z" fill="currentColor"/>
<path d="M24.9975 9.20911C24.3176 9.20911 23.6972 9.06082 23.1363 8.76418C22.5753 8.45931 22.1377 8.0432 21.8232 7.51586C21.5088 6.98028 21.3516 6.38287 21.3516 5.72372C21.3516 4.71844 21.6958 3.88623 22.3841 3.22703C23.081 2.56788 23.9522 2.23828 24.9975 2.23828C25.6859 2.23828 26.3063 2.39072 26.8586 2.69559C27.4198 2.99223 27.8572 3.40833 28.1717 3.94392C28.4949 4.47125 28.656 5.06452 28.656 5.72372C28.656 6.72071 28.3079 7.55292 27.6109 8.22036C26.9139 8.87951 26.0428 9.20911 24.9975 9.20911ZM23.1745 7.50348C23.6589 7.96493 24.2666 8.19564 24.9975 8.19564C25.7369 8.19564 26.3445 7.96493 26.8204 7.50348C27.3047 7.03382 27.5469 6.44056 27.5469 5.72372C27.5469 5.00683 27.3047 4.41771 26.8204 3.95625C26.3445 3.4866 25.7369 3.25175 24.9975 3.25175C24.2666 3.25175 23.6589 3.4866 23.1745 3.95625C22.6986 4.41771 22.4606 5.00683 22.4606 5.72372C22.4606 6.44056 22.6986 7.03382 23.1745 7.50348Z" fill="currentColor"/>
<path d="M33.2349 2.23828C34.042 2.23828 34.6838 2.50195 35.1598 3.02929C35.6442 3.55663 35.8863 4.23641 35.8863 5.06862V9.06082H34.803V5.31585C34.803 4.86264 34.7307 4.47949 34.5862 4.16638C34.4499 3.85326 34.2418 3.61432 33.9614 3.44954C33.6893 3.28472 33.3537 3.20231 32.9545 3.20231C32.368 3.20231 31.8749 3.41658 31.4757 3.84502C31.0761 4.26527 30.8763 4.78847 30.8763 5.4147V9.06082H29.793V2.263H30.7745V3.43716C30.9444 3.18173 31.1525 2.9675 31.3993 2.79444C31.6456 2.61318 31.926 2.47723 32.2404 2.38658C32.5549 2.28773 32.8864 2.23828 33.2349 2.23828Z" fill="currentColor"/>
<path d="M45.0428 2.38658H46.0625V9.06082H45.0428V8.0473C44.7196 8.4181 44.3245 8.70649 43.8572 8.91248C43.3982 9.11026 42.8927 9.20911 42.3402 9.20911C41.3287 9.20911 40.483 8.87951 39.8034 8.22036C39.1234 7.55292 38.7832 6.72071 38.7832 5.72372C38.7832 4.72668 39.1234 3.89861 39.8034 3.23942C40.483 2.57198 41.3287 2.23828 42.3402 2.23828C42.901 2.23828 43.4111 2.34127 43.8697 2.54725C44.3374 2.75328 44.7325 3.04167 45.0557 3.41243L45.0428 2.38658ZM40.6064 7.49114C41.0907 7.96079 41.6984 8.19564 42.4295 8.19564C43.1602 8.19564 43.7638 7.96079 44.2394 7.49114C44.7154 7.02149 44.9534 6.43232 44.9534 5.72372C44.9534 5.01507 44.7154 4.42595 44.2394 3.95625C43.7638 3.4866 43.1602 3.25175 42.4295 3.25175C41.6984 3.25175 41.0907 3.4907 40.6064 3.96864C40.1303 4.43829 39.8923 5.02332 39.8923 5.72372C39.8923 6.42407 40.1303 7.01325 40.6064 7.49114Z" fill="currentColor"/>
<path d="M48.2652 1.53487C47.9452 1.53487 47.6855 1.28309 47.6855 0.972509C47.6855 0.661929 47.9452 0.410156 48.2652 0.410156H48.2781C48.5985 0.410156 48.8582 0.661929 48.8582 0.972509C48.8582 1.28309 48.5985 1.53487 48.2781 1.53487H48.2652ZM47.7362 9.0619V2.38766H48.82V9.0619H47.7362Z" fill="currentColor"/>
</svg>
