<svg width="52" height="7" viewBox="0 0 52 7" fill="none" xmlns="http://www.w3.org/2000/svg">
<g clip-path="url(#clip0_2126_17303)">
<path d="M0 0V6.86263H4.62077V5.63762H1.5193V0H0ZM6.03833 0V6.86263H7.55764V0H6.03833ZM10.5669 0H8.93541L11.5196 6.86263H13.0696L15.6841 0H14.1237C13.8704 0.686437 13.6371 1.35275 13.4142 1.99019C13.3129 2.2645 13.2216 2.54887 13.1203 2.83325C13.019 3.12725 12.9177 3.402 12.8264 3.67631C12.7355 3.95106 12.6545 4.21575 12.5731 4.46075C12.4918 4.70575 12.4212 4.92144 12.3606 5.09819H12.3403C12.2792 4.92144 12.2082 4.70575 12.1273 4.46075C12.0459 4.21575 11.9555 3.95106 11.8637 3.67631C11.7624 3.402 11.6715 3.12725 11.5698 2.83325C11.4685 2.54887 11.3672 2.2645 11.2759 1.99019C11.0534 1.35275 10.8101 0.686437 10.5669 0ZM17.065 6.86263H21.9494V5.64725H18.5649V3.941H21.6655V2.72563H18.5649V1.21581H21.8988V0H17.065V6.86263ZM23.5881 0V6.86263H26.2333C26.7701 6.86263 27.2566 6.79394 27.6821 6.63731C28.1071 6.48025 28.4725 6.26456 28.7763 5.97056C29.0802 5.67656 29.3031 5.3235 29.4655 4.89213C29.6273 4.47081 29.7083 3.98038 29.7083 3.43131C29.7083 2.88225 29.6273 2.40188 29.4655 1.9705C29.3031 1.54919 29.0802 1.19613 28.7763 0.902125C28.4725 0.607688 28.1071 0.392 27.6821 0.235375C27.2566 0.0783125 26.7701 0 26.2329 0H23.5881ZM28.1379 3.43131C28.1379 3.76469 28.0972 4.06875 28.0162 4.34306C27.9349 4.61781 27.8236 4.84312 27.6617 5.03912C27.4994 5.23513 27.3072 5.39219 27.064 5.49019C26.8207 5.59825 26.5268 5.64725 26.1926 5.64725H25.1183V1.21538H26.1926C26.5272 1.21538 26.8207 1.27444 27.064 1.37287C27.2977 1.47448 27.5028 1.62904 27.6617 1.8235C27.8236 2.0195 27.9353 2.25487 28.0162 2.52962C28.0976 2.80394 28.1379 3.09838 28.1379 3.43131ZM34.1744 7C34.6609 7 35.0864 6.94138 35.4513 6.82369C35.8058 6.70556 36.0998 6.52925 36.3331 6.29431C36.5655 6.05759 36.7387 5.77248 36.8395 5.46088C36.9507 5.1275 37.0113 4.75475 37.0113 4.33344V0H35.492V4.34306C35.492 4.76481 35.3803 5.10781 35.1674 5.38256C34.9445 5.65688 34.6202 5.78419 34.1744 5.78419C33.7286 5.78419 33.3944 5.65688 33.1814 5.38256C32.9585 5.10781 32.8572 4.76481 32.8572 4.34306V0H31.3375V4.33344C31.3375 4.75475 31.3881 5.1275 31.4993 5.46088C31.611 5.79425 31.7833 6.069 32.0162 6.29431C32.2391 6.52925 32.533 6.70556 32.8979 6.82369C33.2524 6.94138 33.6779 7 34.1744 7ZM38.9399 0V6.86263H40.3787V2.35287H40.409C40.5003 2.50994 40.6115 2.68625 40.7436 2.89231C40.8752 3.09794 41.0171 3.32369 41.1686 3.55862C41.321 3.794 41.4833 4.04862 41.6452 4.30413C41.8075 4.55875 41.9694 4.81381 42.1318 5.04919C42.5133 5.65568 42.8983 6.26017 43.2866 6.86263H44.8674V0H43.4286V4.50975H43.3983C43.307 4.37238 43.1957 4.20569 43.0741 4.00006C42.9425 3.80406 42.8005 3.57831 42.6486 3.34294C42.4962 3.108 42.3343 2.86256 42.172 2.60794C42.0096 2.35521 41.8508 2.10027 41.6959 1.84319C41.2991 1.2317 40.9072 0.617282 40.5202 0L38.9399 0ZM46.8285 6.86263H51.7124V5.64725H48.3279V3.941H51.4285V2.72563H48.3279V1.21581H51.6618V0H46.8285V6.86263Z" fill="currentColor"/>
</g>
<defs>
<clipPath id="clip0_2126_17303">
<rect width="52" height="7" fill="currentColor"/>
</clipPath>
</defs>
</svg>
