<svg width="51" height="11" viewBox="0 0 51 11" fill="none" xmlns="http://www.w3.org/2000/svg">
<g clip-path="url(#clip0_171_17551)">
<path fill-rule="evenodd" clip-rule="evenodd" d="M6.07804 5.26927C6.39361 5.07425 6.79459 4.97656 7.28019 4.97656C7.95807 4.97656 8.49194 5.18313 8.88067 5.59552C9.27014 6.00792 9.4647 6.58212 9.4647 7.31705V10.7385H7.92742V7.6213C7.92742 6.81107 7.58046 6.40575 6.88689 6.40575C6.65594 6.40575 6.45949 6.44676 6.29747 6.52955C6.13548 6.61231 6.00488 6.72643 5.90453 6.87296C5.80422 7.01877 5.73106 7.19139 5.6851 7.39012C5.63876 7.58925 5.61539 7.80885 5.61539 8.0486V10.7385H4.08999V7.6213C4.08999 6.81107 3.73919 6.40575 3.03797 6.40575C2.80664 6.40575 2.61209 6.44676 2.4543 6.52955C2.29613 6.61231 2.16707 6.72643 2.06673 6.87296C1.96677 7.01877 1.89554 7.19139 1.85303 7.39012C1.81052 7.58925 1.78945 7.80885 1.78945 8.0486V10.7385H0.263672V5.11155H1.7435V5.93296C1.92081 5.66301 2.15175 5.43594 2.43668 5.25211C2.722 5.06828 3.09196 4.97656 3.54655 4.97656C4.40979 4.97656 5.00686 5.32518 5.33812 6.02282C5.51544 5.71558 5.76208 5.46389 6.07804 5.26927Z" fill="currentColor"/>
<path fill-rule="evenodd" clip-rule="evenodd" d="M12.815 8.48457C12.5765 8.52317 12.3973 8.5981 12.2779 8.70975C12.1585 8.8214 12.0987 8.95791 12.0987 9.11924C12.0987 9.3043 12.1684 9.45189 12.3066 9.56354C12.4452 9.67516 12.6493 9.731 12.9192 9.731C13.1194 9.731 13.3024 9.69849 13.4682 9.63312C13.634 9.56736 13.7745 9.48093 13.8901 9.37313C14.0053 9.26567 14.0942 9.14067 14.1554 8.99842C14.2171 8.85618 14.2481 8.70402 14.2481 8.54229V8.31174L12.815 8.48457ZM11.6251 5.29965C12.0719 5.084 12.611 4.97656 13.2427 4.97656C14.0899 4.97656 14.7236 5.16506 15.1436 5.54204C15.5635 5.91903 15.7734 6.5113 15.7734 7.31917V10.8849H14.2481V10.1003C14.0942 10.3309 13.8725 10.5389 13.5838 10.7232C13.2948 10.9082 12.923 11.0004 12.4686 11.0004C12.1837 11.0004 11.9215 10.9564 11.6829 10.8677C11.444 10.7794 11.2381 10.6563 11.0646 10.4987C10.8912 10.3405 10.7564 10.152 10.6599 9.93287C10.5639 9.71379 10.5156 9.46946 10.5156 9.2003C10.5156 8.9384 10.5619 8.70174 10.6542 8.49067C10.7469 8.27887 10.8759 8.09608 11.0413 7.9424C11.2071 7.78869 11.4019 7.66368 11.6251 7.56732C11.8487 7.47134 12.0949 7.41133 12.3644 7.38839L13.9475 7.24997C14.1478 7.22703 14.2481 7.15019 14.2481 7.01903V6.92689C14.2481 6.75751 14.1669 6.6191 14.0053 6.5113C13.8438 6.40384 13.5892 6.34994 13.2427 6.34994C13.0888 6.34994 12.9383 6.36332 12.7921 6.39009C12.6458 6.41722 12.5069 6.45928 12.3763 6.51703C12.2454 6.57476 12.1297 6.64969 12.0294 6.74222C11.9295 6.83475 11.8522 6.94983 11.7986 7.08861L10.6661 6.28035C10.8587 5.84218 11.1783 5.51491 11.6251 5.29965Z" fill="currentColor"/>
<path fill-rule="evenodd" clip-rule="evenodd" d="M18.652 9.02734V10.7366H17.0879V2.09375H18.652V7.10556L20.7972 4.84202H22.8714L20.3232 7.37666L22.8714 10.7366H20.8565L19.2685 8.4258L18.652 9.02734Z" fill="currentColor"/>
<mask id="mask0_171_17551" style="mask-type:alpha" maskUnits="userSpaceOnUse" x="23" y="5" width="6" height="6">
<path fill-rule="evenodd" clip-rule="evenodd" d="M23.0488 5.04688H28.7858V10.99H23.0488V5.04688Z" fill="currentColor"/>
</mask>
<g mask="url(#mask0_171_17551)">
<path fill-rule="evenodd" clip-rule="evenodd" d="M26.7784 6.61802C26.5731 6.41734 26.2878 6.31738 25.9228 6.31738C25.5581 6.31738 25.2614 6.40983 25.0332 6.59507C24.8049 6.78071 24.653 7.04337 24.5771 7.38346H27.1433C27.1052 7.07344 26.9835 6.81829 26.7784 6.61802ZM23.254 6.85022C23.3908 6.48722 23.5847 6.17197 23.8356 5.90328C24.0865 5.63498 24.3927 5.42491 24.7539 5.27384C25.1152 5.1228 25.5199 5.04688 25.9685 5.04688C26.4019 5.04688 26.7934 5.11903 27.1433 5.26258C27.4932 5.40613 27.7895 5.60829 28.0329 5.86947C28.2763 6.13024 28.4627 6.44778 28.5918 6.82204C28.7211 7.19633 28.7858 7.61042 28.7858 8.06399V8.47246H24.5884L24.5997 8.49501C24.6455 8.68402 24.7195 8.84672 24.8223 8.98239C24.9251 9.11842 25.0445 9.2319 25.1813 9.32284C25.3185 9.4134 25.4685 9.47954 25.6322 9.52162C25.7954 9.56295 25.9609 9.58364 26.128 9.58364C26.4707 9.58364 26.7766 9.53066 27.0463 9.42506C27.3165 9.3187 27.55 9.17892 27.7477 9.0053L28.3754 10.2416C28.1396 10.4382 27.8391 10.6121 27.474 10.7632C27.1091 10.9146 26.6527 10.9901 26.1057 10.9901C25.6265 10.9901 25.1964 10.9146 24.8167 10.7632C24.4365 10.6121 24.1149 10.404 23.853 10.1394C23.5904 9.87485 23.3908 9.56109 23.254 9.19809C23.1172 8.83509 23.0488 8.44203 23.0488 8.01853C23.0488 7.60254 23.1172 7.21322 23.254 6.85022Z" fill="currentColor"/>
</g>
<mask id="mask1_171_17551" style="mask-type:alpha" maskUnits="userSpaceOnUse" x="0" y="0" width="56" height="11">
<path fill-rule="evenodd" clip-rule="evenodd" d="M0.263672 11H55.9956V0H0.263672V11Z" fill="currentColor"/>
</mask>
<g mask="url(#mask1_171_17551)">
<path fill-rule="evenodd" clip-rule="evenodd" d="M29.707 10.7366H31.2844V2.09375H29.707V10.7366Z" fill="currentColor"/>
<path fill-rule="evenodd" clip-rule="evenodd" d="M36.6694 7.36194C36.5913 7.17418 36.4819 7.01345 36.341 6.87899C36.2004 6.74494 36.0342 6.64133 35.8426 6.56897C35.6509 6.49624 35.4459 6.45965 35.2266 6.45965C35.0084 6.45965 34.8029 6.49624 34.6112 6.56897C34.4196 6.64133 34.2534 6.74494 34.1128 6.87899C33.9724 7.01345 33.8625 7.17418 33.7844 7.36194C33.7061 7.5497 33.6669 7.75841 33.6669 7.98847C33.6669 8.21852 33.7061 8.42724 33.7844 8.615C33.8625 8.80276 33.9724 8.96349 34.1128 9.09795C34.2534 9.23162 34.4196 9.3356 34.6112 9.40796C34.8029 9.4807 35.0084 9.51728 35.2266 9.51728C35.4459 9.51728 35.6509 9.4807 35.8426 9.40796C36.0342 9.3356 36.2004 9.23162 36.341 9.09795C36.4819 8.96349 36.5913 8.80276 36.6694 8.615C36.7477 8.42724 36.7869 8.21852 36.7869 7.98847C36.7869 7.75841 36.7477 7.5497 36.6694 7.36194ZM32.3123 6.76435C32.4729 6.39263 32.694 6.0746 32.975 5.81028C33.2566 5.54558 33.5889 5.34066 33.9724 5.19517C34.3552 5.04969 34.7732 4.97656 35.2266 4.97656C35.6806 4.97656 36.0986 5.04969 36.4819 5.19517C36.865 5.34066 37.1972 5.54558 37.4785 5.81028C37.7603 6.0746 37.9809 6.39263 38.1415 6.76435C38.3016 7.1357 38.3815 7.54399 38.3815 7.98847C38.3815 8.44057 38.3016 8.85037 38.1415 9.21829C37.9809 9.58622 37.7603 9.90234 37.4785 10.1667C37.1972 10.4314 36.865 10.6363 36.4819 10.7818C36.0986 10.9272 35.6806 11.0004 35.2266 11.0004C34.7732 11.0004 34.3552 10.9272 33.9724 10.7818C33.5889 10.6363 33.2566 10.4314 32.975 10.1667C32.694 9.90234 32.4729 9.58622 32.3123 9.21829C32.1522 8.85037 32.0723 8.44057 32.0723 7.98847C32.0723 7.54399 32.1522 7.1357 32.3123 6.76435Z" fill="currentColor"/>
<path fill-rule="evenodd" clip-rule="evenodd" d="M38.6445 4.97656H40.3423L41.7992 8.54879L43.2674 4.97656H44.9538L42.3731 10.7385H41.2256L38.6445 4.97656Z" fill="currentColor"/>
<path fill-rule="evenodd" clip-rule="evenodd" d="M48.7149 6.56897C48.508 6.3656 48.2204 6.26427 47.8524 6.26427C47.4848 6.26427 47.1857 6.35798 46.9556 6.54574C46.7254 6.73389 46.5724 7.00012 46.4956 7.34481H49.0829C49.0443 7.03058 48.9218 6.77197 48.7149 6.56897ZM45.162 6.80434C45.3 6.43642 45.4953 6.11687 45.7482 5.84457C46.0011 5.57263 46.3097 5.3597 46.6741 5.20662C47.0382 5.05351 47.4462 4.97656 47.8984 4.97656C48.3355 4.97656 48.7301 5.04969 49.0829 5.19517C49.4357 5.34066 49.7344 5.54558 49.9796 5.81028C50.2252 6.0746 50.4129 6.39643 50.5433 6.7758C50.6734 7.15514 50.7386 7.57484 50.7386 8.03456V8.44855H46.5072L46.5185 8.47142C46.5647 8.66298 46.6394 8.8279 46.743 8.9654C46.8465 9.10326 46.9669 9.21829 47.105 9.31046C47.2432 9.40226 47.3944 9.46928 47.5595 9.51194C47.7241 9.55384 47.8907 9.57477 48.0592 9.57477C48.4047 9.57477 48.713 9.52108 48.9849 9.41407C49.2575 9.30627 49.4928 9.16458 49.692 8.98863L50.3248 10.2417C50.0871 10.4409 49.7843 10.6172 49.4163 10.7703C49.0482 10.9238 48.5884 11.0004 48.0366 11.0004C47.5537 11.0004 47.1202 10.9238 46.7372 10.7703C46.3539 10.6172 46.0298 10.4062 45.7658 10.1381C45.5011 9.86996 45.3 9.55193 45.162 9.18401C45.024 8.81609 44.9551 8.4177 44.9551 7.98847C44.9551 7.56685 45.024 7.17227 45.162 6.80434Z" fill="currentColor"/>
</g>
</g>
<defs>
<clipPath id="clip0_171_17551">
<rect width="51" height="11" fill="currentColor"/>
</clipPath>
</defs>
</svg>
