<svg class="mellow-logo-main" fill="none" viewBox="0 0 116 33" width="100%" xmlns="http://www.w3.org/2000/svg"><path class="mellow-logo-path" d="M22.585 14.3954V28.0641V32.3186H29.2836V31.866C27.4731 31.4134 27.1111 31.0966 27.1111 28.0641V15.5269C27.1111 10.8198 25.1196 9.05469 22.1324 9.05469C19.462 9.05469 17.4706 10.7746 15.5244 12.9018C14.8907 10.1409 13.1708 9.05469 10.8173 9.05469C8.10163 9.05469 6.11017 10.7746 4.48079 12.6303V9.05469H4.02819C3.07772 10.1409 1.99146 10.4125 0.678908 10.4578H0V14.7123V28.0641V32.3186H4.48079V28.0641V13.7165C6.24595 11.7251 7.87533 10.6841 9.36893 10.6841C10.7267 10.6841 11.2699 11.6798 11.2699 14.3954V28.0641V32.3186H15.7959V28.0641V15.5269C15.7959 14.8933 15.7507 14.3049 15.7054 13.807C17.6516 11.6345 19.1905 10.6841 20.6388 10.6841C21.9966 10.6841 22.585 11.6798 22.585 14.3954Z" fill="currentColor"></path><path class="mellow-logo-path" d="M29.0156 20.9129C29.0156 13.6713 32.9533 9.05469 38.5203 9.05469C42.9559 9.05469 46.1694 12.0871 46.1694 17.971H34.0848V19.1478C34.0848 25.5748 35.7142 30.7345 40.1045 30.7345C42.277 30.7345 44.6758 29.3314 46.2599 23.9454L47.1198 24.1717C45.2642 31.006 42.0507 32.9522 38.3393 32.9522C32.5912 32.9522 29.0156 28.6072 29.0156 20.9129ZM34.1301 17.0658H41.5981C41.5981 11.9966 40.4665 9.9599 38.3846 9.9599C35.6689 9.9599 34.4469 12.6755 34.1301 17.0658Z" fill="currentColor"></path><path class="mellow-logo-path" d="M49.4094 1.40308C50.7219 1.35782 51.8082 1.08625 52.7587 0H53.2113V28.0615V32.316H48.7305V28.0615V5.65757V1.40308H49.4094Z" fill="currentColor"></path><path class="mellow-logo-path" d="M61.6099 0C60.6594 1.08625 59.5732 1.35782 58.2606 1.40308H57.5817V5.65757V28.0615V32.316H62.0625V28.0615V0H61.6099Z" fill="currentColor"></path><path class="mellow-logo-path" d="M74.193 32.9522C67.9471 32.9522 64.0547 28.8788 64.0547 21.0035C64.0547 13.1281 67.9471 9.05469 74.193 9.05469C80.439 9.05469 84.3314 13.0829 84.3314 21.0035C84.3314 28.8788 80.439 32.9522 74.193 32.9522ZM69.1691 21.0035C69.1691 28.4262 70.6175 32.0018 74.193 32.0018C77.7686 32.0018 79.217 28.4262 79.217 21.0035C79.217 13.5807 77.7686 9.9599 74.193 9.9599C70.6175 9.9599 69.1691 13.5807 69.1691 21.0035Z" fill="currentColor"></path><path class="mellow-logo-path" d="M94.8004 32.3153L107.56 0H105.513L94.4464 26.8599L87.9445 9.01056H83.1719L91.6421 32.3158L94.8004 32.3153Z" fill="currentColor"></path><path class="mellow-logo-path" d="M103.242 32.3153L116.001 0H113.954L102.888 26.8599L96.3859 9.01056H91.6133L100.083 32.3158L103.242 32.3153Z" fill="currentColor"></path></svg>