<svg width="46" height="10" viewBox="0 0 46 10" fill="none" xmlns="http://www.w3.org/2000/svg">
<g clip-path="url(#clip0_2412_17252)">
<path d="M10.2171 3.75485C10.2171 1.95091 8.70793 0.5 6.83262 0.5H5.15835V2.52069H3.19104V4.99786H0.615234V6.88981H3.19104V9.36699H5.15835V6.87433H6.21212L7.69966 9.36699H10.1214L8.39789 6.50806C9.48389 5.97901 10.2171 4.92133 10.2171 3.75485ZM6.83262 4.97529H5.15835V2.53396H6.83262C7.45312 2.53396 7.96093 3.06301 7.96093 3.7544C7.96093 4.44579 7.45312 4.97484 6.83262 4.97484V4.97529Z" fill="currentColor"/>
<path d="M14.1321 7.75507C14.6876 7.75507 15.1618 7.54672 15.4329 7.26007L17.0587 8.15939C16.3953 9.04541 15.3922 9.50148 14.1049 9.50148C11.7881 9.50148 10.3516 8.00279 10.3516 6.06131C10.3516 4.11978 11.8147 2.62109 13.9559 2.62109C15.9341 2.62109 17.3972 4.09372 17.3972 6.06131C17.3972 6.33509 17.3703 6.59564 17.316 6.84292H12.5061C12.7636 7.52062 13.3869 7.75507 14.1321 7.75507ZM15.3787 5.38361C15.1618 4.62761 14.5522 4.35423 13.9426 4.35423C13.1703 4.35423 12.6556 4.71918 12.4656 5.38361H15.3787Z" fill="currentColor"/>
<path d="M24.5117 5.31468V9.31488H22.479V5.60133C22.479 4.79358 21.9505 4.41539 21.3001 4.41539C20.5551 4.41539 20.0401 4.8325 20.0401 5.75748V9.31488H18.0078V2.79989H20.0401V3.41211C20.4059 2.92994 21.0836 2.61719 21.9778 2.61719C23.3463 2.61719 24.5117 3.55544 24.5117 5.31468Z" fill="currentColor"/>
<path d="M25.0254 6.0574C25.0254 4.11591 26.6242 2.61719 28.6162 2.61719C30.6077 2.61719 32.2065 4.11591 32.2065 6.0574C32.2065 7.99889 30.6077 9.49758 28.6162 9.49758C26.6242 9.49758 25.0254 7.99889 25.0254 6.0574ZM30.1742 6.0574C30.1742 5.13198 29.4969 4.51975 28.6162 4.51975C27.735 4.51975 27.0577 5.13198 27.0577 6.0574C27.0577 6.98279 27.735 7.59501 28.6162 7.59501C29.4969 7.59501 30.1742 6.98279 30.1742 6.0574Z" fill="currentColor"/>
<path d="M39.1177 2.80078L36.6108 9.31622H34.3073L31.8008 2.80078H34.05L35.4592 6.93148L36.8681 2.80078H39.1177Z" fill="currentColor"/>
<path d="M46.0006 2.80334V9.31878H43.9679V8.70656C43.5209 9.20156 42.8567 9.50148 41.949 9.50148C40.174 9.50148 38.7109 8.00279 38.7109 6.06127C38.7109 4.11978 40.174 2.62109 41.949 2.62109C42.8571 2.62109 43.5209 2.92057 43.9679 3.41602V2.80379H46.0006V2.80334ZM43.9679 6.06086C43.9679 5.08368 43.2906 4.47101 42.3559 4.47101C41.4209 4.47101 40.7436 5.08323 40.7436 6.06086C40.7436 7.03844 41.4209 7.65067 42.3559 7.65067C43.2906 7.65067 43.9679 7.03844 43.9679 6.06086Z" fill="currentColor"/>
</g>
<defs>
<clipPath id="clip0_2412_17252">
<rect width="46.0006" height="10" fill="currentColor"/>
</clipPath>
</defs>
</svg>
