<svg width="48" height="11" viewBox="0 0 48 11" fill="none" xmlns="http://www.w3.org/2000/svg">
<g clip-path="url(#clip0_2229_17355)">
<path d="M0.329042 7.22801L0.510841 6.80015C0.632245 6.51093 0.850705 6.43543 1.12956 6.64916C1.66359 7.05183 2.53693 7.35388 3.702 7.35388C4.69719 7.35388 5.12168 7.08984 5.12168 6.77497C5.12168 6.42261 4.77 6.32192 4.18745 6.24643L2.86482 6.07076C1.2752 5.85704 0.474237 5.26536 0.474237 4.23393C0.474237 3.12699 1.34802 2.24609 3.37411 2.24609C4.50252 2.24609 5.23072 2.42227 5.7038 2.61076C6.22541 2.82449 6.29823 3.00067 6.29823 3.44135V4.00738C6.29823 4.35974 6.17688 4.4856 5.83707 4.4856H5.46105C5.12124 4.4856 4.99989 4.35974 4.99989 4.00738V3.81837C4.78143 3.74288 4.23553 3.62989 3.59257 3.62989C2.47648 3.62989 1.93014 3.84356 1.93014 4.19592C1.93014 4.45996 2.25758 4.61095 2.85201 4.69927L4.15034 4.87545C5.73996 5.08918 6.57714 5.58017 6.57714 6.76266C6.57714 7.97028 5.47297 8.73813 3.50739 8.73813C2.06341 8.73813 0.89879 8.2599 0.437579 7.81974C0.268146 7.65587 0.243854 7.44174 0.329042 7.22801Z" fill="currentColor"/>
<path d="M14.6499 8.63754H13.9826C13.6552 8.63754 13.5457 8.58717 13.3882 8.33549L12.1264 6.41033C11.9446 6.14629 11.8109 6.08316 11.435 6.08316H10.1732V8.15931C10.1732 8.51167 10.0519 8.63754 9.71207 8.63754H9.22662C8.88682 8.63754 8.76541 8.51167 8.76541 8.15931V1.90659H8.31663C7.97682 1.90659 7.85547 1.78078 7.85547 1.42842V1.01338C7.85547 0.661024 7.97682 0.535156 8.31663 0.535156H9.71207C10.0519 0.535156 10.1732 0.661024 10.1732 1.01338V4.6747H11.3017C11.6777 4.6747 11.8114 4.61196 11.9932 4.34746L13.0488 2.66168C13.2187 2.39764 13.3277 2.34727 13.6556 2.34727H14.3229C14.687 2.34727 14.7598 2.64932 14.5532 2.96367L13.3763 4.81333C13.2549 4.98951 13.1093 5.17805 12.9636 5.32905C13.1093 5.45491 13.3154 5.66858 13.4005 5.79445L14.8807 8.03396C15.0868 8.33601 15.014 8.63754 14.6499 8.63754Z" fill="currentColor"/>
<path d="M16.9469 9.79569V9.38065C16.9469 9.02829 17.0683 8.90243 17.4081 8.90243H17.9906C18.3423 8.90243 18.5123 8.82693 18.646 8.5377L18.7188 8.37435L15.9403 2.92657C15.7704 2.59939 15.9037 2.34766 16.2677 2.34766H16.8988C17.2263 2.34766 17.3719 2.41039 17.4933 2.6497L18.6579 5.12807C18.9249 5.69416 19.228 6.34851 19.4708 6.91459C19.7135 6.36087 19.9924 5.73216 20.2594 5.17844L21.4483 2.6497C21.5573 2.41085 21.7153 2.34766 22.0427 2.34766H22.6738C23.0379 2.34766 23.1712 2.59939 23.0012 2.92657L19.8344 9.15456C19.4703 9.87165 19.0458 10.2743 18.0991 10.2743H17.4076C17.0683 10.2739 16.9469 10.148 16.9469 9.79569Z" fill="currentColor"/>
<path d="M30.7543 5.46719V5.61824C30.7543 5.9706 30.633 6.09641 30.2932 6.09641H25.3182C25.4881 6.76318 26.1311 7.40471 27.5023 7.40471C28.7278 7.40471 29.286 6.98967 29.5407 6.80067C29.8196 6.587 30.0138 6.66198 30.1594 6.95166L30.3655 7.3667C30.4745 7.58043 30.4141 7.74424 30.2318 7.9076C29.9648 8.14646 29.0548 8.73819 27.5018 8.73819C25.4148 8.73819 23.959 7.46738 23.959 5.47955C23.959 3.52921 25.3544 2.24609 27.3562 2.24609C29.3589 2.24609 30.7543 3.5169 30.7543 5.46719ZM25.3182 4.87597H29.4074C29.2499 4.22162 28.6064 3.60522 27.3566 3.60522C26.1068 3.60522 25.4757 4.22162 25.3182 4.87597Z" fill="currentColor"/>
<path d="M39.6042 5.25352V8.15974C39.6042 8.5121 39.4827 8.63797 39.1427 8.63797H38.6575C38.3176 8.63797 38.1962 8.5121 38.1962 8.15974V5.29101C38.1962 4.27193 37.6137 3.71821 36.6309 3.71821C35.8665 3.71821 34.9565 4.20874 34.5073 4.72446V8.15928C34.5073 8.51164 34.3859 8.63751 34.0461 8.63751H33.5606C33.2208 8.63751 33.0995 8.51164 33.0995 8.15928V3.71821H32.6506C32.3108 3.71821 32.1895 3.5924 32.1895 3.24004V2.82495C32.1895 2.47259 32.3108 2.34678 32.6506 2.34678H33.8276C34.1674 2.34678 34.2888 2.47259 34.2888 2.82495V3.17731C34.9441 2.62364 35.8298 2.24609 36.7884 2.24609C38.6086 2.24655 39.6042 3.36631 39.6042 5.25352Z" fill="currentColor"/>
<path d="M47.9801 2.82449V8.71295C47.9801 10.0212 46.6213 10.877 44.8859 10.877C43.2482 10.877 42.4717 10.3736 42.1196 10.0341C41.9499 9.87071 41.9255 9.65652 42.0103 9.44285L42.1917 9.01499C42.3259 8.70058 42.5438 8.63745 42.8106 8.864C43.2354 9.2163 43.6481 9.50553 44.8732 9.51835C45.9652 9.51835 46.572 9.10331 46.572 8.59996V7.99592C46.1349 8.28509 45.6008 8.47409 44.8366 8.47409C42.8711 8.47409 41.5117 7.27884 41.5117 5.3665C41.5117 3.45417 42.8705 2.24609 44.8366 2.24609C45.6857 2.24609 46.2442 2.49777 46.6208 2.79976C46.7178 2.58609 46.9119 2.34672 47.1543 2.34672H47.5187C47.8586 2.34626 47.9801 2.47213 47.9801 2.82449ZM46.5731 6.37275V4.35974C46.2331 3.93188 45.7356 3.66784 44.8377 3.66784C43.7579 3.66784 42.9692 4.30942 42.9692 5.3665C42.9692 6.42358 43.7579 7.05229 44.8377 7.05229C45.7234 7.05183 46.2209 6.78779 46.5731 6.37275Z" fill="currentColor"/>
</g>
<defs>
<clipPath id="clip0_2229_17355">
<rect width="48" height="11" fill="currentColor"/>
</clipPath>
</defs>
</svg>
