<svg width="49" height="6" viewBox="0 0 49 6" fill="none" xmlns="http://www.w3.org/2000/svg">
<path d="M6.99365 0L7.36426 0.0158975L7.71875 0.0794876L8.10547 0.206668L8.47607 0.397438L8.70166 0.556414L8.92725 0.747184L9.08838 0.906159L9.26562 1.12872L9.42676 1.38309L9.55566 1.63745L9.65234 1.87591L9.73291 2.16206L9.78125 2.44822L9.79736 2.62309V2.95694L9.74902 3.33848L9.68457 3.60874L9.57178 3.91079L9.44287 4.16515L9.33008 4.35592L9.13672 4.61028L8.9917 4.76926L8.84668 4.91234L8.62109 5.08721L8.33105 5.26208L8.05713 5.38926L7.76709 5.48465L7.46094 5.54824L7.34814 5.56414L7.02588 5.58003L6.71973 5.56414L6.36523 5.50055L6.02686 5.38926L5.75293 5.26208L5.49512 5.10311L5.26953 4.92823L4.94727 4.61028L4.77002 4.37182L4.625 4.13336L4.49609 3.8631L4.3833 3.52925L4.31885 3.2113L4.30273 3.08412V2.49591L4.35107 2.17796L4.44775 1.84411L4.59277 1.51027L4.73779 1.2559L4.8667 1.08103L4.99561 0.922057L5.1084 0.794876H5.14062V0.763081H5.17285V0.731286L5.30176 0.620004L5.54346 0.445131L5.78516 0.302053L6.05908 0.174873L6.36523 0.0794876L6.71973 0.0158975L6.99365 0ZM6.81641 0.667696L6.54248 0.715389L6.26855 0.810774L5.99463 0.953852L5.80127 1.09693L5.60791 1.2718L5.44678 1.46257L5.30176 1.70104L5.18896 1.9395L5.1084 2.17796L5.06006 2.40053L5.04395 2.5436V3.03643L5.09229 3.33848L5.17285 3.59284L5.26953 3.8313L5.41455 4.06977L5.54346 4.22874L5.68848 4.38772L5.8335 4.5149L6.0752 4.67387L6.34912 4.80105L6.54248 4.86464L6.81641 4.91234H7.26758L7.5415 4.86464L7.7832 4.78516L8.04102 4.65798L8.23438 4.5308L8.42773 4.35592L8.55664 4.22874L8.68555 4.05387L8.81445 3.8313L8.92725 3.57694L9.00781 3.29079L9.04004 3.10002L9.05615 2.90925V2.67078L9.02393 2.36873L8.94336 2.05078L8.84668 1.81232L8.71777 1.57386L8.55664 1.35129L8.29883 1.09693L8.04102 0.922057L7.7832 0.794876L7.5415 0.715389L7.26758 0.667696H6.81641Z" fill="currentColor"/>
<path d="M35.0469 0.109375H35.7397L36.771 1.69913L36.9966 2.04887L37.1738 2.31913L37.3994 2.66888L38.1729 3.86119L38.3501 4.13145L38.4307 4.25863L38.4468 4.27453V0.20476L38.4629 0.109375H39.1396V5.45094L39.1235 5.46684H38.4629L38.3501 5.30787L38.0923 4.91043L37.8667 4.56068L37.6895 4.29043L37.4639 3.94068L37.2866 3.67042L37.061 3.32068L36.8032 2.92324L36.626 2.65298L36.4326 2.35093L36.1909 1.98528L36.0298 1.73092L35.8042 1.38118L35.7397 1.28579L35.7236 5.45094L35.7075 5.46684H35.063L35.0469 5.45094V0.109375Z" fill="currentColor"/>
<path d="M40.3477 0.109375H41.0244L41.0405 0.157068V2.46221L41.2661 2.22375L41.4595 2.03298L41.5723 1.9058L41.7495 1.73092L41.8623 1.60374L42.104 1.36528L42.1201 1.33348H42.1523L42.1846 1.26989L42.4424 1.01553L42.5552 0.888354L42.7324 0.713481L42.7485 0.681686H42.7808L42.813 0.618096L43.103 0.33194L43.2158 0.20476L43.3125 0.109375H44.1665L44.1504 0.157068L43.8281 0.475018L43.812 0.506813H43.7798L43.7476 0.570403L43.4897 0.824764L43.377 0.951944L43.1191 1.2063L43.0063 1.33348L42.7969 1.54015L42.6841 1.66733L42.4424 1.9058L42.3296 2.03298L42.104 2.25554L41.9912 2.38272L41.7656 2.60529L41.7495 2.63708H41.7173L41.6851 2.70067L41.6367 2.71657L41.7495 2.84375L41.9429 3.01862L42.4746 3.54324L42.6035 3.65452L43.0547 4.09965L43.1836 4.21094L43.7153 4.73556L43.8442 4.84684L44.3115 5.30787L44.3438 5.32376V5.35556L44.4082 5.38735L44.4404 5.41915V5.46684H43.5059L43.2803 5.24428L43.1514 5.13299L42.7485 4.73556L42.6196 4.62427L42.2812 4.29043L42.1523 4.17914L41.8623 3.89299L41.7334 3.7817L41.3306 3.38427L41.2983 3.36837V3.33657L41.2339 3.30478L41.0405 3.11401V5.43505L41.0083 5.46684H40.3638L40.3477 5.45094V0.109375Z" fill="currentColor"/>
<path d="M19.8521 0.109375H20.4966L20.5771 0.300145L20.7705 0.777071L21.1733 1.77862L21.9146 3.62273L22.1885 4.30632L22.6396 5.41915L22.6235 5.46684H21.9146L21.8662 5.38735L21.5278 4.51299L21.3022 3.92478H19.0464L18.7402 4.71966L18.4502 5.45094L18.4341 5.46684H17.709L17.7251 5.37146L17.9185 4.91043L18.1118 4.41761L18.3052 3.94068L19.0464 2.09657L19.4492 1.09502L19.7231 0.411428L19.8359 0.125273L19.8521 0.109375ZM20.1582 1.03143L19.8521 1.82631L19.5781 2.5258L19.3364 3.1458L19.2881 3.30478H21.0605L21.0122 3.1617L20.7705 2.5258L20.4644 1.74682L20.1904 1.04733L20.1582 1.03143Z" fill="currentColor"/>
<path d="M13.2305 0L13.6494 0.0158975L14.0361 0.0794877L14.4067 0.19077L14.729 0.333848L15.019 0.508721L15.0513 0.540516L15.0352 0.620004L14.8418 0.969749L14.7612 1.11283L14.6807 1.08103L14.4712 0.953852L14.1973 0.826672L13.9233 0.747184L13.6333 0.699491H13.0532L12.7793 0.747184L12.5054 0.826672L12.167 0.985647L11.9414 1.14462L11.7803 1.2877L11.6353 1.43078L11.4741 1.65334L11.3452 1.89181L11.2485 2.14617L11.1841 2.43232L11.168 2.52771V3.05233L11.2324 3.37028L11.3291 3.65643L11.4741 3.92669L11.6353 4.14926L11.748 4.26054V4.29233H11.7803V4.32413L11.8447 4.35592L12.022 4.499L12.2637 4.64208L12.4731 4.73746L12.7632 4.83285L13.0532 4.88054H13.6494L13.9878 4.81695L14.2778 4.72157L14.6162 4.54669L14.729 4.46721L14.7773 4.4831L14.9062 4.73746L15.0513 4.99182L15.0352 5.05541L14.8096 5.19849L14.5518 5.32567L14.3101 5.42106L13.9556 5.51644L13.6494 5.56414H12.9565L12.5859 5.50055L12.2153 5.38926L11.8931 5.24619L11.6514 5.10311L11.3936 4.91234L11.2002 4.73746L11.0713 4.61028L10.8618 4.34003L10.7007 4.06977L10.5879 3.8313L10.4912 3.54515L10.4106 3.14771L10.3945 2.95694V2.62309L10.4268 2.32104L10.5073 1.98719L10.6201 1.68514L10.749 1.43078L10.9102 1.17642L11.0552 1.00154L11.2002 0.842569L11.3291 0.715389L11.603 0.508721L11.8125 0.381541L12.0703 0.25436L12.2959 0.158975L12.6665 0.0635901L12.9565 0.0158975L13.2305 0Z" fill="currentColor"/>
<path d="M46.1963 0.015625H46.7441L47.0181 0.0792151L47.2759 0.1746L47.5176 0.301781L47.7271 0.460756L47.8882 0.603834V0.635629H47.9204L47.9043 0.746911L47.6948 1.06486L47.6304 1.16025L47.5659 1.12845L47.3887 0.953579L47.1631 0.810502L46.9536 0.715116L46.6958 0.651526L46.4219 0.635629L46.1963 0.667424L45.9868 0.746911L45.8096 0.874092L45.7129 0.985374L45.6323 1.12845L45.5679 1.30333L45.5518 1.55769L45.584 1.71666L45.6646 1.87564L45.7451 1.97102L45.9546 2.1141L46.2607 2.25718L46.7925 2.46384L47.1953 2.63872L47.4854 2.79769L47.6787 2.94077L47.8398 3.08385L47.9688 3.24282L48.0977 3.48129L48.1621 3.70385L48.1943 3.91052V4.16488L48.1138 4.53052L48.0332 4.72129L47.9204 4.91206L47.7432 5.10283L47.5981 5.23002L47.3564 5.37309L47.1147 5.46848L46.7764 5.54797L46.6636 5.56386L46.3091 5.57976L46.0352 5.56386L45.729 5.50027L45.3906 5.37309L45.1328 5.23002L44.9395 5.08694L44.7139 4.89617L44.5205 4.6736L44.4883 4.64181L44.5044 4.56232L44.6978 4.29206L44.8267 4.11719H44.8911L45.0361 4.27616L45.1489 4.40334L45.3262 4.56232L45.4873 4.6736L45.6484 4.76899L45.8901 4.86437L46.0835 4.91206L46.1963 4.92796H46.5347L46.7764 4.88027L46.9858 4.80078L47.147 4.6895L47.2275 4.62591L47.3403 4.46693L47.4048 4.29206L47.437 4.10129L47.4209 3.84693L47.3726 3.68795L47.2759 3.51308L47.1792 3.4018L47.002 3.27462L46.7764 3.14744L46.5024 3.02026L45.874 2.7659L45.5034 2.57513L45.2939 2.41615L45.1328 2.25718L44.9878 2.03461L44.9072 1.82794L44.875 1.66897V1.31922L44.9233 1.09666L45.02 0.842297L45.165 0.619731L45.3101 0.444858L45.5034 0.285883L45.7612 0.142805L45.9868 0.0633176L46.1963 0.015625Z" fill="currentColor"/>
<path d="M1.96582 0L2.23975 0.0158975L2.52979 0.0794876L2.85205 0.206668L3.09375 0.349746L3.271 0.492823L3.43213 0.651799L3.41602 0.731286L3.19043 1.08103L3.12598 1.17642L2.93262 0.985647L2.72314 0.842569L2.46533 0.715389L2.20752 0.651799L1.93359 0.635901L1.70801 0.667696L1.53076 0.731286L1.35352 0.842569L1.24072 0.953852L1.14404 1.11283L1.07959 1.2718L1.06348 1.35129V1.62155L1.12793 1.81232L1.24072 1.9554L1.40186 2.08258L1.65967 2.20976L2.09473 2.38463L2.44922 2.52771L2.9165 2.75027L3.19043 2.94104L3.30322 3.03643L3.44824 3.2113L3.54492 3.37028L3.62549 3.54515L3.67383 3.75182L3.68994 3.879V4.16515L3.6416 4.45131L3.57715 4.64208L3.49658 4.80105L3.33545 5.02362L3.20654 5.1508L2.98096 5.30977L2.70703 5.43695L2.44922 5.51644L2.17529 5.56414L1.83691 5.58003L1.54688 5.56414L1.24072 5.50055L0.966797 5.40516L0.660645 5.24618L0.483398 5.119L0.273926 4.94413L0.14502 4.81695L0 4.64208V4.57849L0.225586 4.26054L0.354492 4.08567L0.435059 4.16515L0.628418 4.37182L0.789551 4.5308L1.01514 4.68977L1.27295 4.81695L1.51465 4.89644L1.70801 4.92823H2.04639L2.28809 4.88054L2.5459 4.76926L2.69092 4.65798L2.80371 4.5308L2.90039 4.34003L2.93262 4.18105V3.89489L2.88428 3.70412L2.80371 3.54515L2.62646 3.35438L2.40088 3.2113L2.14307 3.08412L1.77246 2.92515L1.4502 2.79797L1.19238 2.67078L0.98291 2.5595L0.805664 2.41642L0.692871 2.32104L0.547852 2.13027L0.435059 1.9077L0.386719 1.71693L0.370605 1.57386V1.43078L0.402832 1.19231L0.467285 0.969749L0.596191 0.715389L0.708984 0.572311L0.854004 0.413336L1.06348 0.25436L1.22461 0.158975L1.48242 0.0635901L1.70801 0.0158975L1.96582 0Z" fill="currentColor"/>
<path d="M29.166 0.109375H29.8589V4.86274H32.0181L32.0342 4.87863V5.45094L32.0181 5.46684H29.1821L29.166 5.45094V0.109375Z" fill="currentColor"/>
<path d="M23.4771 0.109375H24.1538V4.86274H26.3291L26.3452 4.97402V5.43505L26.3291 5.46684H23.4771L23.4609 5.32376V0.20476L23.4771 0.109375Z" fill="currentColor"/>
<path d="M16.0649 0.109375H16.7417V5.45094L16.7256 5.46684H16.0649L16.0488 5.45094V0.125273L16.0649 0.109375Z" fill="currentColor"/>
<path d="M33.2271 0.109375H33.9038L33.9199 0.157068L33.9038 5.45094L33.8877 5.46684H33.2271L33.2109 5.43505V0.14117L33.2271 0.109375Z" fill="currentColor"/>
</svg>
