<svg fill="currentColor" height="9" viewBox="0 0 51 9" width="51" xmlns="http://www.w3.org/2000/svg"><path d="m7.6341 6.34022-.00038-.25819c.00215-1.3104-1.14507-2.10153-3.31723-2.28619-1.0697-.07001-1.68856-.20247-1.68854-.66931l.00099-.06522c.00039-.39826.53222-.64597 1.38948-.64492.42134.00072.75832.06904 1.0086.19267.03168.01346.09769.0461.10024.04703.32824.18294.56803.46242.74957.77758l1.48341-.85547c-.31707-1.16798-1.55605-1.89413-3.3384-1.894746-3.01379-.002468-3.340443 1.654466-3.340695 2.366796l-.000238.21425c-.001047 1.36364 1.163563 2.18317 3.373093 2.37272 1.11425.07296 1.63499.25866 1.63387.58473l-.00012.06413c-.00035.44504-.59055.72125-1.54072.71976-.53857.00072-.94917-.10966-1.23486-.27378-.35987-.18688-.64354-.50137-.82021-.82465l-1.516354.87387c.32799 1.19743 1.679564 1.96923 3.569474 1.96993 2.18509.00234 3.4906-.89904 3.49251-2.40987m43.23041 2.38003-2.4894-.00163-3.0378-3.75012-.0032 3.74723-1.917-.00147.0056-7.798849 1.9172.00305-.0029 3.744299 2.9563-3.741836 2.4663.002669-3.1344 3.851737 3.237 3.94406zm-8.7213-.08224-1.9708-.00207.0064-7.79861 1.9705.002743-.0063 7.798607zm-3.1538-.00222-1.9702-.00262.0038-5.18026c.0006-.65705-.5458-1.03397-1.497-1.03506-.9447-.00109-1.4863.37579-1.487 1.0332l-.0041 5.18014-1.982-.00047.0034-5.32104c.0016-1.59647 1.3634-2.627099 3.4715-2.626252 2.1066.000692 3.4661 1.034192 3.4655 2.629972l-.0044 5.32068zm-10.1321-.00813-1.983-.00196.0058-6.06529-2.4882-.00113.0012-1.735002 6.9584.006582-.001 1.73354-2.4882-.00114-.0035 6.0623zm-8.8385.14495c-2.1071-.00127-3.4693-1.03582-3.4655-2.62998l.0041-5.32079 1.9813.000223-.0031 5.180497c-.0003.65605.5421 1.03489 1.4857 1.03588.9521.00049 1.4982-.37716 1.4981-1.03335l.0063-5.183121 1.9701.001826-.0041 5.320795c-.0011 1.59626-1.3634 2.6271-3.4708 2.6265m-9.4081-3.96185 1.6917.00101c.6045.00101 1.3253-.17718 1.3256-1.03244l-.0001-.20534c.001-.67098-.4446-1.01226-1.3237-1.0129l-1.6915-.00168zm-.0026 3.80069-1.97072-.00207.00636-7.798605 3.66236.002283c2.0019.002379 3.2955 1.034152 3.2939 2.631592v.46229c-.0009 1.59672-1.2947 2.62781-3.2973 2.62516l-1.6912-.00155-.0024 2.07899z" fill="currentColor"/></svg>