<svg fill="currentColor" height="25" viewBox="0 0 45 25" width="45" xmlns="http://www.w3.org/2000/svg"><g fill="currentColor"><path d="m23.3933 8.02344h.8929l.5059.09014.3572.12019.3274.18029.4761.30048.0893.03005.0298-.33053.0595-.21033.0298-.03005h1.6666l.0298.03005v7.54207l-.0595.3906-.1191.4808-.1785.4808-.2381.3605-.2679.3005-.2976.2704-.506.2705-.5357.1803-.625.1202-.2976.03h-.7738l-.6845-.0901-.4167-.0902-.4464-.1803-.2976-.1502-.3274-.2704-.2679-.3005-.2381-.3906-.2381-.4808-.1785-.3906v-.0601h1.7559l.2976.2704.2679.3005.2976.2103.4464.1503h.5655l.6548-.1803.2976-.1503.2381-.1803.2083-.3004.1191-.3606.0297-.1503v-.631l-.3273.0601-1.1905.3606-.3274.0901-.2679.0301h-.5357l-.5357-.1502-.6845-.3306-.3869-.3005-.4464-.4807-.2977-.5108-.2381-.571-.119-.4206-.0893-.3606v-1.5625l.1786-.6611.3274-.78121.3571-.54087.3274-.33053.4166-.30048.4762-.24038.3572-.1202zm.9822 1.5024-.2977.0601-.2678.06009-.4167.21034-.2976.27043-.1786.2103-.2083.4508-.0893.2103-.0595.3906-.0595.0902v.6009l.0595.0601.0893.3906.0595.1503.0595.2704.0893.2705.1191.2103.2678.3606.1488.1202.506.2704h.8035l.0893-.0902.2679-.03.2381-.2103.119-.1202v-.0601h.0596l.2083-.2404.1488-.2704.119-.3306.0596-.2404.0595-.1802v-1.1118l-.0893-.1803-.0595-.3606-.2083-.4207-.2084-.2704-.3274-.33052-.2083-.09015-.0298-.03004-.3571-.03005z"/><path d="m32.7077 7.99219h.3274l.5654.06009.506.1202.4464.18028.4762.30049.4464.39062.3572.45072.2381.39063.2381.60098.119.4207.0893.4807.0298.8714-.0596.3005-.0297.03-5.4464.0301.119.5108.2083.4808.1786.2404.1488.1502.2381.2103.3274.1803.3274.1202h.8333l.3571-.1202.387-.2103.2976-.2704.2381-.3306.1488-.1202.3571-.03h.9226l.2679.03.0298.0902-.1489.5709-.1488.3005-.2976.4206-.2678.3005-.2381.2104-.2977.2103-.3273.1803-.4167.1502-.5357.1202-.4464.0601h-.6846l-.3869-.0601-.5654-.1502-.4762-.2104-.4762-.3004-.3869-.3005-.2977-.3005-.2678-.3606-.2381-.4206-.1488-.3907-.1191-.5108-.0595-.4808v-1.292l.0893-.5108.1488-.5109.2679-.57087.2976-.39063.2678-.30048.3572-.30048.5357-.33053.4167-.18029.4166-.12019.3869-.06009zm0 1.59255-.4167.03004-.1488.09015-.1786.12019-.2976.18028-.2083.2103-.1191.2404-.1488.2404-.0893.2704-.0297.2104h.7143l.0297-.0902h.0595l.0298.0902h2.5595l.0596-.0301v-.3605l-.0893-.2705-.2084-.3305-.2678-.27044-.2381-.18028-.2679-.1202-.4166-.03004z"/><path d="m15.9233 7.93359h.7738l.4762.0601.6547.18029.4762.24038.3274.24039.2381.21033.2679.36058.2381.48077.119.57087.0298 3.5457.0595.7212.0893.8413.0297.3906-.0595.0301h-1.4286l-.119-.1503-.1786-.3906-.1786.0601-.2976.2104-.3274.2103-.4166.1502-.625.1503-.2381.03h-.5953l-.7142-.1202-.4465-.1502-.4762-.2704-.3571-.3306-.2083-.2404-.2381-.5108-.0596-.1803-.0297-.661.0297-.4207.1786-.4507.2381-.3606.2381-.2103.4167-.2705.3571-.1502 1.0714-.3305.7441-.1803.744-.1202.6548-.0902.2083-.0601.0596-.1502v-.3606l-.0893-.3906-.2084-.36057-.2381-.21034-.3273-.12019-.3274-.03005h-.4167l-.3869.0601-.2976.15024-.1488.15024-.1488.24039-.1488.30048-.0893.2704-.0893.1202h-1.5476l-.0893-.0901.0298-.5409.1488-.45071.2381-.36058.2678-.30048.2381-.24038.5357-.36058.4465-.18029.6547-.15024zm1.0416 4.56731-.2083.0601-.5357.0601-.2976.0901-.1786.0601-.506.2404-.2678.1503-.2083.2403v.601l.119.1502.2381.2104.0595.0601.2976.03v.0601l.0596.0301h.9226l.4167-.1503.3273-.2103.4167-.5409.0595-.2704.0595-.0901v-.7513l-.0297-.03z"/><path d="m3.33426 7.99219h.98215l.59523.12019.4762.18029.50595.30048.29762.24038.26785.30048.26786.48077.17857.54082v.1202l-.08928.0301h-1.10119l-.38691-.1202-.23809-.1803-.32738-.24038-.4762-.24038-.35714-.09014-.20833-.03005h-.2381l-.41666.09014-.2381.12019-.29762.27044-.11905.21038v.1802l.2381.3907.17857.1502.32738.1202.92262.2103.74405.1503.77381.2404.47619.2103.32738.2103.26786.2705.20833.3004.14881.4207.05952.3305v.4808l-.08928.5108-.14881.3606-.2381.3606-.35714.3606-.50595.3004-.41667.1803-.41667.1202-.625.1202-.625.0301-.56547-.0601-.59524-.1503-.47619-.2103-.38691-.2404-.41666-.3305-.20834-.2104-.208328-.3305-.14881-.3906-.089286-.3906v-.3306l.505954-.03h.59524l.32738.03.23809.1803.11905.1503.17857.2404.2381.2403.3869.2404.38691.1202.17857.0301h.53571l.38691-.1202.26785-.1803.20834-.2404.11905-.3005-.02977-.2704-.17857-.3005-.23809-.2103-.29762-.1202-1.04167-.2705-1.22024-.3305-.50595-.1803-.29762-.1803-.32738-.2704-.208333-.2404-.178571-.4207-.059524-.2704v-.78124l.089286-.42067.148809-.39063.208333-.24038.32738-.30048.41667-.24039.35714-.15024.53572-.15024z"/><path d="m40.4161 7.99219h.5952l.6548.09014.5357.18029.4167.24038.3869.30049.2381.24038.2083.33053.2084.45072.119.36058v.0901l-.0595.0301h-1.131l-.2976-.0601-.2976-.1803-.3869-.30048-.3869-.18028-.2976-.09015-.2084-.03005h-.625l-.3869.09015-.2678.18029-.1488.18028-.0893.24034.0297.2705.1786.2404.3274.1502.7738.2103.6845.1503.5953.1502.6845.2104.625.3004.3274.2404.2678.3606.2084.4808.0297.1502v.8414l-.0595.3305-.1191.3005-.2678.4507-.2083.2404-.625.4206-.3572.1503-.5357.1502-.4762.0902-.2976.03h-.625l-.625-.0901-.625-.1803-.3572-.1803-.3571-.2704-.3274-.3005-.2976-.4207-.2083-.4207-.0596-.1502-.0892-.4507v-.1202l.0595-.0301.2678-.03h.8036l.2976.03.1786.1202.1488.1803.2083.3305.2679.2404.3571.1803.4167.1202h.6845l.4465-.1202.2976-.1803.119-.0601.0596-.1202.119-.2103.0298-.2103-.0893-.3005-.1786-.2404-.2976-.1803-.5357-.1502-.8929-.2404-1.0714-.3005-.5357-.1803-.2976-.1803-.2381-.2103-.3274-.4507-.1488-.3306-.0596-.1502-.0297-.3005v-.4507l.0595-.39062.2381-.45072.2679-.30048.2381-.21034.625-.36058.4761-.18028.5358-.1202z"/><path d="m8.69057 6.25h1.75593v1.86298h1.2798l.0893.03005.0297.09014-.0297 1.14183-.1488.0601-1.1608.03004-.0297 1.11176v3.1551l.0297.3005.1489.2704.2381.1202.4166.0901.4464.0301.0596.0901v1.1418l-.0298.0601-.625.0301h-.4464l-1.01193-.0301-.29762-.0901-.29761-.1803-.20834-.2404-.14881-.3005-.05952-.2704-.02976-.7812v-3.4255l-.02976-1.02166-.17858-.0601h-.77381l-.05952-.12019v-1.11178l.02976-.06009.74405-.0601.20833-.0601.02977-.06009.02976-1.71274z"/><path d="m24.0173 9.49609h.744l.1489.0601-.0298.0601h-.2976l-.2084-.0601-.2976.0601-.2678.06009-.4167.21034-.2976.27048-.1786.2403-.1786.3907-.0892.2103-.0596.3906-.0595.0902v.6009l.0595.0601.0893.3906.0595.1503.0596.2704.0892.2705.1191.2103.2679.3606.238.1502.387.2103-.0893.0301-.2381-.0902-.2679-.1802-.2678-.2705-.2381-.4206-.1786-.5409-.0595-.1503-.1191-.5108-.0297-.0601v-.3605l.0595-.2404.0893-.4207.2381-.5409.2083-.3004.2083-.21038.2679-.18029.2381-.12019z"/><path d="m32.857 9.46484.4166.03005.3274.12019.4464.27044.2679.27038.1786.3005.119.3606.0298.3906-.0596.0301h-.4166v-.0301l.3571-.03.0298-.0301-.0893-.5108-.1786-.3305-.2678-.3005-.2976-.24038-.2679-.12019-.4167-.03005h-.3274l-.4166.03005-.1488.09015-.1786.12019-.2976.18033-.2084.2403-.0892.1803-.1488.2404-.0893.2704-.0596.2104-.0595-.1202.1786-.5108.1786-.3306.2976-.33048.2083-.03005v-.0601h.0595l.0298-.09014.3571-.15024.1489-.0601z"/><path d="m17.2621 12.3789h.4762l.0893.0601h-.0893v.0601h.0595l.0298.1502v.3306l-.0298.2404-.0595.03-.0298-.7212h-.744l-.2084.0601-.5357.0601-.2976.0902-.1786.0601-.5059.2404-.2679.1502-.1785.2103v.601l.0892.0901v.0601l.1191.0601.119.1503-.0595.0601-.119-.0902v-.0601l-.1191-.0601-.119-.1502-.0893-.1803v-.3005l.1786-.3605.238-.2104.387-.1803.3273-.1202.6548-.1803.625-.0901z"/><path d="m25.5348 10.0977.119.03.2084.3005.1488.3906.0893.3005.0297.2404.0298.0901.0297.3305v.3005l-.0595.3907-.2083.631-.1786.3605-.0893.0902h-.0595l-.0595.1803-.2976.3005-.1488.0601-.0298-.0601h.0595l.0298-.0902.2381-.2103.0297-.0601h.0596l.0595-.1202.1488-.1503.119-.2403.1191-.3306.0595-.2404.0595-.1802v-1.1118l-.0892-.1803-.0596-.3606-.2083-.4207z"/><path d="m17.7075 13.2812.0595.0601-.119.3606-.1786.2404-.3274.3606-.2678.1803-.3869.1502-.5655.0301-.2976-.0301-.3869-.1202-.0596-.0601.0596-.03h.1785l.0596.03v.0601h.9821l.4167-.1502.3273-.2104.2679-.3605.119-.1503.0596-.2704z"/><path d="m15.4169 12.832h.119v.0601l-.4762.2404-.2381.2103-.0297.0601v.601l.0892.0902v.06l.1191.0601.119.1503-.0595.0601-.119-.0902v-.0601l-.1191-.0601-.119-.1502-.0893-.1803v-.3005l.1786-.3605.238-.2104z"/><path d="m33.4516 9.55469.4167.21033.2679.21034.2381.27044.1488.3005.0893.2704.0297.3906-.0595.0301h-.4167v-.0301l.3572-.03.0297-.0301-.0893-.5108-.1785-.3305-.2679-.3005-.2976-.24038-.2976-.15024z"/><path d="m22.5586 12.4102h.0595l.1191.2704.0595.2704.0893.2705.119.2103.2679.3606.2381.1502.3869.2103-.0893.0301-.2381-.0902-.2679-.1802-.2678-.2705-.2381-.4206-.1786-.5409-.0595-.1503z"/><path d="m25.5352 10.0977.119.03.2083.3005.1488.3906.0893.3005v1.2019h-.0297l-.0298-1.0216-.0893-.1803-.0595-.3606-.2083-.4207z"/><path d="m24.018 9.49609h.7441l.1488.0601-.0298.0601h-.2976l-.2083-.0601-.2976.0601-.2679.06009-.4464.21034.0595-.12019.2381-.15024z"/><path d="m17.7078 13.2812.0595.0601-.119.3606-.1786.2404-.3274.3606-.2679.1803-.0892-.0301.119-.1202.2976-.1803.2679-.3605.119-.1503.0596-.2704z"/><path d="m16.8447 12.4688h.119v.06l-.2083.0601-.5357.0601-.2976.0902-.1786.0601-.2083.0601.0595-.0902.6547-.2103.2679-.0601z"/><path d="m31.4581 10.1562.0298.0601-.119.2404-.1488.2404-.0893.2704-.0596.2104-.0595-.1202.1786-.5108.1488-.2705z"/><path d="m22.4697 11.4766h.0297l.0298.6009.0595.0601.0298.2705h-.0595l-.1488-.4508v-.3605z"/><path d="m25.7134 13.4023v.0902l-.1191.0601-.0595.1803-.2976.3005-.1488.06-.0298-.06h.0595l.0298-.0902.2381-.2103.0297-.0601h.0596l.0595-.1202z"/><path d="m22.5586 12.4102h.0595l.1191.2704.0595.2704.0893.2705-.0298.0901-.0595-.0901-.1786-.5409-.0595-.1503z"/><path d="m14.7329 13.6133h.0297l.0298.3906.0893.0902v.06l.119.0601.1191.1503-.0595.0601-.1191-.0902v-.0601l-.119-.0601-.1191-.1502z"/><path d="m14.7323 13.3711.0596.03-.0596.5109-.0595.0601-.0595-.0902v-.3005l.0893-.1803z"/><path d="m31.9649 9.70703h.0596l-.0298.12019-.2381.15024-.2381.21034-.0595-.03.0595-.1202.2083-.18033h.1489v-.06009h.0595z"/><path d="m17.7383 12.6211.0893.03v.3306l-.0298.2404-.0595.03z"/><path d="m17.3506 14.0039v.0902l-.2381.2403-.2381.1503-.0892-.0301.119-.1202.2976-.1803z"/><path d="m25.5352 10.0977.119.03.2083.3005-.0297.1202-.1191-.1503z"/><path d="m15.2373 14.4219h.1785l.0596.03v.0601h.0595v.0601l-.2976-.0601-.0596-.0601z"/><path d="m24.7924 14.0625h.2679l-.0893.0901-.1488.0601h-.1191v-.0601h.0595z"/><path d="m16.0411 12.6211h.0595l-.0297.0901-.2976.0601-.1786.0902-.0595-.0301.1488-.0901z"/><path d="m22.4707 12.0781.1191.0601.0297.2705h-.0595l-.0893-.2404z"/><path d="m31.1605 10.6953h.0298l-.0298.2103-.0893.2705-.0595-.1202.1191-.3305z"/><path d="m25.209 9.76562.119.0601.1191.09015v.06009l.119.06014-.0595.0601-.2976-.30053z"/></g></svg>