<svg width="51" height="13" viewBox="0 0 51 13" fill="currentColor" xmlns="http://www.w3.org/2000/svg">
<path d="M15.3647 1.23047L20.4448 1.25487V11.5268L20.4199 11.5512H15.3647L15.3398 11.5024V1.25487L15.3647 1.23047Z" fill="currentColor"/>
<path d="M8.71484 4.30469H13.521L13.5459 4.32909V11.5267L13.521 11.5511H8.71484V4.30469Z" fill="currentColor"/>
<path d="M1.91797 7.13281H7.02295V11.549H1.91797V7.13281Z" fill="currentColor"/>
<path d="M38.5 6.40234H39.8447L39.8696 9.47659L39.9692 9.86697L40.1187 10.111L40.293 10.2818L40.4922 10.4037L40.7661 10.4769H41.3887L41.6875 10.3793L41.9863 10.111L42.1357 9.86697L42.2354 9.47659L42.2603 6.40234H43.6299V11.5505H42.2852L42.2603 11.5017V11.1113L42.2852 10.9649L42.1606 11.0381L41.812 11.3065L41.3887 11.5017L40.9653 11.5993L40.5669 11.6237L40.1187 11.5749L39.6953 11.4529L39.4214 11.3065L39.0479 11.0137L38.7988 10.6965L38.5996 10.2574L38.5 9.76938V6.40234Z" fill="currentColor"/>
<path d="M46.6182 6.30469H47.2158L47.7139 6.37788L48.0874 6.52428L48.3862 6.69507L48.6353 6.89026L48.8594 7.18304L49.0088 7.47583L49.1084 7.86621V7.9882L49.0586 8.0126H47.8135L47.7388 7.76862L47.6392 7.59782L47.3652 7.42703L47.1162 7.35384H46.6431L46.3442 7.45143L46.1948 7.62222L46.145 7.76862L46.1699 7.9882L46.2446 8.1102L46.4688 8.25659L46.8174 8.37859L47.8135 8.64697L48.2866 8.81776L48.6104 9.01295L48.8096 9.18375L49.0088 9.42773L49.1333 9.74492L49.1582 9.94011V10.3061L49.0337 10.6721L48.8594 10.9405L48.6851 11.1357L48.3364 11.3552L48.0874 11.4772L47.5645 11.5992L47.3901 11.6236H46.6929L46.3442 11.5748L45.9209 11.4528L45.4976 11.2332L45.2236 11.0137L45.0493 10.8429L44.8501 10.5257L44.7505 10.2817L44.6758 9.98891V9.94011L46.0454 9.91571L46.145 10.1841L46.3193 10.3793L46.5435 10.5257L46.7676 10.5745H47.3652L47.5645 10.5013L47.7637 10.3305L47.8135 10.2573L47.8384 10.0133L47.7637 9.81812L47.3652 9.62292L46.8921 9.47653L46.145 9.28134L45.647 9.11055L45.2983 8.89096L45.0493 8.64697L44.9248 8.45178L44.8252 8.159V7.59782L44.9497 7.25624L45.1489 6.93906L45.3979 6.71947L45.7217 6.52428L46.1948 6.37788L46.6182 6.30469Z" fill="currentColor"/>
<path d="M22.437 5.03516H27.3677L27.3926 5.05956V6.0843H25.5747V11.5252L25.5498 11.5496H24.2549L24.23 11.5252L24.2051 11.3056L24.23 6.0843H22.4121V5.05956L22.437 5.03516Z" fill="currentColor"/>
<path d="M37.4771 6.30469H37.6016V7.67102L37.0537 7.69542L36.73 7.74422L36.4312 7.86621L36.1821 8.0858L36.0576 8.32979L35.9829 8.67137L35.958 11.5504H34.6133V6.40228H35.958V6.98785L35.9331 7.15865L36.4312 6.67067L36.7798 6.47548L37.0288 6.37788L37.4771 6.30469Z" fill="currentColor"/>
<path fill-rule="evenodd" clip-rule="evenodd" d="M31.0278 6.30469H30.5547L30.0815 6.37788L29.6831 6.49988L29.21 6.74387L28.8862 6.98785L28.6123 7.28064L28.4629 7.47583L28.2637 7.86621L28.1392 8.23219L28.0645 8.62257V9.33014L28.1143 9.62292L28.2388 10.0621L28.438 10.4281L28.6621 10.7453L28.936 11.0137L29.2847 11.2576L29.6831 11.4528L30.1064 11.5748L30.4551 11.6236H31.0776L31.4512 11.5748L31.8247 11.4772L32.2231 11.3064L32.5469 11.1113L32.7959 10.8917L33.02 10.6477L33.2192 10.3793L33.4185 9.98891L33.543 9.57413L33.5928 9.18375V8.69577L33.5181 8.23219L33.3936 7.86621L33.1943 7.50023L32.9453 7.15865L32.771 6.98785L32.3477 6.69507L31.9741 6.49988L31.5508 6.37788L31.0278 6.30469ZM30.9282 7.42716H30.6542L30.4799 7.45156L30.3305 7.50036L30.0317 7.64675L29.8076 7.84194L29.6083 8.11033L29.5087 8.32992L29.434 8.6715V9.28147L29.5336 9.69625L29.6581 9.94024L29.9072 10.233L30.1811 10.3794L30.3554 10.4526L30.7787 10.5258L31.0029 10.5014L31.3764 10.4038L31.6752 10.233L31.8495 10.0622L32.0239 9.81825L32.0986 9.64746L32.1982 9.25707V8.6471L32.1733 8.50071L32.0737 8.20793L31.8993 7.93954L31.725 7.76875L31.5009 7.59796L31.2021 7.47596L30.9282 7.42716Z" fill="currentColor"/>
</svg>
