<svg width="37" height="13" viewBox="0 0 37 13" fill="none" xmlns="http://www.w3.org/2000/svg">
<g clip-path="url(#clip0_171_17676)">
<path d="M5.91901 0.546875H7.94506V6.74229C7.94506 7.4379 7.77973 8.04658 7.44909 8.5683C7.11841 9.09002 6.65521 9.49682 6.0594 9.78876C5.4636 10.0776 4.76796 10.2219 3.97253 10.2219C3.17709 10.2219 2.48147 10.0776 1.88566 9.78876C1.28986 9.49682 0.826636 9.09002 0.49598 8.5683C0.165327 8.04658 0 7.4379 0 6.74229V0.546875H2.02604V6.56992C2.02604 7.11339 2.20384 7.56214 2.55945 7.91616C2.91506 8.27018 3.38608 8.44719 3.97253 8.44719C4.5621 8.44719 5.03313 8.27018 5.38561 7.91616C5.7412 7.56214 5.91901 7.11339 5.91901 6.56992V0.546875Z" fill="currentColor"/>
<path d="M9.57422 12.9991V2.9291H11.5394V4.13092H11.6283C11.7188 3.93528 11.8467 3.73807 12.012 3.53931C12.1773 3.34058 12.3957 3.17444 12.6671 3.0409C12.9385 2.90426 13.2738 2.83594 13.6731 2.83594C14.2003 2.83594 14.6838 2.97258 15.1236 3.24586C15.5634 3.51605 15.9159 3.92439 16.1811 4.47095C16.4493 5.01443 16.5835 5.69608 16.5835 6.51592C16.5835 7.31402 16.454 7.98791 16.1951 8.53757C15.9362 9.08413 15.5868 9.49872 15.147 9.78131C14.7071 10.0608 14.2143 10.2005 13.6684 10.2005C13.2816 10.2005 12.9525 10.1369 12.6811 10.0096C12.4129 9.88226 12.1929 9.72232 12.0214 9.52978C11.8529 9.33411 11.7219 9.13694 11.6283 8.93818H11.5675V12.9991H9.57422ZM11.5254 6.50661C11.5254 7.14323 11.6564 7.65564 11.9184 8.04381C12.1836 8.42889 12.5563 8.62143 13.0367 8.62143C13.5265 8.62143 13.9008 8.42577 14.1597 8.0345C14.4186 7.64011 14.5481 7.13079 14.5481 6.50661C14.5481 5.8855 14.4186 5.38243 14.1597 4.99735C13.9039 4.60918 13.5296 4.41505 13.0367 4.41505C12.5532 4.41505 12.1805 4.6045 11.9184 4.98337C11.6564 5.35914 11.5254 5.86687 11.5254 6.50661Z" fill="currentColor"/>
<path d="M19.9054 0.546875V10.0869H17.9121V0.546875H19.9054Z" fill="currentColor"/>
<path d="M21.5026 10.085V2.93001H23.4959V10.085H21.5026ZM22.5039 2.00768C22.2107 2.00768 21.958 1.90986 21.7459 1.71422C21.5338 1.51547 21.4277 1.2779 21.4277 1.00151C21.4277 0.725126 21.5338 0.489109 21.7459 0.293467C21.958 0.0978222 22.2107 0 22.5039 0C22.8003 0 23.0545 0.0978222 23.2666 0.293467C23.4787 0.489109 23.5848 0.725126 23.5848 1.00151C23.5848 1.2779 23.4787 1.51547 23.2666 1.71422C23.0545 1.90986 22.8003 2.00768 22.5039 2.00768Z" fill="currentColor"/>
<path d="M28.9572 2.92984V4.42047H27.5301V10.0848H25.5368V4.42047H24.5215V2.92984H25.5368V2.41278C25.5368 1.63331 25.7599 1.05259 26.2059 0.670613C26.6552 0.288642 27.2182 0.0976562 27.8951 0.0976562C28.2008 0.0976562 28.48 0.120947 28.7326 0.16753C28.9884 0.214112 29.1787 0.256036 29.3035 0.293301L28.9526 1.78393C28.8746 1.75908 28.7779 1.73579 28.6625 1.71405C28.5471 1.69232 28.4301 1.68144 28.3115 1.68144C28.0183 1.68144 27.814 1.74976 27.6986 1.88641C27.5863 2.01994 27.5301 2.20782 27.5301 2.45005V2.92984H28.9572Z" fill="currentColor"/>
<path d="M32.3067 10.2467L32.1897 10.5494L31.2383 12.9981H33.3886L34.2064 10.815L36.9998 2.88672H34.8895L33.3875 8.14117H33.3127L31.8247 2.88672H29.7285L32.3067 10.2467Z" fill="currentColor"/>
</g>
<defs>
<clipPath id="clip0_171_17676">
<rect width="37" height="13" fill="currentColor"/>
</clipPath>
</defs>
</svg>
