<svg fill="none" height="15" viewBox="0 0 23 15" width="23" xmlns="http://www.w3.org/2000/svg" xmlns:xlink="http://www.w3.org/1999/xlink"><clipPath id="a"><path d="m0 0h23v15h-23z"/></clipPath><g clip-path="url(#a)"><path clip-rule="evenodd" d="m22.3051 2.08016.1259-.27641c.4263-.941452.2671-1.557227.1924-1.7542754-.0152-.03968312-.0595-.0602089-.0996-.04378825-.1979.07662965-.7695.36809565-1.1958 1.30954365l-.126.27642s-.3072-.00137-.4207.24768l-.2048.45156c-.0249.05611.0194.11632.0816.11084.0388-.0041.0886-.01505.1481-.04105.018-.0082.036-.01367.0539-.01914.1329-.03421.2561.00683.3046.02735.0138.00548.0207.00958.0207.00958l.1384.06158-.0913.19978c-.0153.03392-.0025.07248.0286.09126-.0067.01196-.0135.02397-.0203.03603 0 0 0 .00138-.0014.00138-.0249.04515-.0512.09169-.0775.13819-.0221.04106-.0457.08212-.0692.12317-.0115.01978-.0228.03981-.0341.06002-.0146.0259-.0292.05204-.0448.07818-.0095.01629-.0189.03276-.0285.04932-.0169.02939-.0341.05914-.0518.0889 0 0 0 .00134-.0013.00134-.1232.20939-.2561.42833-.3959.64727 0 0 0 .00138-.0013.00138-.0363.05752-.0743.11589-.1119.17381-.0098.01506-.0196.03012-.0293.04512 0 0 0 .00135-.0014.00135-.0318.04929-.0637.09716-.0969.14507l-.0014.00138c-.0484.07252-.0982.14642-.1494.21756-.0346.05063-.0706.10127-.1066.15052-.0498.0698-.1011.13959-.1522.20801-.0886.11768-.1786.23397-.2699.3462-.036.04515-.072.08892-.1094.13273-.0733.08758-.1481.17241-.2242.25589-.0373.04105-.0747.08072-.1135.12043-.3031.31745-.6158.58292-.93.76353-.0983.05611-.1965.1054-.2948.14369l-.0009.00028c-.0163.00538-.0326.01077-.0475.01613-.1288.04108-.245.05611-.3502.05063.0049-.0082.0098-.01628.0147-.02433.013-.02153.0258-.04271.0379-.0646.0115-.01919.0224-.03835.0331-.05718.006-.01071.0121-.02134.0181-.03178.0415-.078.0831-.1601.1204-.24217.0152-.03288.0305-.06707.0429-.09992.0277-.06707.054-.13546.0747-.20663.0056-.01779.0111-.03557.0153-.05198.0207-.0698.036-.14232.0484-.21487.0028-.01913.0042-.03692.0055-.05608.0056-.06156.0083-.12315.007-.18337-.0014-.18199-.0319-.3599-.0927-.54049-.0097-.02874-.0194-.05749-.0319-.08485-.0028-.00695-.0056-.01427-.0084-.02155-.0027-.00708-.0055-.01415-.0082-.02088-.0429-.10399-.101-.19292-.1716-.26409-.0055-.00686-.0125-.01369-.0194-.01917-.0124-.01362-.0261-.02452-.0399-.03542-.0346-.02874-.0708-.05354-.1096-.07405-.0304-.0164-.0622-.03147-.0968-.04242l-.0249-.00821c-.1274-.04105-.2686-.04377-.4125-.0041-.0415.01096-.0816.02602-.1232.04381-.0174.00756-.0332.01597-.0493.02458-.0043.00226-.0086.00456-.0129.00685-.0065.00411-.0129.00806-.0194.012-.0129.0079-.0258.01583-.0388.02498l-.0539.04105-.0499.04516-.0235.02461c-.0235.02461-.0443.05063-.065.078-.0817.10947-.144.23538-.1896.36126-.0153.04242-.0291.08347-.0416.12587-.011.0364-.0199.0728-.0285.10825-.0011.00453-.0022.00906-.0033.01356-.0581.27777-.0678.59933-.0014.90174.0037.01917.0086.0383.0135.05743.0025.00958.005.0192.0073.02878.0051.02146.0118.04292.0184.06379.0022.00711.0044.01412.0065.02107.018.05611.0401.11084.0636.1642.0485.10674.1094.20663.1855.29559.018.02189.0374.04378.0581.06432.0416.04239.0858.08072.1343.11767-.0125.01368-.0263.02875-.0401.04378-.007.00958-.0153.01778-.025.02736l-.0007.00083c-.0219.02437-.0438.0487-.0685.07173-.0097.01092-.0207.02323-.0332.03419-.0056.00618-.0114.01203-.0174.01785-.0058.00581-.0117.0116-.0172.01772l-.0207.02054c-.0202.02121-.0403.03989-.0617.05973l-.002.00183c-.0152.01506-.0319.03012-.0471.04381-.0062.00575-.0124.01151-.0184.01723-.0127.01194-.0252.02367-.0383.03475-.1536.13821-.3142.26684-.4803.38314-.4553.32979-1.0781.60618-1.5943.50219.2574-.43377.4567-.89354.537-1.33279.029-.26137.0318-.52822-.0194-.78545-.0083-.04105-.0166-.08076-.0277-.12043-.0056-.02461-.0138-.05063-.0221-.07524-.0084-.02737-.018-.05477-.0277-.08211l-.0291-.07389-.029-.0657c-.0153-.03147-.0305-.06018-.0485-.08893-.0111-.01913-.0235-.03692-.0359-.0547-.0125-.01779-.025-.03426-.0388-.05066-.2561-.31473-.6726-.39548-1.0713-.21346-.1314.06428-.2463.14776-.3459.24765-.0429.04243-.0831.08758-.1205.13549-.0373.04788-.0706.09851-.1038.15049-.0318.05201-.0608.10674-.0872.16286-.0262.05611-.0498.11495-.0705.17378-.1163.32703-.155.69515-.1274 1.04682.0056.0739.0153.14642.0263.21759.0022.01218.0044.0248.0066.03735.002.01139.0039.02274.0059.03379l.0002.00098c.0096.0462.0193.09239.0316.13858.018.06842.0374.13412.0609.19843.0305.08621.0664.16693.1066.24358.0817.16831.1979.32838.3363.46663.0194.01916.0401.03829.0609.05743-.0087.00964-.0171.01953-.0256.02941-.0132.01537-.0265.03089-.0408.04589-.0443.04926-.09.09851-.1356.14639-.0236.02464-.0471.04791-.0706.07117-.2824.28188-.5993.52411-.9467.70473-.2782.13683-.5716.21208-.8442.19157-.0983-.00824-.281-.05611-.281-.05611s.7307 1.03725 2.3113-.1519c.0208-.01641.411-.4324.5826-.65134.0444.01506.0886.02737.1343.0383.8373.20256 1.6912-.26272 2.3085-.75943.3765-.312.7073-.66505.9924-1.0523.4871.08345 1.0199-.12725 1.3936-.42012.1232-.09575.245-.2025.3654-.31745.274-.26271.537-.57471.7889-.91135.047-.06294.0941-.12723.1398-.19295l.0913-.13136.0457-.06566c.0305-.04381.0609-.08896.09-.13412.3113-.47072.5992-.97291.8553-1.45598.0484-.09168.0968-.18336.1425-.27367.0376-.07206.0734-.14415.1088-.21557.009-.01803.0179-.03604.0268-.05399.0418-.08247.0822-.16495.1215-.24514l.0004.00016c.0373.01643.0802 0 .0968-.03693l.0914-.19978.1384.06156s.0083.00274.0207.0096c.0471.02188.1606.0862.2229.20661.0083.01643.0152.03422.0221.05201.0207.06156.0443.10535.0678.13683.036.04926.1135.04241.1384-.01369l.2048-.45157c.1163-.24767-.0899-.47346-.0899-.47346zm-.2879-.82513c-.1301-.05748-.1882-.208-.1301-.336629.0582-.128627.2104-.186101.3405-.128626.1301.057471.1882.207994.1301.336625-.0582.12863-.2104.1861-.3405.12863zm-11.0457 4.58132c-.0139-.12998-.0291-.23538-.0429-.32979l-.0001-.00073c-.0138-.08458-.0277-.1692-.0428-.25378-.0015-.00603-.0032-.01292-.0049-.02017-.0013-.00588-.0027-.01197-.0041-.01806-.0031-.01372-.0063-.02743-.009-.03839-.0761-.3079-.4747-.49675-.7862-.42012-.23382.05749-.64764.36811-.56462.94282 0 0 .73492 4.30497-1.694 6.70107-.31277.3092-.75844.3735-1.13488.1942-.41519-.2175-.61588-.7047-.76259-1.1343-.01662-.0493-.03183-.0986-.04707-.1478.70862-1.0414 1.24286-2.2086 1.41585-3.47025.0498-.25726-.01245-.54465-.1813-.75398-.29618-.39003-.88992-.48716-1.29404-.20391-.14377.09613-.23742.22439-.33323.35563l-.00309.00425c-.73907 1.00442-.91899 2.30575-.75014 3.50166.01938.1191.03876.2368.0609.3558-.2948.3818-.62002.7417-.96465 1.0783-.55914.5487-1.18609 1.0359-1.9113 1.3356l-.02906.0123c-.01246-.0178-.02907-.0452-.04291-.0753-.14807-.2966-.19131-.6596-.23153-.9971l-.0079-.0661c-.08996-.8114-.0609-1.6393.07474-2.44121.10795-.64179.28372-1.2671.51761-1.87742.29341-.75946.65463-1.48197 1.12104-2.1566.25466-.37494.51762-.75533.79859-1.10976l.02766-.03284c.00138-.00273.00279-.00273.00279-.00273v.00273c0 .0007-.00037.00137-.0007.00205-.00037.0007-.00071.00138-.00071.00208.3903-.4598.32939-1.14536-.13564-1.53122-.48162-.40234-1.22069-.31613-1.59159.18881-.02239.02914-.05382.07414-.07804.10886l-.01192.01705c-.38475.5966-.7266 1.19458-1.05322 1.82679-1.072605 2.17845-1.554236 4.68401-1.114125 7.08691l.000681.0035c.09941.5119.196436 1.0115.453272 1.488.365375.7116 1.090592 1.0865 1.840722.6609 1.0726-.5459 1.94593-1.4368 2.6891-2.3468.12181.2655.27821.5173.48303.7445.55363.6144 1.39509.7772 2.14382.4433 1.16812-.5214 1.95837-1.8405 2.44835-3.109.1051-.2695.1951-.53502.2726-.79088.0374-.1218.072-.24223.1038-.35853.0498-.18064.0941-.36263.1342-.546.1274-.57744.2077-1.16449.2519-1.75561.0264-.35305.0249-.71296-.0124-1.06873zm-5.36579 4.0244c-.00138-.65406.18268-1.30129.5716-1.82678-.04707.47348-.14116.94693-.34463 1.37936-.07198.15049-.14671.30104-.22697.44742zm8.47009-2.50677c.0692-.16148.1287-.32568.155-.49402.0263-.21208.0111-.45429-.0415-.64858-.0166-.05201-.0346-.10402-.0554-.14918-.0055-.01368-.0124-.02736-.0194-.03967-.0013-.00205-.0023-.00407-.0034-.00612-.001-.00205-.0021-.00413-.0035-.00622-.0138-.02326-.029-.04515-.047-.06293-.0512-.05336-.119-.0739-.2132-.04106-.065.02054-.1162.05474-.1619.09851-.0277.02737-.0526.05749-.0775.09172-.2311.35712-.2616.86893-.1481 1.30133.0083.0352.0192.06906.0301.10294l.0004.00108c.0027.00805.0058.01643.0088.02482.0032.0087.0063.01742.0092.02578.0235.06569.0512.12998.083.19022.0291.05336.0595.10399.0927.14914.0125.01779.0264.03558.0402.05202l.0207.02461c.0942-.14915.1786-.30242.2575-.45429l.0012-.00269c.0245-.05247.049-.10494.0721-.15741zm3.4074-1.58734c.007-.0315.0139-.06431.018-.09716.0055-.03285.0083-.06569.0055-.09851.0028-.12863-.029-.36811-.1107-.53232l-.0004-.00082c-.004-.00793-.008-.01583-.012-.02244-.0083-.01503-.0166-.03009-.0263-.04378l-.0002-.00036c-.0041-.00671-.0082-.01344-.0137-.0188-.0041-.00548-.0096-.01234-.0152-.01779-.0055-.00685-.0111-.01233-.0166-.01644-.0332-.03146-.0706-.05198-.1135-.05611-.0277-.00134-.0581.00548-.0886.01506-.0073.00181-.0146.00484-.022.00787-.0037.00153-.0075.00306-.0112.00444-.0024.00162-.0053.00275-.0084.00395-.0022.00089-.0045.00177-.0068.00291-.0083.00548-.0166.01233-.0249.01916-.0318.02737-.0595.06156-.0831.09989-.0581.09578-.0913.22031-.1148.33799-.0014.00615-.0025.01197-.0035.01778-.001.00582-.0021.01167-.0035.01782-.0082.04922-.0138.09851-.0179.14914-.0028.04516-.0056.09169-.0056.13684-.0014.23262.0457.45976.1412.64313.018.03285.036.06432.0567.09444.0208.03144.0429.06018.0665.0862.011.01366.0235.02599.036.03833.0055-.00891.0114-.01781.0173-.02669.0059-.00891.0117-.01779.0173-.0267v-.00137c.018-.02734.0359-.05474.0526-.08211l.0003-.00049c.0165-.0258.033-.05167.0481-.07751l.0249-.04515c.0166-.03009.0332-.06018.0484-.09034.0083-.01503.0167-.03009.0236-.04515.0152-.03009.0304-.06021.0443-.09168.0207-.04512.0401-.09303.0567-.13956.0166-.0465.0305-.09441.0415-.14367z" fill="currentColor" fill-rule="evenodd"/></g></svg>