<svg width="47" height="21" viewBox="0 0 47 21" fill="none" xmlns="http://www.w3.org/2000/svg">
<path d="M16.3903 6.02538L15.5229 11.4154H15.3495L14.5202 6.02538L10.7377 6L9.87038 11.3816L9.69269 11.3774L8.86764 6.02538L6.18945 6.00847L7.89455 16.1497L11.6389 16.1751L12.5232 10.747H12.7009L13.5471 16.1878L17.2915 16.209L19.0685 6.04231L16.3903 6.02538Z" fill="currentColor"/>
<path d="M23.4326 9.90277L21.9572 9.88997L22.6058 6.01699L19.9264 6L18.2305 16.1242L20.9057 16.1412L21.5587 12.2682L23.0341 12.2767L22.3854 16.1497L25.0606 16.1667L26.7607 6.04672L24.0855 6.02973L23.4326 9.90277Z" fill="currentColor"/>
<path d="M29.9404 6H27.2643L27.2637 16.1667H29.9399L29.9404 6Z" fill="currentColor"/>
<path d="M33.3845 13.7767L35.2789 8.07577L35.2919 6.03396L30.4586 6L30.4457 8.37719L32.3401 8.38992L30.4543 14.0696L30.4414 16.1327L35.2531 16.1667L35.2703 13.7895L33.3845 13.7767Z" fill="currentColor"/>
<path d="M38.7361 13.7758L40.6305 8.07242L40.6435 6.02973L35.8102 6L35.7973 8.37817L37.6917 8.3909L35.8059 14.0688L35.793 16.1369L40.6047 16.1667L40.6219 13.7885L38.7361 13.7758Z" fill="currentColor"/>
<path d="M28.6089 2.66798C27.8699 2.66441 27.2673 3.25779 27.2637 3.99415C27.2601 4.73052 27.8556 5.33105 28.5946 5.33462C29.3335 5.33819 29.9362 4.74481 29.9398 4.00845C29.9434 3.27209 29.3479 2.67513 28.6089 2.66798Z" fill="currentColor"/>
</svg>
