<svg width="43" height="14" viewBox="0 0 43 14" fill="none" xmlns="http://www.w3.org/2000/svg">
<g clip-path="url(#clip0_2064_17511)">
<path d="M4.41423 5.05259L4.64454 0.265625H1.65054L1.61215 8.94677L0 13.7527H3.03238L4.56776 9.17472L10.4406 0.265625H7.04357L4.41423 5.05259Z" fill="currentColor"/>
<path d="M4.20508 13.7527H7.29502L8.44658 11.3213H10.9032L10.4618 13.7527H13.379L15.3558 0.265625H11.2678L4.20508 13.7527ZM12.3426 3.15301L11.3446 8.77581H9.67488L12.3426 3.15301Z" fill="currentColor"/>
<path d="M21.1107 7.97797L21.4945 0.265625H18.1935L13.6641 13.7527H16.447L19.1531 5.69847L18.7308 13.7527H21.9551L26.4845 0.265625H23.7016L21.1107 7.97797Z" fill="currentColor"/>
<path d="M30.6039 2.41248C31.0837 2.41248 31.2757 2.88739 31.3142 4.48305L34.0201 3.57123C34.0393 1.55767 33.0413 0 30.9111 0C28.1857 0 26.4009 2.37449 24.9231 6.61058C23.4452 10.8467 24.3281 13.981 26.6312 13.981C27.5524 13.981 28.1282 13.6201 28.7806 12.8033L28.608 13.753H30.7767L33.3485 6.11668H29.203L28.3585 8.66214H29.8171L29.7594 8.8331C29.3373 10.1058 28.5696 11.5495 27.7635 11.5495C26.8999 11.5495 26.8231 10.3908 27.9746 6.9715C29.126 3.55225 29.7402 2.41248 30.6039 2.41248Z" fill="currentColor"/>
<path d="M36.1894 14.0005C38.5692 14.0005 40.5653 11.854 42.0239 7.52293C43.3863 3.49578 43.2522 0.0195312 39.6054 0.0195312C37.2257 0.0195312 35.2488 2.16607 33.771 6.49715C32.3893 10.5433 32.5427 14.0005 36.1894 14.0005ZM36.4772 11.5881C35.3258 11.5881 36.074 9.17558 36.8226 6.87706C37.9742 3.34382 38.6458 2.43201 39.3177 2.43201C40.4691 2.43201 39.7208 4.84451 38.9723 7.143C37.8206 10.6762 37.149 11.5881 36.4772 11.5881Z" fill="currentColor"/>
</g>
<defs>
<clipPath id="clip0_2064_17511">
<rect width="43" height="14" fill="currentColor"/>
</clipPath>
</defs>
</svg>
