<svg width="63" height="12" viewBox="0 0 63 12" fill="none" xmlns="http://www.w3.org/2000/svg">
<g clip-path="url(#clip0_2162_17311)">
<path d="M16.9726 0L1.10053 0.00805249C0.464666 0.00805249 0 0.467045 0 1.09514V10.6776C0 11.3057 0.464666 11.7647 1.10053 11.7647L16.9726 11.7567C17.6084 11.7567 18.0731 11.2977 18.0731 10.6696V1.08709C18.0812 0.458993 17.6166 0 16.9726 0ZM8.59227 7.63376V8.77722H2.51084V6.77216C3.48092 6.53059 4.87494 6.18433 5.52708 5.99911C6.83956 5.62064 7.16565 5.30659 7.16565 4.67045C7.16565 3.93767 6.55424 3.58336 5.5597 3.58336C4.6059 3.58336 3.83147 3.89741 3.87223 5.14555H2.3967C2.31518 3.66388 3.11409 2.42381 5.51894 2.42381C7.81782 2.42381 8.66563 3.38205 8.66563 4.58188C8.66563 5.50791 8.33955 6.28901 6.83142 6.748C5.77166 7.07009 4.72004 7.27141 3.67657 7.45661V7.60962L8.59227 7.63376ZM15.9617 8.11692H14.8449V8.95438H13.565V8.11692H9.44007V6.16821C11.3313 5.19386 12.5786 3.43842 12.8476 2.54459H14.5269C13.4998 4.44499 11.6656 6.2568 10.5488 6.81242V7.03788H13.565V5.45155H14.8449V7.03788H15.9617V8.11692Z" fill="currentColor"/>
<path d="M30.4884 2.75781H23.9609V3.88409H26.5394V9.14017H27.9101V3.88409H30.4884V2.75781ZM37.1833 2.75781H30.6559V3.88409H33.2341V9.14017H34.6048V3.88409H37.1833V2.75781ZM39.2981 7.92805V2.75781H37.9491V9.14017H43.443V7.92805H39.2981Z" fill="currentColor"/>
<path d="M42.3307 0.128906H25.0927C22.0644 0.128906 19.6094 2.54951 19.6094 5.53547V6.28291C19.6094 9.26887 22.0644 11.6895 25.0927 11.6895H42.3307C45.3591 11.6895 47.814 9.26887 47.814 6.28291V5.53547C47.814 2.54951 45.3591 0.128906 42.3307 0.128906Z" stroke="currentColor" stroke-width="1.10294"/>
</g>
<defs>
<clipPath id="clip0_2162_17311">
<rect width="63" height="12" fill="currentColor"/>
</clipPath>
</defs>
</svg>
