<svg width="51" height="12" viewBox="0 0 51 12" fill="none" xmlns="http://www.w3.org/2000/svg">
<path d="M34.8684 2.14925H41.6525V0H34.8684V2.14925ZM48.2 9.3806C47.8123 9.7836 47.3382 10.0075 46.7784 10.0075C46.2616 10.0075 45.7444 9.7836 45.4002 9.3806C44.991 8.95524 44.797 8.44028 44.797 7.8582C44.797 7.29852 44.991 6.7388 45.4002 6.33584C45.766 5.91044 46.2616 5.70896 46.7784 5.70896C47.3382 5.70896 47.8123 5.93284 48.2 6.33584C48.5658 6.7388 48.7598 7.27612 48.7598 7.83584C48.7813 8.39552 48.5877 8.95524 48.2 9.3806ZM46.7569 3.67164C44.4093 3.67164 42.5354 5.52984 42.5354 7.83584C42.5354 10.1418 44.4093 12 46.7569 12C49.126 12 50.9998 10.1642 50.9998 7.83584C51.0213 5.55224 49.126 3.67164 46.7569 3.67164ZM34.8684 6.04476H37.0436V11.7985H39.2834V6.04476H41.6525V3.89552H34.8684V6.04476ZM30.6256 9.3582C30.2595 9.7612 29.7641 9.98508 29.2257 9.98508C28.6873 9.98508 28.1919 9.7612 27.8043 9.3582C27.4381 8.93284 27.2228 8.41792 27.2228 7.83584C27.2228 7.27612 27.4381 6.7164 27.8043 6.31344C28.1919 5.91044 28.6873 5.68656 29.2257 5.68656C29.7641 5.68656 30.2595 5.91044 30.6256 6.31344C31.0133 6.7164 31.2071 7.25372 31.2071 7.83584C31.2071 8.39552 31.0133 8.93284 30.6256 9.3582ZM31.5733 4.65672C30.8625 4.02984 29.9365 3.67164 28.9457 3.67164C26.6843 3.67164 24.8752 5.50748 24.8752 7.83584C24.8752 10.1418 26.6843 12 28.9457 12C29.9365 12 30.8625 11.6418 31.5733 11.0149V11.7761H33.447V3.91792H31.7456L31.5733 4.65672ZM20.934 9.33584C20.5678 9.7388 20.0725 9.96268 19.534 9.96268C18.9956 9.96268 18.4787 9.7388 18.1126 9.33584C17.7465 8.93284 17.5311 8.39552 17.5311 7.81344C17.5311 7.25372 17.7465 6.7164 18.1126 6.29104C18.4787 5.88808 18.9956 5.66416 19.534 5.66416C20.0725 5.66416 20.5678 5.88808 20.934 6.29104C21.3001 6.7164 21.5155 7.23136 21.5155 7.81344C21.5155 8.37312 21.3001 8.93284 20.934 9.33584ZM19.814 3.62688C18.7157 3.62688 17.7034 4.07464 16.9711 4.81344V0H14.7098V11.7761H16.9711V10.8134C17.7034 11.5522 18.7157 12 19.814 12C22.0539 12 23.863 10.1418 23.863 7.81344C23.8415 5.50748 22.0324 3.62688 19.814 3.62688ZM10.467 11.7761H12.7068V0H10.467V11.7761ZM5.75039 9.3582C5.38427 9.7612 4.88889 9.98508 4.35048 9.98508C3.81204 9.98508 3.3167 9.7612 2.92902 9.3582C2.5629 8.93284 2.34755 8.41792 2.34755 7.83584C2.34755 7.27612 2.5629 6.7164 2.92902 6.31344C3.3167 5.91044 3.81204 5.68656 4.35048 5.68656C4.88889 5.68656 5.38427 5.91044 5.75039 6.31344C6.13807 6.7164 6.33187 7.25372 6.33187 7.83584C6.33187 8.39552 6.13807 8.93284 5.75039 9.3582ZM6.69799 4.65672C5.9873 4.02984 5.06121 3.67164 4.0705 3.67164C1.8091 3.67164 0 5.52984 0 7.83584C0 10.1418 1.8091 12 4.0705 12C5.06121 12 5.9873 11.6418 6.69799 11.0149V11.7761H8.57171V3.91792H6.87031L6.69799 4.65672Z" fill="currentColor"/>
</svg>
