<svg width="47" height="12" viewBox="0 0 47 12" fill="currentColor" xmlns="http://www.w3.org/2000/svg">
<g clip-path="url(#clip0_2210_17344)">
<path d="M29.2603 3.5625H29.7593L30.0444 3.81311L30.2583 4.02791L30.4365 3.99211L31.0068 3.7057L31.1851 3.6341L31.7554 3.5625H32.0762L32.6108 3.6341L33.0029 3.77731L33.395 3.99211L33.7515 4.27852L33.894 4.42173L34.1792 4.77974L34.4287 5.28095L34.5356 5.56736L34.5713 5.78217V6.7488L34.4644 7.17841L34.1792 7.75123L33.7871 8.21664L33.3237 8.57466L32.7891 8.82526L32.0762 8.96847H31.7554L31.1494 8.86106L30.7217 8.68206L30.3652 8.46725L30.3296 11.6178H29.2246V3.5983L29.2603 3.5625ZM31.7197 4.63653L31.2207 4.77974L30.8286 5.06615L30.5435 5.38836L30.3652 5.78217L30.3296 5.92537V6.56979L30.4365 6.9278L30.6504 7.28582L30.8999 7.53642L31.2563 7.75123L31.6484 7.85863H32.1475L32.4683 7.78703L32.8604 7.57222L33.2524 7.17841L33.4307 6.8204L33.5376 6.39079L33.502 5.88957L33.2881 5.38836L32.9673 5.03035L32.6465 4.81554L32.3257 4.67233L32.0762 4.63653H31.7197Z" fill="currentColor"/>
<path d="M4.98682 0.878906H5.98486L6.05615 0.914707V8.93416L6.02051 8.96996H5.52148L5.02246 8.46874L4.87988 8.50454L4.34521 8.79095L3.91748 8.89836L3.52539 8.96996H3.16895L2.63428 8.86256L2.20654 8.71935L1.81445 8.46874L1.49365 8.21813L1.24414 7.93173L0.994629 7.57372L0.816406 7.1799L0.709473 6.78609L0.673828 6.53548V5.96266L0.816406 5.35405L1.10156 4.78123L1.38672 4.42322L1.63623 4.17261L2.1709 3.8146L2.66992 3.63559L3.20459 3.56399H3.56104L4.06006 3.63559L4.55908 3.8146L4.87988 4.0294L4.98682 4.06521V0.878906ZM3.16895 4.63802L2.70557 4.78123L2.42041 4.96023L2.1709 5.17504L1.92139 5.53305L1.81445 5.78366L1.77881 5.99847V6.53548L1.8501 6.82189L2.02832 7.1799L2.27783 7.46631L2.63428 7.71692L3.09766 7.86012H3.59668L3.91748 7.78852L4.30957 7.57372L4.7373 7.1441L4.95117 6.67869L4.98682 6.46388V6.03427L4.87988 5.67626L4.66602 5.28244L4.34521 4.96023L3.7749 4.67382L3.52539 4.63802H3.16895Z" fill="currentColor"/>
<path d="M12.7227 0.878906H13.7563L13.792 4.0294L13.9702 3.9578L14.3979 3.743L14.8613 3.59979L15.2178 3.56399H15.5386L16.1089 3.63559L16.6436 3.8504L16.9644 4.06521L17.3208 4.38742L17.606 4.70963L17.8911 5.21084L18.0337 5.67626L18.0693 5.92686V6.64289L17.9624 7.0725L17.7842 7.50211L17.499 7.96753L17.0713 8.39714L16.6079 8.68355L16.2871 8.82675L15.5742 8.96996H15.2178L14.6475 8.86256L14.1841 8.68355L13.8276 8.46874L13.6851 8.50454L13.2217 8.96996H12.7227V0.878906ZM15.2178 4.63802L14.8613 4.70963L14.3979 4.96023L14.0771 5.28244L13.8633 5.71206L13.792 5.89106L13.7563 6.39228L13.8633 6.82189L14.0415 7.1799L14.4336 7.57372L14.9326 7.82432L15.1465 7.86012H15.6455L16.1089 7.71692L16.4653 7.46631L16.7505 7.1441L16.9287 6.75029L16.9644 6.57128V5.92686L16.8574 5.56885L16.501 5.06764L16.0732 4.78123L15.5742 4.63802H15.2178Z" fill="currentColor"/>
<path d="M37.7437 3.5625H38.1001L38.5991 3.6341L39.0981 3.81311L39.4902 4.06372L39.8823 4.38593L40.2388 4.85134L40.4883 5.35256L40.5952 5.92537L40.6309 5.99698V6.42659L40.5596 6.7846L40.5239 6.8204L36.4248 6.8562L36.7456 7.35742L37.0664 7.60803L37.3516 7.75123L37.6367 7.82283H38.1357L38.5635 7.71543L38.9199 7.50062L38.9912 7.39322L39.1694 7.46482L39.7754 8.07344L39.811 8.18084L39.4902 8.46725L39.0625 8.71786L38.5278 8.89687L38.0645 8.96847H37.708L37.0664 8.82526L36.6743 8.68206L36.3535 8.46725L35.9971 8.14504L35.6763 7.78703L35.4624 7.42902L35.3198 7.03521L35.2129 6.56979V5.99698L35.2842 5.63896L35.4268 5.17355L35.7119 4.67233L36.0327 4.31432L36.3179 4.06372L36.71 3.81311L37.3516 3.5983L37.7437 3.5625ZM37.708 4.63653L37.2446 4.77974L36.8525 5.03035L36.5674 5.35256L36.4248 5.60316L36.4604 5.74637H39.3833L39.4189 5.67477L39.2407 5.31675L38.8843 4.95874L38.314 4.67233L38.0645 4.63653H37.708Z" fill="currentColor"/>
<path d="M9.19287 3.5625H9.54932L10.084 3.6341L10.5474 3.81311L10.9751 4.06372L11.4028 4.45753L11.7593 4.95874L11.9731 5.45996L12.0444 5.85377L12.0801 5.88957V6.53399L11.9731 6.8204L7.90967 6.8562L8.12354 7.25002L8.26611 7.42902L8.69385 7.71543L9.15723 7.82283H9.58496L10.0127 7.71543L10.5474 7.39322L11.2246 8.07344L11.2603 8.18084L10.9395 8.46725L10.583 8.68206L10.1196 8.86107L9.54932 8.96847H9.19287L8.62256 8.86107L8.15918 8.68206L7.80273 8.46725L7.375 8.07344L7.08984 7.71543L6.91162 7.39322L6.76904 6.99941L6.69775 6.49819L6.66211 6.42659V6.06858L6.69775 6.03278L6.76904 5.53156L6.91162 5.13775L7.12549 4.74394L7.41064 4.38593L7.76709 4.06372L8.3374 3.74151L8.80078 3.5983L9.19287 3.5625ZM9.15723 4.63653L8.80078 4.74394L8.44434 4.92294L8.08789 5.28095L7.90967 5.56736V5.74637H10.8325L10.8682 5.63896L10.7256 5.35256L10.5474 5.13775L10.1909 4.85134L9.76318 4.67233L9.58496 4.63653H9.15723Z" fill="currentColor"/>
<path d="M21.1704 3.5625H21.5625L22.0972 3.6341L22.6318 3.84891L23.0239 4.09952L23.5586 4.63653L23.8438 5.10195L24.022 5.56736L24.0576 5.74637V6.6772L23.9863 6.8204H19.8872L20.1011 7.21421L20.4219 7.53642L20.9209 7.78703L21.1348 7.82283H21.6338L22.0259 7.71543L22.3823 7.50062L22.5249 7.39322L23.2734 8.14504L23.0596 8.39565L22.6675 8.64626L22.1685 8.86107L21.5625 8.96847H21.2061L20.4932 8.82526L19.9229 8.53886L19.6377 8.32405L19.4238 8.14504L19.103 7.71543L18.8892 7.32162L18.7466 6.9278L18.7109 6.713V5.81797L18.8892 5.20935L19.103 4.77974L19.4951 4.35012L19.7803 4.06372L20.2793 3.77731L20.6714 3.6341L21.1704 3.5625ZM21.2061 4.63653L20.7783 4.74394L20.4219 4.95874L20.1011 5.28095L19.8872 5.60316L19.9229 5.74637H22.8101L22.8813 5.71057L22.8101 5.49576L22.5962 5.17355L22.311 4.92294L21.9546 4.74394L21.5625 4.63653H21.2061Z" fill="currentColor"/>
<path d="M24.3066 3.5625H25.5186L26.2314 4.77974L26.4453 5.13775L26.5879 4.88714L26.8018 4.52913L27.3008 3.6341L27.4077 3.5625H28.5483L28.584 3.6341L27.8711 4.88714L27.1226 6.17598V6.31919L27.3364 6.713L28.1919 8.21665L28.584 8.89687V8.96847H27.3721L26.9443 8.25245L26.481 7.42902H26.4097L26.0889 8.00184L25.6255 8.82526L25.5186 8.96847H24.3423V8.82526L24.77 8.07344L25.1265 7.46482L25.5898 6.6414L25.7681 6.31919L25.7324 6.10438L25.3403 5.42416L24.8413 4.52913L24.5562 4.06372L24.3066 3.5625Z" fill="currentColor"/>
<path d="M44.731 0.878906H45.729L45.7646 3.52819L46.7983 3.56399L46.834 3.59979V4.63802L45.8003 4.67382L45.7646 4.70963V6.71449L45.8716 7.1441L46.0142 7.35891L46.1924 7.57372L46.5488 7.78852L46.9409 7.86012L46.9766 7.89593V8.36134L46.9409 8.96996L46.3706 8.89836L45.9785 8.75515L45.6577 8.57615L45.23 8.18233L45.0161 7.89593L44.8022 7.46631L44.6953 7.1083V0.914707L44.731 0.878906Z" fill="currentColor"/>
<path d="M41.4146 3.5625H41.9136L42.377 4.02791L42.5908 3.99211L42.876 3.81311L43.5176 3.5983L44.0522 3.5625V4.63653L43.5532 4.74394L43.1968 4.92294L42.8403 5.24515L42.6265 5.56736L42.5195 5.85377L42.4839 6.10438L42.4482 8.93267L42.4126 8.96847H41.4146L41.3789 8.93267V3.5983L41.4146 3.5625Z" fill="currentColor"/>
</g>
<defs>
<clipPath id="clip0_2210_17344">
<rect width="47" height="12" fill="currentColor"/>
</clipPath>
</defs>
</svg>
