<svg width="46" height="11" viewBox="0 0 46 11" fill="none" xmlns="http://www.w3.org/2000/svg">
<g clip-path="url(#clip0_2161_17303)">
<path d="M3.82974 10.8568C1.59115 10.8568 0.00390625 9.29127 0.00390625 6.94665C0.00390625 4.60203 1.59115 3.0365 3.84472 3.0365C4.97526 3.0365 5.91112 3.43339 6.57748 4.10958V0.368472H8.16471V10.7098H6.57748V9.79107C5.8812 10.4599 4.95279 10.8568 3.82974 10.8568ZM1.59115 6.94665C1.59115 8.40927 2.56445 9.39418 4.01693 9.39418C5.49188 9.39418 6.48014 8.40927 6.48014 6.94665C6.48014 5.48403 5.50683 4.49912 4.0394 4.49912C2.57194 4.49912 1.59115 5.48403 1.59115 6.94665ZM9.98404 10.7392V3.18349H11.5713V4.11693C12.2002 3.49219 13.0387 3.18349 14.2142 3.18349H14.8805V4.77108H14.2142C12.3425 4.77108 11.5713 5.44726 11.5713 7.08629V10.7392H9.98404ZM15.8538 1.21371C15.8538 0.625719 16.3405 0.140625 16.9469 0.140625C17.5534 0.140625 18.0475 0.625719 18.0475 1.21371C18.0475 1.80906 17.5534 2.29415 16.9469 2.29415C16.3405 2.29415 15.8538 1.80906 15.8538 1.21371ZM16.1533 10.7098V3.18349H17.748V10.7098H16.1533ZM19.5674 10.7392V3.18349H21.1846V4.11693C21.7161 3.47013 22.6071 3.0365 23.6104 3.0365C25.4447 3.0365 26.4929 4.18307 26.4929 6.18226V10.7098H24.9056V6.37335C24.9056 5.10916 24.3216 4.49177 23.1237 4.49177C21.9258 4.49177 21.1546 5.21206 21.1546 6.2925V10.7392H19.5674ZM28.3122 10.7098V0.368472H29.907V6.22635H30.6182L33.4033 3.18349H35.3798L31.9658 6.94665L35.5894 10.7098H33.4782L30.6182 7.68165H29.907V10.7098H28.3122ZM36.3832 1.21371C36.3832 0.625719 36.8698 0.140625 37.4763 0.140625C38.0826 0.140625 38.5768 0.625719 38.5768 1.21371C38.5768 1.80906 38.0826 2.29415 37.4763 2.29415C36.8698 2.29415 36.3832 1.80906 36.3832 1.21371ZM36.6825 10.7098V3.18349H38.2772V10.7098H36.6825ZM39.5502 4.63876V3.18349H41.422V0.934417H42.9642V3.18349H45.7944V4.63876H43.009V7.56404C43.009 8.90908 43.4808 9.28392 44.8959 9.28392H45.7944V10.7392H44.8136C42.2603 10.7392 41.422 9.95278 41.422 7.68165V4.63876H39.5502Z" fill="currentColor"/>
</g>
<defs>
<clipPath id="clip0_2161_17303">
<rect width="46" height="11" fill="currentColor"/>
</clipPath>
</defs>
</svg>
