<svg width="52" height="7" viewBox="0 0 52 7" fill="none" xmlns="http://www.w3.org/2000/svg">
<g clip-path="url(#clip0_171_17570)">
<path d="M6.09961 0.0585938H6.81961V6.23506H6.09961V0.0585938Z" fill="currentColor"/>
<path fill-rule="evenodd" clip-rule="evenodd" d="M10.1954 1.77734C8.84539 1.77734 7.90039 2.74793 7.90039 4.02734C7.90039 5.39499 8.89039 6.36558 10.2404 6.36558C11.1854 6.36558 11.9504 5.9244 12.3104 5.1744L11.7254 4.86558C11.4554 5.39499 10.8704 5.70381 10.2404 5.70381C9.34039 5.70381 8.71039 5.13029 8.62039 4.29205H12.4454V4.02734C12.4454 2.70381 11.5004 1.77734 10.1954 1.77734ZM10.1504 2.43911C11.0054 2.43911 11.5904 2.96852 11.7254 3.71852H8.62039C8.75539 2.96852 9.34039 2.43911 10.1504 2.43911Z" fill="currentColor"/>
<path d="M13.3453 4.11834C13.3453 2.79481 14.2903 1.82422 15.5953 1.82422C16.6753 1.82422 17.5303 2.48598 17.7103 3.36834L17.0353 3.45657C16.9003 2.83892 16.2703 2.44187 15.6403 2.44187C14.7403 2.44187 14.0653 3.10363 14.1103 4.07422C14.1103 5.04481 14.7853 5.75069 15.6403 5.75069C16.3153 5.75069 16.9003 5.35363 17.0803 4.73598L17.8003 4.82422C17.6203 5.70657 16.7203 6.36834 15.6853 6.36834C14.2453 6.36834 13.3003 5.44187 13.3453 4.11834Z" fill="currentColor"/>
<path d="M18.97 5.13005V2.52711H18.25V1.95358H18.97L19.15 0.585938H19.69V1.95358H20.815V2.52711H19.69V5.08594C19.69 5.483 19.96 5.79182 20.365 5.79182C20.5 5.79182 20.725 5.7477 20.86 5.70359V6.27711C20.635 6.36535 20.365 6.36535 20.14 6.36535C19.465 6.36535 18.97 5.88006 18.97 5.13005Z" fill="currentColor"/>
<path d="M21.9395 1.99839H22.6145V2.57192H22.7045C22.8845 2.17486 23.3795 1.91016 23.8745 1.91016C24.0545 1.91016 24.2795 1.95427 24.4145 1.99839V2.66016C24.1895 2.57192 23.9195 2.5278 23.7845 2.5278C23.1545 2.5278 22.6595 3.10133 22.6595 3.93957V6.23369H21.9395V1.99839Z" fill="currentColor"/>
<path fill-rule="evenodd" clip-rule="evenodd" d="M27.2052 1.82422C25.8552 1.82422 24.9102 2.79481 24.9102 4.11834C24.9102 5.44187 25.9002 6.36834 27.2052 6.41245C28.5552 6.41245 29.5002 5.44187 29.5002 4.11834C29.5002 2.75069 28.5552 1.82422 27.2052 1.82422ZM27.2052 2.48598C28.1502 2.48598 28.8252 3.14775 28.8252 4.11834C28.8252 5.04481 28.1502 5.75069 27.2052 5.79481C26.2602 5.79481 25.5852 5.08892 25.5852 4.11834C25.5852 3.19187 26.2602 2.48598 27.2052 2.48598Z" fill="currentColor"/>
<path d="M30.8047 0.324219H31.9297L34.7647 5.22128H34.8547V0.324219H35.6197V6.23599H34.4947L31.6597 1.33893H31.5697V6.23599H30.8047V0.324219Z" fill="currentColor"/>
<path fill-rule="evenodd" clip-rule="evenodd" d="M39.1739 1.77734C37.8239 1.77734 36.8789 2.74793 36.8789 4.02734C36.8789 5.39499 37.8689 6.36558 39.2189 6.32146C40.1639 6.32146 40.9289 5.88029 41.2889 5.1744L40.7039 4.86558C40.4339 5.39499 39.8489 5.70381 39.2189 5.70381C38.3189 5.70381 37.6889 5.13029 37.5989 4.29205H41.4239V4.02734C41.4239 2.70381 40.4789 1.77734 39.1739 1.77734ZM39.1289 2.43911C39.9839 2.43911 40.5689 2.96852 40.7039 3.71852H37.5989C37.7339 2.96852 38.3189 2.43911 39.1289 2.43911Z" fill="currentColor"/>
<path fill-rule="evenodd" clip-rule="evenodd" d="M44.6192 1.77734C43.2692 1.77734 42.3242 2.74793 42.3242 4.02734C42.3242 5.39499 43.2692 6.36558 44.6642 6.32146C45.6092 6.32146 46.3742 5.88029 46.7342 5.1744L46.1492 4.86558C45.8792 5.39499 45.2942 5.70381 44.6642 5.70381C43.7642 5.70381 43.1342 5.13029 43.0442 4.29205H46.8692V4.02734C46.8692 2.70381 45.9242 1.77734 44.6192 1.77734ZM44.5292 2.43911C45.3842 2.43911 45.9692 2.96852 46.1042 3.71852H42.9992C43.1342 2.96852 43.7192 2.43911 44.5292 2.43911Z" fill="currentColor"/>
<path d="M47.9492 0.0585938H48.6692V3.80859H48.7592L50.6042 1.99977H51.5492L49.4342 4.02918L51.5942 6.23506H50.6492L48.7592 4.24977H48.6692V6.23506H47.9492V0.0585938Z" fill="currentColor"/>
<path d="M0.824714 2.96116H4.0466V3.49899H0.824714V2.96116ZM0.894377 5.71863H4.56036V6.265H0.25V0.289062H4.42974V0.835434H0.894377V5.71863Z" fill="currentColor"/>
</g>
<defs>
<clipPath id="clip0_171_17570">
<rect width="52" height="7" fill="currentColor"/>
</clipPath>
</defs>
</svg>
