<svg width="47" height="5" viewBox="0 0 47 5" fill="none" xmlns="http://www.w3.org/2000/svg">
<g clip-path="url(#clip0_2234_17252)">
<path d="M12.9804 3.33333H12.5328H12.0852H11.6376H11.19H10.7424H10.2947H9.84712H9.3995V2.91667H9.84712V2.5V2.08333H10.2947V1.66667V1.25H10.7424V0.833333V0.416667V0H10.2947H9.84712V0.416667V0.833333H9.3995V1.25V1.66667H8.95188V2.08333V2.5H8.50426V2.91667V3.33333H8.05664V3.75V4.16667H8.50426H8.95188H9.3995H9.84712H10.2947H10.7424H11.19H11.6376H12.0852H12.5328H12.9804H13.4281V3.75H13.8757V3.33333H13.4281H12.9804Z" fill="currentColor"/>
<path d="M17.0096 1.66667V1.25H17.4572V0.833333V0.416667V0H17.0096H16.562V0.416667V0.833333H16.1143V1.25V1.66667H15.6667V2.08333V2.5H15.2191V2.91667V3.33333H14.7715V3.75V4.16667H15.2191H15.6667V3.75H16.1143V3.33333V2.91667H16.562V2.5V2.08333H17.0096V1.66667Z" fill="currentColor"/>
<path d="M31.3338 1.25H31.7814V0.833333H32.229V0.416667V0H31.7814H31.3338H30.8862H30.4385H29.9909H29.5433H29.0957H28.6481H28.2004H27.7528H27.3052H26.8576H26.41H25.9624V0.416667V0.833333H25.5147V1.25V1.66667H25.0671V2.08333V2.5H24.6195V2.91667V3.33333H24.1719V3.75V4.16667H24.6195H25.0671V3.75H25.5147V3.33333V2.91667H25.9624V2.5H26.41H26.8576H27.3052H27.7528H28.2004H28.6481H29.0957H29.5433H29.9909H30.4385V2.08333H30.8862V1.66667H31.3338V1.25ZM30.4385 1.25H29.9909V1.66667H29.5433H29.0957H28.6481H28.2004H27.7528H27.3052H26.8576H26.41V1.25H26.8576V0.833333H27.3052H27.7528H28.2004H28.6481H29.0957H29.5433H29.9909H30.4385V1.25Z" fill="currentColor"/>
<path d="M24.1717 1.25H24.6193V0.833333H25.0669V0.416667V0H24.6193H24.1717H23.7241H23.2764H22.8288H22.3812H21.9336H21.486H21.0383H20.5907H20.1431H19.6955H19.2479H18.8002V0.416667V0.833333H18.3526V1.25V1.66667H17.905V2.08333V2.5H17.4574V2.91667V3.33333H17.0098V3.75V4.16667H17.4574H17.905V3.75H18.3526V3.33333V2.91667H18.8002V2.5H19.2479H19.6955H20.1431H20.5907H21.0383H21.486H21.9336H22.3812H22.8288H23.2764V2.08333H23.7241V1.66667H24.1717V1.25ZM23.2764 1.25H22.8288V1.66667H22.3812H21.9336H21.486H21.0383H20.5907H20.1431H19.6955H19.2479V1.25H19.6955V0.833333H20.1431H20.5907H21.0383H21.486H21.9336H22.3812H22.8288H23.2764V1.25Z" fill="currentColor"/>
<path d="M38.9435 0.833333V0.416667H39.3911V0H38.9435H38.4959H38.0483H37.6007H37.153H36.7054H36.2578H35.8102H35.3626H34.9149H34.4673H34.0197H33.5721H33.1245V0.416667V0.833333H32.6768V1.25V1.66667H32.2292V2.08333V2.5H31.7816V2.91667V3.33333H31.334V3.75V4.16667H31.7816H32.2292H32.6768H33.1245H33.5721H34.0197H34.4673H34.9149H35.3626H35.8102H36.2578H36.7054H37.153V3.75H37.6007V3.33333H37.153H36.7054H36.2578H35.8102H35.3626H34.9149H34.4673H34.0197H33.5721H33.1245H32.6768V2.91667H33.1245V2.5H33.5721H34.0197H34.4673H34.9149H35.3626H35.8102H36.2578H36.7054H37.153V2.08333H37.6007V1.66667H37.153H36.7054H36.2578H35.8102H35.3626H34.9149H34.4673H34.0197H33.5721V1.25H34.0197V0.833333H34.4673H34.9149H35.3626H35.8102H36.2578H36.7054H37.153H37.6007H38.0483H38.4959H38.9435Z" fill="currentColor"/>
<path d="M8.50476 0.416667H8.95238V0H8.50476H8.05714H7.60952H7.1619H6.71429H6.26667H5.81905H5.37143H4.92381H4.47619H4.02857H3.58095H3.13333H2.68571H2.2381V0.416667V0.833333H1.79048V1.25V1.66667H1.34286V2.08333V2.5H0.895238V2.91667V3.33333H0.447619V3.75V4.16667H0V4.58333V5H0.447619H0.895238V4.58333H1.34286V4.16667V3.75H1.79048V3.33333V2.91667H2.2381V2.5H2.68571H3.13333H3.58095H4.02857H4.47619H4.92381H5.37143H5.81905H6.26667V2.08333H6.71429V1.66667H6.26667H5.81905H5.37143H4.92381H4.47619H4.02857H3.58095H3.13333H2.68571V1.25H3.13333V0.833333H3.58095H4.02857H4.47619H4.92381H5.37143H5.81905H6.26667H6.71429H7.1619H7.60952H8.05714H8.50476V0.416667Z" fill="currentColor"/>
<path d="M46.5532 0H46.1056H45.658H45.2104H44.7628H44.3151H43.8675H43.4199H42.9723H42.5247H42.077H41.6294H41.1818H40.7342H40.2866V0.416667V0.833333H39.839V1.25V1.66667H39.3913V2.08333V2.5H38.9437V2.91667V3.33333H38.4961V3.75V4.16667H38.9437H39.3913V3.75H39.839V3.33333V2.91667H40.2866V2.5H40.7342H41.1818H41.6294H42.077H42.5247H42.9723H43.4199V2.91667H43.8675V3.33333H44.3151V3.75H44.7628V4.16667H45.2104V4.58333H45.658V5H46.1056H46.5532V4.58333V4.16667H46.1056V3.75H45.658V3.33333H45.2104V2.91667H44.7628V2.5V2.08333H45.2104V1.66667H45.658V1.25H46.1056V0.833333H46.5532V0.416667H47.0009V0H46.5532ZM44.7628 1.25H44.3151V1.66667H43.8675H43.4199H42.9723H42.5247H42.077H41.6294H41.1818H40.7342V1.25H41.1818V0.833333H41.6294H42.077H42.5247H42.9723H43.4199H43.8675H44.3151H44.7628V1.25Z" fill="currentColor"/>
</g>
<defs>
<clipPath id="clip0_2234_17252">
<rect width="47" height="5" fill="currentColor"/>
</clipPath>
</defs>
</svg>
