<svg width="55" height="12" viewBox="0 0 55 12" fill="none" xmlns="http://www.w3.org/2000/svg">
<g clip-path="url(#clip0_2176_17303)">
<path d="M4.03249 0.929688C3.07914 0.929688 2.39813 1.34065 1.98947 2.02558C1.5809 2.71051 1.5809 2.98448 1.5809 4.08037V4.62832H0.763672V6.13512H1.5809V11.7516H3.35148V6.13512H5.12217V4.62832H3.35148V4.08037C3.35148 2.98448 3.48771 2.8475 4.03249 2.57353C4.16871 2.57353 4.30494 2.43654 4.44116 2.43654C4.57728 2.43654 4.84972 2.43654 4.84972 2.57353L5.12217 2.71051V1.34065H4.98594C4.57728 1.06668 4.30494 0.929688 4.03249 0.929688Z" fill="currentColor"/>
<path d="M7.84676 0.792969H6.07617V11.6148H7.84676V0.792969Z" fill="currentColor"/>
<path d="M12.8864 4.49219C10.8433 4.49219 9.20898 6.136 9.20898 8.1908C9.20898 10.2456 10.8433 11.8895 12.8864 11.8895C14.9294 11.8895 16.5639 10.2456 16.5639 8.1908C16.4276 5.99904 14.9294 4.49219 12.8864 4.49219ZM12.8864 10.2456C11.7968 10.2456 10.9796 9.2867 10.9796 8.0538C10.9796 6.821 11.7968 5.86205 12.8864 5.86205C13.976 5.86205 14.7932 6.821 14.7932 8.0538C14.7932 9.4237 13.976 10.2456 12.8864 10.2456Z" fill="currentColor"/>
<path d="M33.0438 9.01251L31.6818 4.62891H30.3198L28.9578 9.01251L27.4596 4.62891H25.8252L24.327 9.01251L22.8288 4.62891H21.603L20.1048 9.01251L18.6065 4.62891H16.8359L19.56 11.6152H20.6495L22.1478 7.50561L23.7821 11.6152H24.8718L26.6424 6.95771L28.413 11.6152H29.5027L31.0008 7.50561L32.499 11.6152H33.5887L36.3126 4.62891H34.5421L33.0438 9.01251Z" fill="currentColor"/>
<path d="M40.2614 4.49219C38.2183 4.49219 36.584 6.136 36.584 8.1908C36.584 10.2456 38.2183 11.8895 40.2614 11.8895C42.3044 11.8895 43.9389 10.2456 43.9389 8.1908C43.9389 5.99904 42.3044 4.49219 40.2614 4.49219ZM40.2614 10.2456C39.1718 10.2456 38.3546 9.2867 38.3546 8.0538C38.3546 6.821 39.1718 5.86205 40.2614 5.86205C41.351 5.86205 42.1682 6.821 42.1682 8.0538C42.1682 9.4237 41.351 10.2456 40.2614 10.2456Z" fill="currentColor"/>
<path d="M53.2008 4.62891L51.7025 9.01251L50.4767 5.17685L50.2043 4.62891H48.9785L48.8423 5.17685L47.4803 9.01251L46.1182 4.62891H44.3477L46.9355 11.6152H48.025L49.6595 7.50561L51.1577 11.6152H52.2473L54.9714 4.62891H53.2008Z" fill="currentColor"/>
</g>
<defs>
<clipPath id="clip0_2176_17303">
<rect width="55" height="12" fill="currentColor"/>
</clipPath>
</defs>
</svg>
