<svg width="43" height="12" viewBox="0 0 43 12" fill="none" xmlns="http://www.w3.org/2000/svg">
<g clip-path="url(#clip0_2241_17304)">
<path fill-rule="evenodd" clip-rule="evenodd" d="M10.3078 0.280036L0.765238 1.26515C0.623025 1.27993 0.49257 1.34929 0.402386 1.45807C0.312206 1.56684 0.269635 1.70617 0.283981 1.84562L1.28921 11.1972C1.30499 11.3361 1.37607 11.4633 1.48698 11.5511C1.59789 11.6388 1.73968 11.6802 1.88153 11.6661L11.4241 10.681C11.5656 10.6662 11.6953 10.5971 11.785 10.4889C11.8746 10.3806 11.9169 10.242 11.9025 10.1033L10.8973 0.748873C10.8822 0.610245 10.8117 0.483106 10.7013 0.395249C10.5908 0.307395 10.4493 0.265973 10.3078 0.280036ZM8.72154 1.07752L1.78743 2.39752C1.67503 2.41891 1.56804 2.4618 1.47256 2.52374C1.37708 2.58568 1.295 2.66545 1.231 2.75849C1.167 2.85155 1.12233 2.95603 1.09956 3.06598C1.07679 3.17596 1.07636 3.28924 1.09829 3.39939L2.44525 10.2087C2.49002 10.4308 2.62269 10.6265 2.81424 10.753C3.00582 10.8796 3.24069 10.9267 3.46757 10.884L10.4159 9.54729C10.6423 9.50407 10.842 9.37461 10.9712 9.18735C11.1004 9.00007 11.1485 8.77022 11.1051 8.54823L9.74101 1.75287C9.6969 1.53099 9.5648 1.3353 9.37372 1.20871C9.18261 1.08211 8.94807 1.03494 8.72154 1.07752Z" fill="currentColor"/>
<path d="M6.37248 6.05807V4.16876H7.15559C7.32104 4.16586 7.48603 4.18654 7.64539 4.23016C7.78094 4.26541 7.9078 4.32711 8.01844 4.41156C8.12289 4.48944 8.20522 4.59223 8.25764 4.71016C8.31089 4.83661 8.33706 4.97243 8.33453 5.10923C8.34116 5.24112 8.31747 5.37278 8.26522 5.49449C8.21299 5.61622 8.13351 5.72489 8.03267 5.81249C7.92486 5.90201 7.79857 5.96768 7.66248 6.00504C7.49794 6.0471 7.32847 6.06775 7.15844 6.06644L6.37248 6.05807ZM5.09671 3.00783V9.03574H6.37248V7.23574H7.18406C7.36783 7.23633 7.55142 7.22514 7.73367 7.20225C7.89875 7.17906 8.06161 7.14267 8.22062 7.09342C8.36628 7.04634 8.50733 6.98656 8.64208 6.91481C8.76749 6.84876 8.88496 6.76919 8.99234 6.6776C9.206 6.49707 9.37291 6.26943 9.4793 6.01342C9.5942 5.72843 9.65036 5.42396 9.64446 5.1176C9.65036 4.81124 9.5942 4.50675 9.4793 4.22179C9.42696 4.09367 9.35804 3.97269 9.27426 3.86179C9.19074 3.7532 9.09526 3.65399 8.9895 3.56597C8.88285 3.47346 8.76524 3.39382 8.63923 3.32876C8.50471 3.25654 8.3636 3.19674 8.21777 3.15016C8.05876 3.1009 7.8959 3.06449 7.73082 3.04132C7.54857 3.01844 7.36498 3.00725 7.18122 3.00783H5.09671ZM4.30506 9.03574V4.7576H3.0293V9.03574H4.30506ZM4.30506 4.25807V3.00783H3.0293V4.25807H4.30506Z" fill="currentColor"/>
<path fill-rule="evenodd" clip-rule="evenodd" d="M35.9158 1.69141H42.3373C42.4526 1.69214 42.5628 1.73736 42.6446 1.81727C42.726 1.89719 42.7721 2.00537 42.773 2.11838V9.93235C42.7721 10.0453 42.726 10.1535 42.6446 10.2334C42.5628 10.3134 42.4526 10.3586 42.3373 10.3593H35.9158C35.8005 10.3586 35.69 10.3134 35.6085 10.2334C35.5268 10.1535 35.4807 10.0453 35.4801 9.93235V2.11838C35.4807 2.00537 35.5268 1.89719 35.6085 1.81727C35.69 1.73736 35.8005 1.69214 35.9158 1.69141ZM20.484 1.69141H26.9084C27.023 1.69287 27.1324 1.7385 27.2128 1.81842C27.2933 1.89834 27.3385 2.0061 27.3384 2.11838V9.93235C27.3385 10.0451 27.2929 10.1533 27.2118 10.2333C27.1307 10.3133 27.0206 10.3586 26.9056 10.3593H20.484C20.3687 10.3586 20.2583 10.3134 20.1768 10.2334C20.0953 10.1535 20.0491 10.0453 20.0484 9.93235V2.11838C20.0491 2.00537 20.0953 1.89719 20.1768 1.81727C20.2583 1.73736 20.3687 1.69214 20.484 1.69141ZM28.1927 1.69141H34.6172C34.7326 1.69214 34.8428 1.73736 34.9245 1.81727C35.0059 1.89719 35.0521 2.00537 35.0529 2.11838V9.93235C35.0521 10.0453 35.0059 10.1535 34.9245 10.2334C34.8428 10.3134 34.7326 10.3586 34.6172 10.3593H28.1927C28.0777 10.3586 27.9676 10.3133 27.8865 10.2333C27.8054 10.1533 27.7599 10.0451 27.7599 9.93235V2.11838C27.7599 2.00562 27.8054 1.89744 27.8865 1.81745C27.9676 1.73745 28.0777 1.69214 28.1927 1.69141ZM12.764 1.69141H19.1912C19.3065 1.69214 19.4169 1.73736 19.4985 1.81727C19.58 1.89719 19.6262 2.00537 19.6269 2.11838V9.93235C19.6262 10.0453 19.58 10.1535 19.4985 10.2334C19.4169 10.3134 19.3065 10.3586 19.1912 10.3593H12.7697C12.6544 10.3586 12.544 10.3134 12.4624 10.2334C12.3809 10.1535 12.3348 10.0453 12.334 9.93235V2.11838C12.3348 2.00537 12.3809 1.89719 12.4624 1.81727C12.544 1.73736 12.6544 1.69214 12.7697 1.69141H12.764ZM38.2281 7.91467V6.45793H40.4749V5.40584H38.2281V4.12211H41.0758V3.00584H37.1175V9.03374H41.1242V7.91746L38.2281 7.91467ZM20.8087 6.01421C20.8085 6.23492 20.8276 6.45525 20.8656 6.67281C20.9008 6.88058 20.9571 7.08438 21.0337 7.28118C21.1116 7.46975 21.2069 7.65095 21.3184 7.82258C21.4199 7.98651 21.5382 8.13985 21.6715 8.28025C21.7961 8.41725 21.9344 8.5416 22.0844 8.65142C22.2382 8.76112 22.4034 8.85466 22.5771 8.93049C22.7531 9.00427 22.9363 9.06037 23.1239 9.09793C23.507 9.17615 23.9026 9.17615 24.2857 9.09793C24.4725 9.06076 24.6547 9.00464 24.8296 8.93049C25.0049 8.85413 25.1719 8.76064 25.328 8.65142C25.4836 8.54414 25.6276 8.42166 25.758 8.28584C25.8915 8.13994 26.0107 7.98201 26.1139 7.81421C26.2195 7.64389 26.3091 7.46456 26.3816 7.27839C26.4578 7.08126 26.515 6.87759 26.5525 6.67002C26.5883 6.45224 26.6063 6.23199 26.6066 6.01142C26.6071 5.79053 26.5871 5.5701 26.5468 5.35281C26.5084 5.14513 26.4502 4.94146 26.3731 4.74444C26.3012 4.55802 26.2115 4.37861 26.1054 4.20863C25.9017 3.88585 25.6345 3.60603 25.3194 3.38537C25.1633 3.27773 24.9974 3.18433 24.8239 3.1063C24.4689 2.95167 24.0847 2.87177 23.6962 2.87177C23.3078 2.87177 22.9236 2.95167 22.5686 3.1063C22.2173 3.26141 21.9023 3.48558 21.6431 3.76491C21.5106 3.90598 21.3924 4.05924 21.2899 4.22258C20.9582 4.7695 20.785 5.3947 20.7888 6.03095L20.8087 6.01421ZM21.9762 5.98072C21.9762 5.83968 21.9867 5.69886 22.0076 5.55932C22.0274 5.43006 22.0598 5.30297 22.1044 5.17979C22.1838 4.95185 22.3065 4.74067 22.466 4.55746C22.5397 4.47218 22.6239 4.39625 22.7166 4.33142C22.805 4.26478 22.9005 4.20771 23.0014 4.16118C23.1135 4.11299 23.2311 4.07833 23.3517 4.05793C23.4718 4.03507 23.5939 4.02385 23.7162 4.02444C23.8395 4.02489 23.9626 4.03703 24.0835 4.06072C24.1991 4.0855 24.3117 4.12198 24.4195 4.16956C24.5267 4.21664 24.628 4.27563 24.7214 4.34537C24.8123 4.41349 24.8962 4.49015 24.972 4.57421C25.1347 4.75714 25.2612 4.96817 25.345 5.19653C25.3871 5.32181 25.4167 5.45077 25.4333 5.58165C25.4532 5.72124 25.4627 5.86209 25.4618 6.00304C25.4626 6.14029 25.4531 6.2774 25.4333 6.41328C25.416 6.54126 25.3864 6.6674 25.345 6.79002C25.2649 7.01618 25.1433 7.22612 24.9862 7.40956C24.9113 7.49518 24.8273 7.57284 24.7356 7.64118C24.6421 7.71 24.5409 7.76808 24.4338 7.81421C24.3251 7.86212 24.2115 7.8986 24.0949 7.92305C23.9723 7.94889 23.8473 7.96198 23.7219 7.96211C23.5977 7.9615 23.4739 7.95028 23.3517 7.92863C23.2331 7.90239 23.1176 7.86402 23.0071 7.81421C22.9016 7.76794 22.8014 7.71087 22.7081 7.64398C22.6153 7.57912 22.5311 7.50318 22.4575 7.41793C22.2986 7.23533 22.1759 7.02519 22.0958 6.79839C22.0529 6.67471 22.0205 6.54776 21.999 6.41886C21.9784 6.28211 21.9679 6.14406 21.9677 6.00584V5.97235L21.9762 5.98072ZM29.0956 3.00305V4.11932H30.8384V9.03095H31.949V4.12211H33.7088V3.00584L29.0956 3.00305ZM17.306 3.00305V6.977L17.1836 6.80398L16.8988 6.36305C16.8438 6.27745 16.7868 6.19094 16.728 6.10351L16.54 5.86072L16.3606 5.58165L16.204 5.3556L14.5808 3.00863H13.5329V9.03653H14.6463V5.04025L14.7517 5.20491L14.8684 5.38351L15.0222 5.60956C15.1361 5.77421 15.2557 5.95281 15.3839 6.15095C15.512 6.34909 15.6401 6.53886 15.7683 6.70909L17.3715 9.03653H18.4195L18.4366 3.00863H17.3231L17.306 3.00305Z" fill="currentColor"/>
</g>
<defs>
<clipPath id="clip0_2241_17304">
<rect width="43" height="12" fill="currentColor"/>
</clipPath>
</defs>
</svg>
