<svg width="52" height="6" viewBox="0 0 52 6" fill="none" xmlns="http://www.w3.org/2000/svg">
<g clip-path="url(#clip0_2181_17308)">
<path d="M6.38281 0.332031L6.51465 0.383824L7.2793 1.13482L7.49023 1.31609L9.46777 3.25832V0.40972H10.5225V5.71847L10.3906 5.66668L9.99512 5.25234L9.3623 4.63082L9.23047 4.52724L9.0459 4.32007L8.17578 3.46549L7.96484 3.28421L7.56934 2.89577L7.46387 2.84398V5.71847L7.4375 5.74437H6.43555L6.40918 5.71847L6.38281 5.33003V0.332031Z" fill="currentColor"/>
<path d="M21.7285 0.4375L22.7568 0.463396L23.3896 0.541085L23.8643 0.696463L24.4707 0.981323L24.8926 1.31798L25.1562 1.62873L25.3672 1.99128L25.4727 2.27614L25.5254 2.50921L25.5518 2.74227V3.31199L25.4727 3.82992L25.3145 4.24426L25.1299 4.55502L24.8135 4.89167L24.6025 5.09884L24.2598 5.30601L23.8379 5.48729L23.4424 5.61677L22.8887 5.69446L22.4668 5.72035H21.1748L21.1484 5.69446V0.463396L21.7285 0.4375ZM22.1504 1.29208L22.124 1.39566V4.83988L22.1768 4.89167L22.7568 4.86578L23.2051 4.78809L23.6006 4.6586L23.8906 4.50323L24.1543 4.29606L24.3389 4.06299L24.4707 3.80402L24.5762 3.38968V2.76817L24.4707 2.35383L24.3125 2.04307L24.1807 1.8877L23.917 1.68052L23.5479 1.49925L23.0469 1.36977L22.625 1.31798L22.1504 1.29208Z" fill="currentColor"/>
<path d="M26.791 0.460938H27.793V2.48085L29.9551 2.45496L29.9814 0.460938H30.957L30.9834 0.486834V5.692L30.8252 5.7179H30.0078L29.9814 5.692V3.30954H27.7666L27.793 5.692L27.2656 5.7179H26.8438L26.791 5.64021V0.460938Z" fill="currentColor"/>
<path d="M48.624 0.4375L49.7051 0.463396L50.2061 0.541085L50.6016 0.696463L50.8916 0.877738L51.0498 1.00722L51.2344 1.26618L51.4189 1.62873L51.5244 1.99128L51.5508 2.17256V2.66459L51.498 2.92355L51.3135 3.2861L51.1025 3.57096L50.8652 3.80402L50.6807 3.90761L50.8389 4.08888L51.0762 4.42554L51.709 5.30601L51.8936 5.59087L51.9199 5.69446L51.8936 5.72035H50.9443L50.8125 5.66856L50.6279 5.4096L49.9951 4.52912L49.7051 4.11478L49.4414 3.72634L49.3887 3.57096L49.8105 3.49327L50.0742 3.33789L50.3115 3.13072L50.4697 2.87176L50.5225 2.71638L50.5488 2.30204L50.4697 1.99128L50.3115 1.73232L50.1006 1.55104L49.8633 1.44746L49.5996 1.39566L49.2305 1.36977V2.14666L49.2568 5.66856L49.2305 5.69446L48.8613 5.72035H48.334L48.2812 5.64267V0.489293L48.3076 0.463396L48.624 0.4375Z" fill="currentColor"/>
<path d="M11.8672 0.460938H12.8164V1.47089L12.79 2.42906L13.001 2.24779L14.3721 0.901175L14.583 0.719901L14.8203 0.486834L14.873 0.460938H16.1123L15.9541 0.642212L15.7695 0.823486L15.5586 1.00476L15.3477 1.21193L15.1367 1.39321L14.9521 1.57448L14.7412 1.75575L14.1084 2.37727L13.8975 2.55854L13.6074 2.8175L13.7656 2.99878L14.0557 3.30954L14.293 3.5944L14.9258 4.31949L15.1631 4.57846L15.4004 4.86332L15.6904 5.17407L16.0332 5.56252L16.1123 5.7179L16.0596 5.74379L14.873 5.7179L14.7412 5.58841L14.4512 5.25176L14.1348 4.88921L13.8447 4.52666L13.5283 4.16411L13.2119 3.82746L13.0273 3.62029L12.8428 3.43902L12.8164 4.83742V5.692L12.7373 5.7179H11.9199L11.8936 5.692L11.8672 2.35137V0.460938Z" fill="currentColor"/>
<path d="M40.8711 0.4375H41.3721L41.9258 0.489293L42.2158 0.592878L42.6377 0.825945L42.8486 1.00722L43.0068 1.26618L43.1123 1.49925L43.1914 1.91359V2.74227L43.1123 3.00124L42.9541 3.2861L42.7432 3.54506L42.4268 3.77813L42.084 3.93351L41.8467 4.0112L41.2666 4.08888L40.9766 4.11478V5.69446L40.6602 5.72035H40.001L39.9746 5.69446V0.463396L40.8711 0.4375ZM40.9766 1.26618L40.9502 1.60284V3.13072L41.0029 3.18251H41.3721L41.6885 3.13072L42.0049 2.97534L42.1895 2.76817L42.2686 2.561V2.09487L42.1895 1.8359L42.0312 1.60284L41.8467 1.44746L41.5303 1.31798L41.1611 1.26618H40.9766Z" fill="currentColor"/>
<path d="M32.2227 0.460938H34.8066V1.36731H33.1982L33.2246 2.45496L34.6748 2.48085L34.7012 2.50675V3.38722H33.1982V4.73383H34.7803L34.8066 4.75973V5.692L34.5166 5.7179H32.249L32.2227 5.64021V0.460938Z" fill="currentColor"/>
<path d="M45.4053 0.4375H46.3809L46.9873 0.463396L47.0137 0.489293L47.04 1.34387L47.0137 1.36977H45.4053V2.48331H46.8555L46.8818 2.50921V3.36379L46.8555 3.38968H45.4053V4.73629H47.0137V5.66856L46.9873 5.69446L46.1963 5.72035H44.4824L44.4297 5.66856V0.463396L45.4053 0.4375Z" fill="currentColor"/>
<path d="M17.457 0.460938H19.9619L19.9883 0.823486V1.36731L18.3799 1.39321V2.45496L19.8828 2.48085V3.38722H18.3535L18.3799 3.46491V4.70794L19.9619 4.73383L19.9883 4.83742V5.6661L19.8828 5.7179H17.4834L17.457 5.6661V0.460938Z" fill="currentColor"/>
<path d="M36.0723 0.460938H37.0479V4.86332H38.6299L38.6562 4.88921V5.692L37.707 5.7179H36.125L36.0723 5.6661V0.460938Z" fill="currentColor"/>
<path d="M0.160156 0.460938H1.08301L1.13574 0.486834V4.83742L2.63867 4.86332L2.69141 4.88921V5.692L1.18848 5.7179H0.212891L0.160156 5.692V0.460938Z" fill="currentColor"/>
<path d="M4.08984 0.460938H5.03906V5.692L4.88086 5.7179H4.19531L4.08984 5.6661V0.460938Z" fill="currentColor"/>
</g>
<defs>
<clipPath id="clip0_2181_17308">
<rect width="52" height="6" fill="currentColor"/>
</clipPath>
</defs>
</svg>
