<svg width="22" height="11" viewBox="0 0 22 11" fill="none" xmlns="http://www.w3.org/2000/svg">
<g clip-path="url(#clip0_2210_17358)">
<path d="M16.539 0C18.084 0 19.3714 0.523809 20.4014 1.57143C21.4414 2.61905 21.9614 3.92857 21.9614 5.5C21.9614 7.07143 21.4414 8.38096 20.4014 9.42857C19.3714 10.4762 18.084 11 16.539 11H12.707V0H16.539ZM16.539 8.86287C17.4983 8.86287 18.2809 8.54857 18.8867 7.92C19.4926 7.29143 19.7955 6.48478 19.7955 5.5C19.7955 4.51522 19.4926 3.70857 18.8867 3.08C18.2809 2.45143 17.4983 2.13714 16.539 2.13714H12.707V8.86287H16.539Z" fill="currentColor"/>
<path d="M7.92151 0H10.4207V11H8.25474V3.11143L5.3012 7.74714H5.10429L2.16592 3.11143V11H0V0H2.48399L5.21032 4.22714L7.92151 0Z" fill="currentColor"/>
</g>
<defs>
<clipPath id="clip0_2210_17358">
<rect width="22" height="11" fill="currentColor"/>
</clipPath>
</defs>
</svg>
