<svg width="51" height="14" viewBox="0 0 51 14" fill="none" xmlns="http://www.w3.org/2000/svg">
<path d="M0.878906 8.89262C0.878906 8.06759 1.06027 7.35083 1.42301 6.74236C1.79611 6.13388 2.30394 5.66978 2.9465 5.3501C3.59943 5.02005 4.34045 4.85507 5.16954 4.85507C5.98831 4.85507 6.71898 5.02005 7.36153 5.3501C8.01447 5.66978 8.52227 6.13388 8.88503 6.74236C9.25812 7.35083 9.44466 8.06759 9.44466 8.89262C9.44466 9.71766 9.25812 10.4344 8.88503 11.0429C8.52227 11.6514 8.01447 12.1206 7.36153 12.4506C6.71898 12.7704 5.98831 12.9302 5.16954 12.9302C4.34045 12.9302 3.59943 12.7704 2.9465 12.4506C2.30394 12.1206 1.79611 11.6514 1.42301 11.0429C1.06027 10.4344 0.878906 9.71766 0.878906 8.89262ZM2.88432 8.89262C2.88432 9.60422 3.08642 10.1663 3.49061 10.5788C3.8948 10.9914 4.45445 11.1976 5.16954 11.1976C5.88469 11.1976 6.44432 10.9914 6.8485 10.5788C7.25272 10.1663 7.45478 9.60422 7.45478 8.89262C7.45478 8.18103 7.25272 7.61898 6.8485 7.20646C6.44432 6.79389 5.88469 6.58766 5.16954 6.58766C4.45445 6.58766 3.8948 6.79389 3.49061 7.20646C3.08642 7.61898 2.88432 8.18103 2.88432 8.89262ZM2.46458 4.05063L2.10703 2.59648L7.65689 1.3125L8.01447 2.76665L5.23954 3.40864L2.46458 4.05063Z" fill="currentColor"/>
<path d="M10.8008 6.07859C10.8008 5.68673 10.9044 5.38765 11.1117 5.18137C11.3293 4.97509 11.6351 4.87713 12.0289 4.88746L16.8325 5.01118V6.74381L12.8062 6.63553V12.777H10.8008V6.07859Z" fill="currentColor"/>
<path d="M18.0879 12.7765V1.40625H20.0933V5.75322L19.7358 6.94441H20.2488C20.4561 6.31528 20.8084 5.80992 21.3059 5.42834C21.8033 5.04679 22.4874 4.856 23.3579 4.856C24.0834 4.856 24.7104 5.03647 25.239 5.3974C25.7779 5.74806 26.1821 6.23277 26.4515 6.85157C26.7314 7.46004 26.8713 8.14071 26.8713 8.89356C26.8713 9.64641 26.7314 10.3322 26.4515 10.951C26.1821 11.5595 25.7779 12.0442 25.239 12.4051C24.7104 12.7558 24.0834 12.9312 23.3579 12.9312C22.4874 12.9312 21.8033 12.7404 21.3059 12.3588C20.8084 11.9772 20.4561 11.477 20.2488 10.8582H19.7358L20.0933 12.0339V12.7765H18.0879ZM20.0933 8.89356C20.0933 9.66706 20.3058 10.2446 20.7307 10.6261C21.166 11.0077 21.7567 11.1985 22.5029 11.1985C23.2491 11.1985 23.8295 11.0129 24.244 10.6416C24.6586 10.26 24.8659 9.67734 24.8659 8.89356C24.8659 8.10977 24.6586 7.53223 24.244 7.16097C23.8295 6.77938 23.2491 6.58859 22.5029 6.58859C21.7567 6.58859 21.166 6.77938 20.7307 7.16097C20.3058 7.54256 20.0933 8.12006 20.0933 8.89356Z" fill="currentColor"/>
<path d="M30.6138 4.06623C30.2096 4.06623 29.8883 3.9631 29.65 3.75684C29.4116 3.54026 29.2924 3.2515 29.2924 2.89054C29.2924 2.52958 29.4116 2.24597 29.65 2.03971C29.8883 1.82313 30.2096 1.71484 30.6138 1.71484C31.0076 1.71484 31.3289 1.82313 31.5776 2.03971C31.8264 2.25628 31.9507 2.53989 31.9507 2.89054C31.9507 3.2515 31.8264 3.54026 31.5776 3.75684C31.3393 3.9631 31.018 4.06623 30.6138 4.06623ZM27.6445 12.7757V11.043H29.852V6.63421L28.0643 6.74249V5.00986L30.5516 4.8552C30.9455 4.83455 31.246 4.92739 31.4533 5.13363C31.6606 5.32958 31.7642 5.62349 31.7642 6.01541V11.043H33.9717V12.7757H27.6445Z" fill="currentColor"/>
<path d="M37.4083 11.1961L40.2221 11.0414V12.774L36.6155 12.9287C36.2217 12.939 35.9211 12.8411 35.7139 12.6348C35.5066 12.4285 35.4029 12.1243 35.4029 11.7221V6.74087H33.5996V5.00824H35.4029V3.33754L37.4083 2.71875V5.00824H39.9113V6.74087H37.4083V11.1961Z" fill="currentColor"/>
<path d="M41.3691 10.6411C41.3691 9.97076 41.592 9.43964 42.0376 9.04773C42.4936 8.65581 43.2398 8.39799 44.2762 8.27423L46.981 7.94938C46.9603 7.47496 46.7999 7.11402 46.4991 6.86653C46.1988 6.61899 45.7583 6.49522 45.178 6.49522C44.6284 6.49522 44.1883 6.61899 43.8564 6.86653C43.5352 7.10369 43.3745 7.46468 43.3745 7.94938H41.478C41.478 7.35123 41.6334 6.82011 41.9443 6.35601C42.2552 5.88158 42.6905 5.51548 43.2502 5.25766C43.8098 4.98952 44.4525 4.85547 45.178 4.85547C46.3074 4.85547 47.2246 5.16483 47.9293 5.78363C48.6341 6.3921 48.9867 7.26872 48.9867 8.41348V11.0433H50.1214V12.7759H48.5356C48.1936 12.7759 47.9293 12.6831 47.7429 12.4975C47.5666 12.3118 47.4787 12.054 47.4787 11.724V11.461L47.7895 10.5792H47.2611C47.0953 11.2908 46.7686 11.8632 46.2815 12.2963C45.7944 12.7192 45.0742 12.9306 44.1206 12.9306C43.0844 12.9306 42.3641 12.6934 41.9599 12.219C41.566 11.7343 41.3691 11.2083 41.3691 10.6411ZM43.3745 10.3008C43.3745 10.5998 43.473 10.8267 43.6699 10.9814C43.8772 11.1258 44.1465 11.198 44.4785 11.198C45.2347 11.198 45.841 11.0124 46.2973 10.6411C46.7532 10.2595 46.981 9.76448 46.981 9.15601L44.6337 9.44992C44.1883 9.5015 43.8668 9.58918 43.6699 9.7129C43.473 9.82634 43.3745 10.0223 43.3745 10.3008Z" fill="currentColor"/>
</svg>
