<svg width="38" height="10" viewBox="0 0 38 10" fill="none" xmlns="http://www.w3.org/2000/svg">
<g clip-path="url(#clip0_2135_17548)">
<path d="M26.3838 1.62891H27.3672L27.8125 1.6856L28.2578 1.78008L28.8145 1.96904L29.1113 2.12021L29.1299 2.13911L29.1484 3.57524L29.0557 3.55635L28.7959 3.46187L28.3691 3.34849L27.7012 3.21621L27.2002 3.15952H26.3467L26.124 3.21621L25.957 3.32959L25.8643 3.51855L25.8457 3.59414V3.78311L25.9199 3.99097L26.0312 4.12324L26.3096 4.27441L26.6436 4.38779L27.9795 4.69014L28.4619 4.84131L28.6846 4.93579L28.9072 5.06807L29.0742 5.20034L29.2598 5.37041L29.3896 5.55938L29.4639 5.71055L29.5566 6.01289L29.5938 6.22075L29.6123 6.57979L29.5752 6.88213L29.4639 7.26006L29.3525 7.46792L29.167 7.71357L28.9443 7.94033L28.6104 8.16709L28.3135 8.31826L27.8682 8.46943L27.5342 8.54502L27.1074 8.60171L26.7734 8.62061H26.5693L26.0312 8.58281L25.623 8.52612L25.1406 8.41274L24.751 8.28047L24.3799 8.1104L24.1387 7.97813V6.5042L24.25 6.54199L24.6953 6.71206L25.3076 6.90103L25.8828 7.0333L26.4023 7.10889L26.6992 7.12778H26.9775L27.2744 7.07109L27.5156 6.97661L27.6826 6.84434L27.7754 6.65537V6.40972L27.7197 6.29634L27.5713 6.16406L27.3672 6.06958L26.9775 5.9751L25.957 5.76724L25.5674 5.67275L25.2891 5.57827L24.9551 5.4271L24.6953 5.25703L24.4912 5.08696L24.3242 4.8791L24.1943 4.65234L24.1016 4.3689L24.0459 4.02876L24.0273 3.72642L24.083 3.2729L24.2129 2.87607L24.3242 2.66821L24.4727 2.46035L24.7139 2.2147L24.9922 2.02573L25.2891 1.87456L25.6787 1.74229L26.1982 1.6478L26.3838 1.62891Z" fill="currentColor"/>
<path d="M8.40527 0.210938H12.4502V1.60928L12.4316 1.62817H10.0566V7.88291L10.0381 8.5065H11.3926L12.4502 8.52539V9.92373L9.46289 9.94263H8.40527L8.38672 9.90483V0.229834L8.40527 0.210938Z" fill="currentColor"/>
<path d="M31.21 0.511719L31.3213 0.530615L31.5811 0.681787L31.9521 0.908545L32.2119 1.07861L33.1025 1.64551L33.4922 1.89116L33.8447 2.11792L34.0859 2.26909L34.4385 2.49585L34.7354 2.68481L35.125 2.93047L35.5332 3.19502L35.8672 3.40288L36.7578 3.96978L37.1104 4.19653L37.5 4.44219L37.8154 4.65005L37.9824 4.82012L38.001 4.85791V5.57598L37.8896 5.72715L37.6113 5.89722L37.2217 6.12398L36.4238 6.59639L35.459 7.16328L34.9395 7.46563L34.624 7.65459L34.1416 7.93804L33.6221 8.24038L33.1768 8.50493L32.6572 8.80728L32.1748 9.09072L31.7295 9.35527L31.377 9.56314L31.2471 9.63872H31.21L31.1914 9.44976V7.78687L31.377 7.65459L31.6182 7.52232L32.0264 7.27666L32.9912 6.70977L33.3809 6.48301L34.1787 6.0106L34.6982 5.70825L35.0137 5.51929L35.4961 5.23584L35.5889 5.16025L35.3477 5.02798L35.0879 4.85791L34.7354 4.63115L34.4385 4.44219L34.0488 4.19653L33.6035 3.91309L33.251 3.68633L32.8613 3.44067L32.5088 3.21392L32.1191 2.96826L31.6738 2.68481L31.3213 2.45806L31.1914 2.36357V0.889648L31.21 0.511719Z" fill="currentColor"/>
<path d="M0 0.492188L0.166992 0.548877L0.59375 0.813428L0.946289 1.04019L1.3916 1.32363L1.78125 1.56929L2.13379 1.79604L2.52344 2.0417L2.87598 2.26846L3.26562 2.51411L3.71094 2.79756L4.06348 3.02432L4.45312 3.26997L4.80566 3.49673L5.19531 3.74238L5.54785 3.96914L6.03027 4.27148L6.38281 4.49824L6.58691 4.63052L6.75391 4.78169L6.79102 4.95176V5.44307L6.75391 5.61313L6.62402 5.76431L6.38281 5.91548L5.91895 6.18003L5.56641 6.38789L5.02832 6.70913L4.63867 6.93589L4.15625 7.21934L3.71094 7.48389L2.74609 8.05078L2.22656 8.35312L1.78125 8.61767L1.26172 8.92002L0.816406 9.18457L0.333984 9.46802L0.0556641 9.63809H0V7.76733L0.31543 7.57837L1.20605 7.04927L1.63281 6.80361L2.07812 6.53906L2.56055 6.25561L3.00586 5.99106L3.43262 5.74541L3.84082 5.49976L4.30469 5.2352L4.39746 5.19741V5.15962L4.30469 5.12183L3.9707 4.91396L3.5625 4.64941L3.17285 4.40376L2.82031 4.177L2.43066 3.93135L2.13379 3.74238L1.74414 3.49673L1.3916 3.26997L1.00195 3.02432L0.705078 2.83535L0 2.38184V0.492188Z" fill="currentColor"/>
<path d="M20.9668 0H21.0781V1.83296H23.0449L23.0635 1.85186V3.2124L23.0264 3.2313H21.0781L21.0967 6.31143L21.1338 6.48149L21.2451 6.67046L21.3564 6.76494L21.5049 6.84053L21.7461 6.89722H22.2471L22.5439 6.84053L22.8408 6.72715L22.8965 6.70825V8.20107L22.8408 8.25776L22.5254 8.39004L22.1729 8.48452L21.8203 8.54121L21.5977 8.56011H21.1152L20.7812 8.52232L20.4287 8.42783L20.0762 8.25776L19.8906 8.10659L19.7051 7.91763L19.5381 7.65308L19.4453 7.42632L19.3525 7.06729L19.2969 6.57598V0.604688L19.4824 0.529102L20.9297 0.037793H20.9668V0Z" fill="currentColor"/>
<path d="M17.7021 1.66406H18.2959L18.3145 1.73965V3.44033L18.2959 3.47812L17.8135 3.42144H17.2939L16.9785 3.47812L16.5889 3.6104L16.3291 3.76157L16.1436 3.91274L15.9766 4.1395L15.8652 4.36626L15.8467 4.44185L15.8281 8.37231L15.791 8.39121H14.0654L14.0469 8.37231V1.85303L14.0654 1.83413H15.6055L15.624 1.85303L15.7168 2.89233L15.7354 2.93013L15.958 2.58999L16.2178 2.30654L16.3848 2.15537L16.6445 1.9853L16.9043 1.85303L17.2568 1.73965L17.7021 1.66406Z" fill="currentColor"/>
</g>
<defs>
<clipPath id="clip0_2135_17548">
<rect width="38" height="10" fill="currentColor"/>
</clipPath>
</defs>
</svg>
